<svg preserveAspectRatio="none" width="100%" height="100%" overflow="visible" style="display: block;" viewBox="0 0 139 201" fill="none" xmlns="http://www.w3.org/2000/svg">
<path id="Decorative icon/Knot" fill-rule="evenodd" clip-rule="evenodd" d="M65.8357 0.375662C66.6186 0.247213 67.4879 0.102811 67.7675 0.0545386C68.8157 -0.126533 72.4001 0.1689 73.9437 0.56357C76.6843 1.26445 79.403 2.67676 81.8751 4.68389C84.1234 6.50952 85.5977 8.4665 87.1085 11.6311C88.9512 15.491 89.6829 19.4914 89.4578 24.4768C89.2664 28.7211 88.5138 32.195 87.5799 33.1465C87.2551 33.4774 86.6231 33.7828 85.9415 33.9382C84.9535 34.1636 84.7268 34.147 83.8741 33.7871C82.3877 33.1598 82.3296 32.8932 82.8322 29.0155C83.3245 25.2171 83.2798 20.1413 82.7324 17.6678C82.332 15.8592 80.8811 12.8311 79.6727 11.282C77.2098 8.12487 73.3285 6.17928 69.4551 6.16001C67.4773 6.15028 66.1519 6.46125 64.1624 7.40203C60.1736 9.28858 57.7585 12.1178 56.3274 16.5805C55.465 19.2697 55.3398 23.2326 55.9616 28.1573C56.3534 31.2604 56.3675 31.681 56.0978 32.2124C55.6958 33.0044 55.4223 33.2087 54.3838 33.4915C53.2158 33.8097 51.5265 33.4652 50.8945 32.7796C49.8861 31.6862 49.1404 26.2391 49.334 21.3802C49.6107 14.4363 51.55 9.75887 55.9128 5.51197C58.6835 2.81495 62.2656 0.960727 65.8357 0.375662ZM86.9603 15.7276C85.0033 8.83548 80.0993 3.69192 73.9766 2.10951C68.1671 0.607904 62.4667 1.90773 57.8691 5.78233C53.6398 9.34679 51.3115 14.3184 50.9176 20.6267C50.6631 24.7058 51.2255 30.3437 52.0088 31.5616C52.2672 31.9634 52.4974 32.0498 53.31 32.0498C54.8131 32.0498 54.88 31.8755 54.4841 28.9858C53.0544 18.55 54.7553 12.2819 60.2322 7.80354C63.115 5.44629 66.3345 4.37126 69.975 4.55046C76.4452 4.86889 81.9768 9.54879 83.9077 16.3377C84.9118 19.8684 85.0216 23.6154 84.2912 29.4335C83.9669 32.0183 83.9683 32.1092 84.3396 32.3858C84.9088 32.8099 85.7756 32.7322 86.3539 32.2051C86.7712 31.825 86.9432 31.3201 87.2869 29.4673C88.1486 24.8199 88.0213 19.4649 86.9603 15.7276ZM60.7483 13.6817C62.1623 12.0355 64.5724 10.6402 67.0558 10.0299C67.8157 9.84319 71.1644 9.8811 72.238 10.0885C75.0765 10.6369 78.2678 13.1895 79.754 16.1005C80.2217 17.0162 80.8405 18.672 81.129 19.78C81.5932 21.5621 81.6557 22.2128 81.6697 25.4201C81.6788 27.4736 81.5719 29.7644 81.4232 30.7031C81.0857 32.8341 79.9256 36.8714 79.2082 38.4117C78.901 39.0718 78.6204 39.6749 78.585 39.7523C78.5496 39.8296 80.0173 38.883 81.8466 37.6487C87.5077 33.8292 91.4371 31.9491 96.5406 30.6186C99.8543 29.7547 102.216 29.5328 105.438 29.7826C108.621 30.0294 110.549 30.5367 113.215 31.8295C115.632 33.0017 117.218 34.1849 119.147 36.254C120.766 37.9903 121.948 40.0492 122.798 42.6157C123.336 44.2381 123.381 44.605 123.365 47.2772C123.349 49.8611 123.286 50.3699 122.782 51.9386C122.042 54.242 121.436 55.4532 120.13 57.2345C117.193 61.2425 113.181 63.5846 105.793 65.6056C98.2953 67.6565 96.139 68.4276 92.0671 70.5138C88.2192 72.4851 82.1413 76.6864 78.1571 80.1287C77.4408 80.7475 76.4208 81.627 75.8907 82.0827C75.3606 82.5385 73.9603 83.7687 72.7793 84.8168C71.2302 86.1912 70.4258 86.7614 69.8929 86.8633C67.5963 87.3023 64.6143 85.8664 63.917 83.9856C63.5207 82.9174 63.6541 81.8113 64.2916 80.877C65.0427 79.7758 69.1712 75.6613 71.4277 73.7648C78.0786 68.1754 84.7009 64.1937 91.762 61.539C93.7528 60.7906 99.5835 59.2901 103.273 58.577C106.994 57.8574 108.519 57.3915 110.563 56.3498C113.793 54.7036 115.869 52.2482 116.665 49.1331C117.1 47.4319 117.055 46.1966 116.49 44.3858C115.646 41.6756 113.938 39.552 111.373 38.0233C105.742 34.6664 98.1999 35.5956 89.1241 40.7648C85.8498 42.6296 82.1726 45.3212 78.8841 48.2602L78.7963 48.3387C74.4569 52.217 73.9175 52.6991 73.3363 52.7589C73.2537 52.7674 73.1704 52.7674 73.0752 52.7673H73.062C72.468 52.7673 72.1392 52.5712 71.1932 51.6523C68.6364 49.1691 68.673 48.9885 72.5081 45.1609L75.4104 42.2644L74.5517 42.0305C73.8804 41.8475 73.5874 41.6159 73.2086 40.9687L72.7242 40.141L72.2539 41.6374C71.717 43.346 70.7658 45.3123 70.243 45.7942C69.0968 46.8512 67.7596 46.862 66.4248 45.8247C65.5954 45.1802 65.5057 44.2982 66.1408 43.0301C66.6745 41.9642 66.6609 41.9238 65.9041 42.3226C65.4506 42.5614 64.9307 42.6335 64.1415 42.5668C63.2018 42.4875 62.93 42.3669 62.4464 41.8156C61.7058 40.9712 61.7215 40.6045 62.5497 39.3759C63.8607 37.4318 64.3704 34.6894 64.7208 27.6991C64.9187 23.7503 65.2267 21.8146 65.7695 21.1109C66.6306 19.9944 67.7872 19.4508 69.3499 19.4278C71.9767 19.3892 73.6029 21.0296 74.0927 24.2117C74.4726 26.68 73.9788 34.2709 73.1886 38.1096C73.0302 38.8787 72.9341 39.5081 72.9747 39.5081C73.2376 39.5081 74.1356 37.6549 74.671 36.007C75.9417 32.0966 76.1776 30.6316 76.1926 26.5596C76.2073 22.5538 75.998 21.3042 74.9541 19.1607C73.5054 16.1863 70.5692 14.8631 67.4479 15.7784C65.8453 16.2482 64.1744 17.9274 63.5087 19.7373C62.6776 21.9959 62.4905 26.0576 62.9255 32.397C63.1996 36.3915 63.1361 36.747 62.0271 37.4361C60.6497 38.2918 58.6801 37.7222 58.0967 36.2996C57.3396 34.4536 57.1951 22.4258 57.8927 19.3368C58.2937 17.5603 59.5451 15.0825 60.7483 13.6817ZM77.9695 15.8629C76.4692 13.5245 74.9685 12.3898 72.4357 11.6788C70.1444 11.0355 67.8255 11.1355 65.6302 11.9723C62.5949 13.1294 60.293 15.9151 59.2759 19.6621C58.9766 20.7651 58.9229 21.8905 58.9273 26.9739C58.9347 35.1756 59.1667 36.4004 60.7139 36.4004C61.6639 36.4004 61.7243 36.0868 61.5208 32.2103C61.4173 30.2419 61.3597 27.1687 61.3929 25.381C61.4899 20.1535 62.0926 18.1547 64.1785 16.1449C65.4653 14.9049 66.5926 14.3449 68.4739 14.0112C70.6735 13.6208 72.542 14.2316 74.3394 15.9279C77.1187 18.5514 78.2377 22.9234 77.6311 28.7896C77.2205 32.7604 76.4003 35.8363 75.0021 38.6477C74.3843 39.8895 74.4486 40.4642 75.2392 40.7704C75.6825 40.9422 75.8535 40.885 76.3594 40.3958C77.6417 39.1565 78.9058 35.8326 79.6702 31.6899C80.9436 24.7903 80.3897 19.6351 77.9695 15.8629ZM72.612 26.7668C72.5394 22.8874 72.335 22.0823 71.2166 21.271C70.5387 20.7792 69.1378 20.5929 68.2324 20.8743C67.4393 21.1208 66.6558 22.125 66.3831 23.2448C66.2721 23.7006 66.1253 25.9689 66.0568 28.2856C65.8571 35.0335 65.2727 38.2064 63.903 39.9802C63.6585 40.297 63.5101 40.6933 63.5731 40.8607C63.7344 41.2892 65.2542 41.2546 66.1353 40.8025C66.7471 40.4889 66.9011 40.2454 67.2864 38.9823C67.9037 36.959 68.3381 32.9448 68.503 27.7413C68.6274 23.8145 68.6823 23.3075 69.0038 23.1323C69.5699 22.8236 69.9811 23.1151 70.1314 23.932C70.3959 25.3683 70.036 33.2574 69.5817 35.9828C69.064 39.089 68.3269 41.7727 67.6532 43.0044C66.9163 44.3519 67.0747 45.1018 68.0965 45.1018C68.9166 45.1018 69.2047 44.8549 69.8095 43.6344C71.8116 39.5934 72.7466 33.9657 72.612 26.7668ZM30.1489 30.826C30.7641 30.7037 31.4503 30.5608 31.674 30.5086C32.6263 30.2863 39.458 30.5834 40.9261 30.9109C47.9104 32.4691 55.364 36.6393 61.5005 42.4226C65.999 46.6621 73.0544 54.9725 73.0544 56.0318C73.0544 57.3231 70.4836 59.639 69.0063 59.6785C67.9113 59.7077 67.4283 59.3056 65.1621 56.4772C54.7545 43.4886 43.6475 36.5736 34.0125 37.0841C30.1351 37.2896 27.1663 38.4641 24.814 40.7234C20.8193 44.5599 20.9202 50.2431 25.057 54.4248C27.2718 56.6633 30.0637 57.8614 35.4359 58.8784C46.0811 60.8934 53.03 63.7131 58.7354 68.3325L60.2576 69.5648L61.1657 68.8067C61.6652 68.3897 62.0739 67.9817 62.0739 67.8999C62.0739 67.5765 55.3371 61.0299 53.334 59.4069C49.8041 56.5471 46.206 54.3481 42.2747 52.6482C40.4562 51.8618 39.7087 51.1578 39.7069 50.2294C39.7059 49.7724 39.432 49.7645 39.07 50.2114C38.664 50.7126 37.3192 51.2688 36.1246 51.43C33.1991 51.8243 30.5621 49.6726 30.5569 46.8869C30.5487 42.6976 36.2141 40.6513 39.1361 43.7879C39.7632 44.4612 40.3161 45.6883 40.3161 46.4073C40.3161 47.1336 40.4865 47.1924 41.3013 46.7474C42.2393 46.2353 42.7904 46.2413 44.5141 46.7829C47.3254 47.6658 53.167 50.8663 56.5401 53.3717C59.3635 55.4687 64.976 60.4853 66.8919 62.6242L67.338 63.1222L69.637 61.0989C73.7267 57.4994 77.6777 54.3367 80.4765 52.422C84.5745 49.6185 90.2431 46.603 93.7066 45.384C95.9379 44.5988 96.293 44.5814 97.6832 45.1886C97.9327 45.2976 98.0893 45.1362 98.3309 44.5213C99.0302 42.7407 100.687 41.678 102.743 41.693C105.44 41.7124 107.427 43.6657 107.415 46.2865C107.403 48.8662 105.385 50.7685 102.696 50.7341C101.466 50.7184 99.9995 50.1876 99.5072 49.5801C99.242 49.253 99.1654 49.2806 98.4905 49.9458C98.0122 50.4176 97.0412 50.9562 95.6723 51.5092C91.4528 53.214 86.8867 55.8539 82.903 58.8917C77.13 63.2935 69.5354 70.6017 64.6159 76.489C63.283 78.0842 61.1029 80.6795 59.7716 82.2561C58.4403 83.8327 57.4299 85.1916 57.5265 85.2759C57.6231 85.3603 58.2358 85.7817 58.8879 86.2126C59.5402 86.6435 61.3475 88.0109 62.9043 89.2512C63.0793 89.3906 63.2456 89.5232 63.4037 89.6493C65.8042 91.5632 66.3208 91.9752 66.6536 91.8556C66.7448 91.8229 66.8222 91.7501 66.9209 91.6574C66.9447 91.635 66.9697 91.6115 66.9964 91.5871C68.2649 90.4299 78.3058 83.2222 78.6494 83.2222C78.7143 83.2222 79.2894 82.882 79.927 82.4662C81.5493 81.4084 87.394 78.0946 89.8447 76.8431C96.9276 73.2262 105.509 70.5049 111.486 69.9801C123.062 68.9637 132.666 74.3205 135.109 83.1553C135.679 85.2188 135.742 89.0903 135.235 90.9913C133.756 96.5449 130.558 100.333 124.687 103.487C122.565 104.626 120.799 105.309 116.265 106.743C109.969 108.734 104.137 109.932 98.3166 113.274C96.7432 114.177 92.8631 116.306 91.6604 117.217L78.8973 125.652C78.514 125.652 79.2084 127.011 76.6581 129.033C74.3625 130.852 73.6269 131.178 71.8344 131.168C70.0639 131.158 69.0229 130.715 68.0135 129.544C66.9562 128.317 66.7014 126.73 67.2827 124.992C67.5389 124.226 67.8753 123.796 68.8115 123.039C69.4715 122.505 70.6599 121.508 71.4519 120.825C79.8614 113.567 83.499 111.085 91.6604 107.038C98.5991 103.597 106.397 100.849 113.967 99.1777C116.816 98.5489 120.009 97.4482 121.922 96.4355C124.255 95.2003 126.426 93.0579 127.472 90.9582C128.249 89.3992 128.262 89.3341 128.262 87.0742C128.262 84.9115 128.223 84.6917 127.601 83.3469C126.339 80.6234 123.364 78.2838 119.925 77.3123C118.471 76.9015 113.314 76.7291 111.221 77.0214C109.477 77.2651 105.687 78.21 103.071 79.0534C96.358 81.2184 86.4239 87.0786 76.1853 94.9136C74.7641 96.001 71.75 98.4948 68.3775 101.373C65.9228 103.469 60.9675 108.181 57.4 111.812C53.9757 115.298 49.0495 120.697 48.8962 121.132C48.862 121.228 49.4906 121.74 50.2932 122.269L51.7522 123.231L53.1786 121.613C57.9657 116.186 66.7518 107.967 73.634 102.479C84.2554 94.009 95.9302 87.2168 104.38 84.5912C106.539 83.9204 107.092 83.9171 108.351 84.568C108.441 84.6143 108.524 84.6577 108.6 84.697C109.151 84.9836 109.349 85.0863 109.418 85.0287C109.457 84.9964 109.456 84.914 109.454 84.7854C109.453 84.7538 109.453 84.7193 109.453 84.6822C109.453 83.5087 110.678 81.999 112.156 81.3514C112.994 80.9841 113.462 80.913 114.529 80.9911C116.814 81.1583 118.291 82.2423 118.917 84.2117C120.364 88.7687 114.866 92.1399 111.058 89.0294L110.325 88.4306L109.316 89.4002C108.481 90.2026 107.819 90.5639 105.474 91.4958C101.998 92.8774 98.7979 94.4953 95.3143 96.6329C85.7823 102.482 76.4271 110.055 67.3496 119.27C63.7767 122.897 58.6148 128.396 58.6248 128.565C58.629 128.638 59.8871 129.656 61.4207 130.827C62.9544 131.999 65.2595 133.791 66.5432 134.809C68.5278 136.384 68.9276 136.623 69.2133 136.408C69.3981 136.269 70.3748 135.456 71.3838 134.602C72.3928 133.747 74.8286 131.703 76.7966 130.059C78.7645 128.416 80.3748 126.994 80.3748 126.9L95.4448 117.217C98.4183 115.649 99.3512 115.235 103.674 113.569C106.228 112.585 110.983 111.404 113.418 111.15C114.537 111.033 116.87 110.984 118.603 111.042C122.394 111.167 125.412 111.866 128.41 113.314C131.668 114.887 134.11 116.836 135.877 119.271C138.266 122.562 139.286 126.281 138.931 130.4C138.462 135.842 136.011 139.844 131.045 143.276C128.632 144.944 124.631 146.651 119.01 148.412C112.047 150.593 109.169 151.67 106.098 153.244C102.813 154.928 98.8663 157.378 98.9498 157.681C99.0289 157.969 103.438 159.813 105.471 160.409C106.468 160.701 109.076 161.342 111.266 161.833C117.557 163.244 120.686 164.346 123.864 166.27C128.239 168.918 131.474 173.178 132.642 177.83C133.478 181.159 133.397 184.377 132.388 187.95C129.885 196.804 120.226 201.796 107.333 200.896C98.7087 200.294 90.8279 197.486 81.6713 191.752C77.5304 189.159 71.58 184.639 67.58 181.049L66.6806 180.242L65.4581 181.573C64.0913 183.062 60.7855 185.925 57.6784 188.311C50.2135 194.044 41.3729 198.325 33.6058 199.967C30.4678 200.631 25.2478 200.884 22.6104 200.5C20.6253 200.211 17.2513 199.097 15.2032 198.053C10.6418 195.729 7.38158 191.784 6.10743 187.047C5.48682 184.74 5.49618 179.939 6.12593 177.591C7.58207 172.161 10.9962 168.28 17.1492 165.059C19.0507 164.064 21.3501 163.199 27.0988 161.314C30.0336 160.352 36.4146 157.235 37.633 156.169L38.305 155.581L36.6177 154.478C32.6281 151.871 29.2581 150.505 22.3871 148.713C13.1842 146.312 9.28365 144.468 5.2849 140.629C1.6361 137.126 0.0014242 133.34 7.91877e-07 128.387C-0.00223599 121.109 4.73425 115.118 12.6108 112.434C17.8751 110.641 23.0677 110.516 29.0306 112.039C31.6248 112.701 35.8501 114.202 37.9931 115.223C39.9359 116.147 41.0416 116.413 40.8788 115.915C40.722 115.435 36.9357 113.005 34.3175 111.702C31.0193 110.062 27.0829 108.495 22.2185 106.886C16.471 104.985 13.9272 103.868 11.0765 101.993C7.286 99.499 4.34728 95.4537 3.38608 91.4057C2.85312 89.1615 2.90619 85.2059 3.49588 83.2222C4.46156 79.9727 6.23594 77.3662 9.00121 75.1347C10.85 73.6428 12.1886 72.9017 14.574 72.0492C17.1703 71.1213 19.5974 70.745 23.0319 70.7378C27.6171 70.728 32.1553 71.6359 37.3119 73.5943C40.0823 74.6466 45.3428 77.1992 48.1231 78.84C49.1178 79.4272 49.9987 79.9074 50.0809 79.9074C50.163 79.9074 50.3473 80.0512 50.4906 80.2271C50.6338 80.4028 50.8595 80.5194 50.9921 80.486C51.1246 80.4527 51.9518 79.5397 52.8301 78.4572C53.7083 77.3747 54.4949 76.4598 54.5778 76.4241C54.6608 76.3885 54.1624 75.8724 53.4702 75.2774C48.4417 70.9549 43.4246 68.5423 35.7409 66.7519C33.9515 66.3351 31.7096 65.7625 30.759 65.4797C28.2969 64.7473 23.6487 62.3559 21.7828 60.8619C19.8892 59.3458 17.9943 56.9937 17.0502 54.9881C15.666 52.0468 15.0977 46.7988 15.8236 43.6607C17.3163 37.2084 22.8115 32.2851 30.1489 30.826ZM116.636 35.9923C114.773 34.2195 111.596 32.5242 108.843 31.8337C107.151 31.4094 102.642 31.1336 100.913 31.3487C99.6119 31.5103 96.2885 32.2625 94.6751 32.7604C90.042 34.1903 83.0634 38.1772 78.1828 42.1825C75.5617 44.3336 71.311 48.3025 71.1387 48.7593C70.9515 49.2565 71.8811 50.5792 72.6445 50.9013C73.2867 51.1723 73.2919 51.1692 74.8489 49.6191C85.8875 38.628 98.5425 32.807 107.377 34.6569C109.077 35.0128 111.513 35.9629 112.808 36.7752C119.875 41.2065 120.587 50.7095 114.242 55.9172C111.57 58.1106 108.614 59.2263 101.726 60.6419C89.6206 63.1295 79.2611 68.6977 69.0036 78.2307C66.9055 80.1804 65.5307 81.8192 65.5307 82.3703C65.5307 82.565 65.9002 83.1161 66.3516 83.5949C67.7148 85.0402 67.9546 84.9476 71.2048 81.7187C76.5881 76.3705 81.4253 72.6088 86.7964 69.5933C91.8686 66.7455 96.3977 65.161 104.369 63.4452C111.036 62.0101 114.335 60.431 117.538 57.1427C119.189 55.4472 120.08 53.9766 120.869 51.6438C121.877 48.6655 121.849 44.927 120.798 42.0091C120.158 40.2301 118.362 37.6348 116.636 35.9923ZM53.5019 38.0697C49.1235 35.291 45.7621 33.7536 41.8412 32.7363C40.0808 32.2797 39.2754 32.1993 35.8426 32.137C31.5323 32.0589 30.411 32.2041 27.7088 33.1909C22.3115 35.1619 18.6761 38.9959 17.6203 43.8304C17.1134 46.1518 17.3072 49.8327 18.0563 52.1121C19.4126 56.239 22.6624 59.6545 27.3406 61.8696C29.3632 62.8274 30.942 63.2786 35.6545 64.2451C39.6292 65.0601 43.4346 66.1244 45.7743 67.0751C48.8801 68.3372 52.5234 70.5764 55.1128 72.8145L56.4443 73.9652L57.7254 72.5338C58.4302 71.7465 58.9808 71.0092 58.9491 70.8952C58.8712 70.6141 56.7973 68.9211 55.1584 67.8007C52.9051 66.2605 48.7116 64.2476 45.4758 63.1527C41.7003 61.8754 40.211 61.4872 35.5375 60.5613C31.0656 59.6754 29.5363 59.206 27.3021 58.034C24.5385 56.5841 22.8953 55.0077 21.5196 52.4858C20.6154 50.8282 20.1851 49.0628 20.1851 47.0101C20.1851 40.4679 26.0386 35.5836 34.3175 35.2171C40.5933 34.9394 47.0799 37.5405 54.711 43.3951C58.6577 46.423 63.6433 51.5858 67.1406 56.2668C67.821 57.1773 68.4749 57.9836 68.5941 58.0586C69.3066 58.5074 71.4277 57.1953 71.4277 56.3059C71.4277 55.7561 66.4704 49.8103 62.8915 46.0675C59.3765 42.3914 56.6428 40.0627 53.5019 38.0697ZM104.162 48.6752C106.254 47.6043 106.305 44.4018 104.243 43.5242C102.533 42.7962 100.596 43.4001 99.8344 44.8988C98.5608 47.4042 101.55 50.0125 104.162 48.6752ZM38.8116 47.2386C39.0224 46.093 38.2621 44.73 37.0703 44.1178C35.9343 43.5341 35.1705 43.5294 34.0405 44.0993C32.9116 44.6686 32.3875 45.5311 32.3865 46.8214C32.3855 48.1769 32.841 48.9866 33.8734 49.4643C35.9955 50.4457 38.4224 49.3521 38.8116 47.2386ZM97.659 47.93C97.659 47.4827 97.4961 47.0899 97.1885 46.7953C96.5689 46.2024 95.8592 46.2365 93.9988 46.9494C88.2696 49.1445 82.3251 52.7245 76.1046 57.7261C69.0962 63.3613 63.9007 68.4257 56.7571 76.5855L52.5009 81.4471L52.9663 81.8118C53.2223 82.0121 53.9166 82.5193 54.5093 82.9386L55.5866 83.701L56.4104 82.8918C56.8634 82.4468 58.2038 80.9174 59.3891 79.493C65.098 72.6332 69.3652 68.0578 73.9372 63.8939C78.8444 59.4249 82.3385 56.7598 87.1362 53.827C89.2349 52.544 93.8998 50.229 95.556 49.6485C97.2812 49.0438 97.659 48.7351 97.659 47.93ZM55.9319 54.893C52.6436 52.3733 47.804 49.6319 44.1371 48.212C42.7329 47.6681 42.2345 47.6864 41.6287 48.3037C41.0835 48.859 40.9955 49.5663 41.4032 50.1128C41.5466 50.3049 42.756 50.9438 44.091 51.5326C49.8062 54.0529 54.9867 57.915 60.8914 64.057L63.0808 66.3343L64.3058 65.0993C64.9795 64.42 65.5307 63.7858 65.5307 63.6899C65.5307 63.1487 59.5356 57.6546 55.9319 54.893ZM133.06 82.725C131.3 77.6591 127.032 73.9461 121.101 72.3204C119.359 71.8427 118.657 71.7681 115.452 71.7188C111.45 71.6572 111.388 71.6616 108.108 72.2466C103.963 72.9859 98.0431 74.9656 93.1854 77.2373C90.5111 78.488 84.1497 81.9396 81.5949 83.5261C75.5338 87.2903 68.2368 92.8575 58.8204 100.902C55.6324 103.626 42.4687 116.846 42.5903 117.202C42.6257 117.305 43.4324 117.912 44.383 118.55L46.1114 119.71L48.0344 117.574C56.6149 108.042 67.4609 98.1731 76.918 91.2921C83.4664 86.5275 91.9634 81.4937 97.4557 79.1249C103.616 76.4681 110.158 74.9389 115.375 74.9364C120.69 74.9339 125.16 76.8493 127.851 80.2822C129.556 82.4579 130.188 84.3304 130.192 87.217C130.196 90.51 128.812 93.3086 125.975 95.7402C123.11 98.1965 120.055 99.5218 113.264 101.255C103.642 103.71 98.7719 105.514 91.152 109.443C82.89 113.704 79.9872 115.65 74.8439 120.378L73.2783 121.817L74.0807 122.409C74.8178 122.953 75.9641 124.341 76.1621 124.93C76.2107 125.074 76.6131 124.831 77.1406 124.339C79.2267 122.391 84.0877 118.631 87.2098 116.551C95.4808 111.039 103.046 107.716 114.481 104.571C123.291 102.149 126.192 100.672 129.703 96.8237C131.478 94.8779 133.101 91.8337 133.474 89.7483C133.799 87.9317 133.581 84.2243 133.06 82.725ZM51.9067 83.2856C42.7024 77.021 33.6454 73.2788 25.7047 72.4592C23.1149 72.192 22.053 72.2085 19.5568 72.5558C17.1244 72.8941 14.3028 73.8438 12.0514 75.0821C8.98433 76.7691 6.59342 79.7027 5.41687 83.2222C4.89855 84.7727 4.89855 89.1441 5.41707 91.0949C6.58142 95.4777 9.95286 99.2773 14.7965 101.666C17.1451 102.824 18.9655 103.459 24.9285 105.199C31.3788 107.081 38.522 109.893 41.9105 111.885C42.8126 112.415 43.627 112.848 43.7203 112.848C43.8801 112.848 45.3019 111.395 46.0693 110.448C46.414 110.022 46.388 109.998 44.3336 108.859C41.9573 107.542 36.5606 105.188 33.4024 104.091C31.1838 103.32 28.7867 102.626 23.947 101.354C20.6264 100.482 19.2058 100 17.2041 99.0683C13.0333 97.126 10.1517 94.2736 8.76147 90.7108C8.37633 89.7234 8.30394 89.1375 8.29723 86.9514C8.28951 84.387 8.29683 84.3461 9.03923 82.7619C10.5243 79.5937 13.5104 77.3005 17.6543 76.1463C20.0373 75.4825 24.872 75.4809 28.1005 76.1428C37.3125 78.0312 47.8274 84.3111 59.4705 94.8779L61.0356 96.2985L62.419 95.2131C63.1799 94.6163 64.0479 93.9001 64.3483 93.6214L64.8943 93.1149L63.9109 92.2596C62.7309 91.2335 54.0585 84.7501 51.9067 83.2856ZM49.1386 88.8019C42.8884 83.8601 34.812 79.6691 28.5222 78.1039C26.8442 77.6863 25.7559 77.5588 23.4386 77.5087C21.8169 77.4735 20.3071 77.4896 20.0834 77.5445C19.8598 77.5994 19.0362 77.7913 18.2533 77.9709C12.7763 79.227 9.30053 83.5568 10.0358 88.2079C10.7575 92.7736 13.7076 95.9312 19.3746 98.2033C20.1032 98.4954 23.0313 99.3413 25.8816 100.083C32.0535 101.689 36.4077 103.164 40.6211 105.077C42.659 106.002 45.8587 107.69 46.7387 108.305L47.5694 108.885L49.4318 106.979L51.2942 105.074L49.6256 103.626C42.5785 97.5126 36.8288 93.7148 30.3832 90.9165C29.785 90.6567 28.9081 90.0806 28.4346 89.6357L27.5738 88.8274L27.1443 89.419C26.2602 90.6374 23.7452 91.3624 22.0323 90.8923C19.8215 90.2859 18.5248 88.7704 18.3916 86.6369C18.2873 84.9677 18.5878 84.0696 19.5942 83.0445C22.1789 80.4108 26.8001 81.4687 27.8011 84.9229L28.0399 85.7464L28.6369 85.2395C30.1229 83.9776 31.4481 84.0565 35.3161 85.6371C42.4832 88.5659 50.536 93.4639 56.1289 98.2969L57.4029 99.3975L58.3149 98.6208C58.8165 98.1936 59.2271 97.7937 59.2269 97.7324C59.2267 97.3933 52.7233 91.6362 49.1386 88.8019ZM117.509 85.8658C117.642 84.9757 116.874 83.4491 116.062 82.9914C113.158 81.3543 109.905 83.9299 111.322 86.7442C111.889 87.8708 112.81 88.4008 114.201 88.4012C115.961 88.4018 117.281 87.3896 117.509 85.8658ZM25.8757 87.9916C26.928 86.4858 26.3552 84.3488 24.6664 83.4812C23.5169 82.8905 22.7143 82.892 21.6112 83.4864C19.4685 84.6407 19.4378 87.6137 21.5552 88.8738C22.8544 89.6469 25.0292 89.2028 25.8757 87.9916ZM108.436 87.5006C108.436 87.1055 108.252 86.5621 108.015 86.2542C107.431 85.4976 106.586 85.5513 103.963 86.5111C97.9469 88.7128 92.186 91.7732 84.4417 96.8809C75.1958 102.979 64.6736 111.924 56.4651 120.665L53.2427 124.096L54.0489 124.813C54.4924 125.208 55.1478 125.761 55.5057 126.043L56.156 126.555L61.4053 121.204C72.0495 110.353 81.7 102.464 92.1661 96.0584C95.8399 93.8099 102.171 90.62 105.081 89.552C108.379 88.3411 108.436 88.3065 108.436 87.5006ZM46.1114 93.1925C42.5126 90.883 35.8981 87.4631 33.2766 86.5567C30.77 85.6899 29.7839 85.7626 29.2975 86.8501C28.873 87.7995 29.2699 88.3846 30.7124 88.9351C31.4137 89.2028 33.523 90.2183 35.3999 91.1919C40.2748 93.7206 45.0191 97.0098 50.4355 101.616L52.7262 103.564L54.3759 102.048L56.0258 100.533L55.1354 99.737C53.5776 98.344 49.263 95.215 46.1114 93.1925ZM35.4359 116.104C31.9681 114.643 28.5877 113.602 25.9804 113.192C20.1086 112.268 15.3461 112.844 10.9519 115.01C8.48817 116.225 6.60908 117.713 5.09783 119.646C1.7148 123.974 1.1495 128.951 3.48125 133.877C5.14338 137.389 7.85496 140.08 11.771 142.106C14.5216 143.528 16.6778 144.253 22.1169 145.585C26.9577 146.769 29.361 147.536 32.2767 148.825C35.5129 150.256 39.92 153.002 43.1042 155.57C44.8362 156.967 52.3018 163.432 55.9026 166.654C59.6767 170.03 64.5248 174.405 66.0362 175.798C68.7165 178.269 76.2156 184.242 79.2564 186.328C82.1368 188.305 85.5784 190.313 88.8081 191.902C93.1249 194.026 94.7551 194.686 98.4724 195.814C101.943 196.868 104.311 197.305 107.928 197.56C122.049 198.555 131.298 191.721 130.75 180.698C130.566 176.988 129.256 173.942 126.61 171.077C123.171 167.353 118.302 165.012 111.059 163.601C107.366 162.882 105.031 162.261 102.133 161.228C99.448 160.271 98.7786 159.956 95.4222 158.073C88.4844 154.182 79.4797 147.633 64.1262 135.313C48.9991 123.174 43.5291 119.512 35.4359 116.104ZM132.76 118.501C130.327 115.9 127.678 114.384 123.714 113.325C122.073 112.886 121.21 112.791 118.4 112.742C114.679 112.676 114.536 112.687 111.44 113.274C104.462 114.598 96.1368 118.3 88.6102 123.427C84.9565 125.916 78.9579 130.451 76.7055 132.426C76.1857 132.882 74.6027 134.271 73.1874 135.511C71.7722 136.752 70.6143 137.832 70.6143 137.911C70.6143 137.989 71.0491 138.364 71.5802 138.743C72.1113 139.122 72.7962 139.667 73.1018 139.953C73.6 140.42 73.6946 140.442 74.0169 140.169C74.2145 140.001 75.0167 139.3 75.7996 138.61C77.623 137.004 83.1466 132.585 86.6785 129.906C96.2399 122.656 104.157 118.564 112.096 116.77C113.49 116.455 115.019 116.305 117.587 116.233C120.888 116.139 121.285 116.169 123.078 116.641C126.385 117.511 128.438 118.709 130.533 120.992C134.453 125.261 134.322 131.55 130.222 135.917C127.504 138.811 123.477 140.701 116.246 142.476C108.837 144.295 105.702 145.419 99.7941 148.37C95.9168 150.307 91.1693 152.988 91.1587 153.248C91.1565 153.305 91.4056 153.504 91.7124 153.691C92.0193 153.878 92.9425 154.46 93.764 154.986C94.5853 155.511 95.3352 155.941 95.4304 155.941C95.5255 155.941 96.7293 155.186 98.1055 154.264C102.861 151.076 108.85 148.418 115.655 146.475C121.193 144.894 123.345 144.175 125.665 143.13C131.403 140.546 134.938 137.03 136.324 132.53C136.998 130.342 137.011 126.467 136.352 124.347C135.706 122.269 134.597 120.465 132.76 118.501ZM8.77652 120.512C11.0027 118.272 13.7436 116.933 17.2366 116.379C17.9077 116.272 19.7835 116.22 21.4052 116.261C23.8949 116.326 24.7492 116.441 26.8954 116.999C31.403 118.171 36.3511 120.386 41.3103 123.453C46.1749 126.461 50.6165 129.832 60.3455 137.899C81.2187 155.208 87.3566 159.645 95.5993 163.387C100.147 165.452 103.827 166.52 110.184 167.622C114.663 168.398 116.493 168.892 118.709 169.921C120.77 170.878 122.369 172.03 123.806 173.595C126.06 176.05 126.94 178.273 126.94 181.505C126.94 184.986 126.069 187.072 123.634 189.419C120.672 192.273 115.558 193.897 110.584 193.563C104.634 193.164 100.95 192.195 94.7105 189.388C86.0977 185.513 77.466 179.375 65.4291 168.569C64.1988 167.464 62.3966 165.872 61.424 165.032C60.4514 164.191 57.7978 161.861 55.527 159.853C47.2804 152.564 43.4348 149.756 37.9777 147.041C32.6208 144.376 29.7758 143.417 21.3409 141.435C15.6394 140.096 13.4849 139.271 11.2116 137.558C7.26587 134.586 5.08257 130.08 5.7227 126.23C6.09706 123.98 6.98811 122.311 8.77652 120.512ZM131.033 125.435C129.832 121.947 126.999 119.575 122.67 118.432C120.685 117.908 116.928 117.727 114.638 118.045C111.52 118.477 106.615 120.189 102.585 122.251C97.2088 125.003 89.8636 130.158 82.333 136.466C81.3128 137.321 79.4539 138.87 78.2019 139.908L75.9256 141.796L76.5743 142.41C77.4282 143.218 78.8699 144.339 79.0551 144.339C79.136 144.339 79.7473 143.825 80.4136 143.196C81.7283 141.956 88.4406 136.787 91.0227 135.026C95.5804 131.918 100.641 129.081 105.076 127.146C109.254 125.323 111.055 124.934 112.295 125.587C112.877 125.894 112.881 125.891 113.125 125.138C113.439 124.168 114.81 122.651 115.744 122.24C116.55 121.885 118.313 121.782 119.444 122.023C120.617 122.274 121.822 123.297 122.378 124.514C123.233 126.384 122.922 128.348 121.55 129.746C119.916 131.411 117.147 131.766 114.932 130.595L113.851 130.024L113.38 130.636C113.083 131.023 112.332 131.493 111.334 131.915C109.415 132.727 104.918 135 103.251 136C99.3777 138.323 95.127 141.595 87.6228 148.031L85.8541 149.549L87.7021 150.881L89.5499 152.214L90.1985 151.711C91.4953 150.706 95.8031 148.209 99.0005 146.607C104.42 143.893 109.639 142.077 116.262 140.603C124.104 138.857 128.51 136.204 130.598 131.968C131.212 130.723 131.3 130.336 131.367 128.594C131.428 127.01 131.363 126.393 131.033 125.435ZM40.3161 125.294C34.5432 121.601 29.1239 119.273 24.3709 118.445C19.1112 117.529 15.3032 118.194 11.5105 120.692C8.27832 122.82 6.87647 126.581 7.9605 130.217C9.2987 134.706 13.8363 138.153 20.1249 139.457C20.9969 139.638 21.9389 139.835 22.2185 139.895C22.4981 139.954 23.2302 140.1 23.8453 140.218C28.6788 141.144 34.1666 143.074 39.4011 145.689C45.8843 148.928 50.3747 152.367 64.4123 164.846C67.761 167.823 72.9859 172.404 75.425 174.501C80.2493 178.65 86.8541 183.175 92.4738 186.181C94.2618 187.138 99.6125 189.468 101.218 189.989C104.592 191.084 106.655 191.422 110.587 191.523C114.07 191.613 114.641 191.578 116.179 191.182C121.899 189.711 124.98 186.233 124.958 181.272C124.948 179.106 124.46 177.688 123.076 175.805C120.672 172.534 116.759 170.67 110.978 170.039C103.254 169.196 98.8124 168.04 93.2871 165.434C85.7299 161.871 76.6654 155.244 61.8955 142.487C61.2943 141.967 60.2359 141.076 59.5439 140.506C58.8517 139.937 57.1477 138.476 55.757 137.261C48.7463 131.136 45.4241 128.561 40.3161 125.294ZM17.224 123.307C17.6325 122.989 18.4431 122.609 19.0252 122.462C20.1774 122.171 21.7439 122.268 22.7598 122.694C23.6869 123.083 24.9775 124.479 25.2697 125.41C25.6341 126.571 25.7785 126.645 26.4922 126.033C27.3084 125.333 27.8792 125.195 29.3175 125.348C30.5026 125.474 33.8482 126.74 36.2503 127.97C40.334 130.062 46.9732 134.461 51.0821 137.796C54.2179 140.342 60.9659 146.011 63.2722 148.037C63.8755 148.567 64.8363 149.36 65.4073 149.799C65.9785 150.239 66.9948 151.082 67.6658 151.674C72.0635 155.552 79.6192 161.576 84.7467 165.291C92.1136 170.628 98.1405 174.016 102.641 175.35C104.452 175.887 105.092 176.283 105.691 177.238C105.915 177.594 106.152 177.889 106.218 177.894C106.284 177.898 106.447 177.533 106.579 177.082C107.309 174.601 110.289 173.225 113.326 173.968C114.165 174.173 114.633 174.462 115.463 175.289C116.349 176.172 116.564 176.535 116.757 177.474C117.093 179.109 116.736 180.552 115.697 181.754C114.466 183.179 113.534 183.595 111.588 183.591C110.182 183.587 109.816 183.505 108.893 182.99C107.818 182.389 107.137 181.642 106.616 180.491L106.334 179.87L106.204 180.604C106.049 181.48 104.996 183.1 104.214 183.667C101.994 185.278 97.7951 184.468 91.0046 181.118C82.5364 176.94 74.3113 170.456 57.9053 155.023C49.308 146.935 45.6673 143.672 41.3328 140.168C37.1513 136.789 32.4825 133.896 28.4681 132.197C26.5416 131.381 25.9497 130.875 25.6652 129.798C25.5503 129.364 25.3854 129.008 25.2986 129.008C25.2118 129.008 24.993 129.324 24.8122 129.71C24.3551 130.687 22.3625 131.701 20.9013 131.701C19.5129 131.701 17.9172 131.201 17.1156 130.513C16.2585 129.779 15.5123 128.114 15.5123 126.936C15.5123 125.687 16.2937 124.029 17.224 123.307ZM121.159 127.035C121.343 126.041 120.781 124.583 119.996 124.013C119.589 123.718 118.97 123.54 118.131 123.476C117.001 123.39 116.781 123.442 115.941 123.994C115.271 124.434 114.908 124.86 114.655 125.503C114.186 126.699 114.371 127.57 115.309 128.575C115.902 129.209 116.27 129.413 117.036 129.53C119.034 129.836 120.846 128.74 121.159 127.035ZM74.7554 126.555C74.7288 125.517 74.1944 124.521 73.4003 124.028C72.5473 123.497 70.9315 123.487 70.106 124.007C69.0583 124.666 68.721 125.209 68.6368 126.37C68.54 127.707 69.0026 128.564 70.1106 129.1C72.1166 130.07 74.8081 128.595 74.7554 126.555ZM20.846 129.959C24.061 129.468 24.9639 125.697 22.2218 124.212C20.7734 123.428 18.5893 123.864 17.7179 125.11C16.2364 127.23 18.2525 130.355 20.846 129.959ZM40.299 132.364C37.9724 130.874 33.8101 128.724 31.2423 127.686C28.5092 126.582 28.2542 126.556 27.5136 127.31C26.8568 127.98 26.6793 128.987 27.1496 129.374C27.2895 129.489 28.1251 129.887 29.0066 130.258C32.8331 131.872 37.9805 134.932 41.8412 137.889C46.5506 141.496 49.7429 144.234 58.4137 152.101C77.9308 169.811 88.0618 177.375 96.5406 180.569C100.918 182.218 102.523 182.426 103.564 181.475C104.37 180.74 104.692 179.423 104.301 178.469C103.92 177.541 103.683 177.389 101.828 176.883C99.6085 176.279 98.4248 175.792 95.2189 174.163C90.1628 171.595 84.2646 167.658 77.4263 162.287C73.48 159.187 62.6977 150.214 58.617 146.633C51.0882 140.026 45.6624 135.799 40.299 132.364ZM109.656 130.665C112.716 129.434 113.309 128.622 112.058 127.375C111.428 126.748 111.103 126.645 110.47 126.871C104.72 128.922 96.7476 133.18 90.9487 137.298C86.9703 140.123 80.3748 145.345 80.3748 145.67C80.3748 145.704 80.9009 146.082 81.544 146.511C82.1872 146.941 82.9123 147.476 83.1555 147.702L83.5978 148.111L86.8157 145.377C95.3999 138.082 102.344 133.609 109.656 130.665ZM43.1629 159.597C43.1629 159.552 42.4384 158.944 41.5529 158.246C40.6675 157.548 39.9125 156.983 39.8753 156.991C39.8383 156.998 39.396 157.326 38.8927 157.719C38.3894 158.113 36.4349 159.221 34.5491 160.182C31.3206 161.828 29.4078 162.553 23.3369 164.434C22.5541 164.676 20.7752 165.431 19.3839 166.112C13.4422 169.02 10.3219 172.156 8.7513 176.799C8.24701 178.289 8.12439 179.033 8.04244 181.1C7.92125 184.162 8.2586 185.999 9.37678 188.364C12.5424 195.061 20.6516 198.597 29.8338 197.284C35.1132 196.528 39.7736 194.942 45.1964 192.055C51.8457 188.516 57.4096 184.511 62.3789 179.689L64.0057 178.11L62.4875 176.678L60.9693 175.245L59.6407 176.441C48.6495 186.34 37.1277 192.524 27.9185 193.469C20.2528 194.255 13.3731 190.216 11.9578 184.098C10.8213 179.186 12.8916 174.602 17.7375 171.3C19.6985 169.963 21.4318 169.225 28.0138 166.924C33.0429 165.166 33.8431 164.834 37.4746 163.002C39.9003 161.779 43.1629 159.825 43.1629 159.597ZM48.9092 164.339C48.3771 163.882 47.484 163.084 46.9248 162.566L46.7961 162.447C45.835 161.557 45.5129 161.258 45.2428 161.301C45.1066 161.322 44.9837 161.431 44.7988 161.593C44.7828 161.608 44.7664 161.622 44.7494 161.637C43.9507 162.337 40.8379 164.267 38.9385 165.24C35.5361 166.983 32.0705 168.293 26.2256 170.046C19.7166 171.998 16.7643 173.875 14.8477 177.28C12.198 181.988 14.1519 187.469 19.4246 190.121C21.7683 191.3 23.1456 191.558 26.6921 191.484C29.2256 191.431 29.9783 191.331 32.0394 190.774C36.2027 189.651 41.1909 187.41 45.5705 184.696C49.9182 182.002 53.3163 179.466 57.5745 175.737L59.4804 174.069L57.9812 172.671C57.1566 171.902 56.3825 171.272 56.2609 171.272C56.1393 171.272 55.27 171.894 54.3291 172.653C49.4908 176.559 40.9853 181.075 38.181 181.227C35.9314 181.349 34.4995 180.721 33.5836 179.212L33.1385 178.478L32.6558 179.687C32.0341 181.244 31.1618 182.146 29.7526 182.688C27.0583 183.724 24.0187 182.352 23.1531 179.707C22.767 178.527 22.7635 178.438 23.0561 177.048C23.352 175.643 24.6757 174.139 26.0312 173.669C27.2938 173.231 29.0389 173.26 30.0473 173.738C31.2077 174.287 32.5872 175.567 32.598 176.105C32.6041 176.416 32.6905 176.316 32.8784 175.78L32.8965 175.728C33.0548 175.276 33.1711 174.944 33.3548 174.656C33.8638 173.859 34.8899 173.404 38.7591 171.691L38.9177 171.62C42.0573 170.23 44.1087 169.067 47.6892 166.649L49.8771 165.171L48.9092 164.339ZM54.0988 169.216C54.1301 169.13 53.4743 168.485 52.6416 167.783C51.8087 167.081 51.0968 166.514 51.0596 166.524C51.0222 166.533 49.8021 167.378 48.3482 168.402C45.4383 170.452 40.3438 173.124 37.3292 174.182C36.3015 174.542 35.3045 175.013 35.1136 175.228C34.9226 175.443 34.7244 176.065 34.6729 176.611C34.5896 177.495 34.6463 177.677 35.1908 178.271C36.1388 179.305 36.7163 179.257 40.0111 177.876C42.6605 176.765 46.2668 174.825 48.6644 173.222C50.721 171.847 54.0288 169.409 54.0988 169.216ZM30.6488 179.9C31.7332 178.451 31.4855 176.623 30.0542 175.51C27.8979 173.835 24.5909 175.346 24.5909 178.007C24.5909 179.743 25.7874 181.019 27.5539 181.169C28.9242 181.285 29.9167 180.877 30.6488 179.9ZM113.675 181.287C115.709 179.752 115.628 176.88 113.52 175.818C112.199 175.153 111.059 175.18 109.698 175.907C107.644 177.004 107.752 180.221 109.881 181.383C111 181.994 112.8 181.948 113.675 181.287Z" fill="var(--fill-0, #F3E8DD)"/>
</svg>
