<svg preserveAspectRatio="none" width="100%" height="100%" overflow="visible" style="display: block;" viewBox="0 0 139 63" fill="none" xmlns="http://www.w3.org/2000/svg">
<path id="Decorative icon/Cloud" fill-rule="evenodd" clip-rule="evenodd" d="M66.2912 0.0803484C61.8276 0.689423 58.2243 3.50162 56.5066 7.71678L56.117 8.67284L55.0313 8.29859C53.1277 7.64246 52.2545 7.50246 50.489 7.57038C44.6583 7.79467 39.8744 11.3929 38.4726 16.6085C37.8116 19.0677 38.0033 22.6573 38.9724 25.9677C39.1424 26.5486 39.24 27.0577 39.1894 27.0993C39.1386 27.1408 38.7469 27.2414 38.3188 27.323C37.8907 27.4044 36.9747 27.6563 36.2831 27.8826C30.8059 29.675 26.1391 34.1167 24.1523 39.428C23.4541 41.2946 23.186 42.7739 23.178 44.8045L23.1709 46.5652L23.5893 46.9117C24.3212 47.5178 24.359 47.4406 24.4431 45.1761C24.5083 43.4192 24.5673 42.9805 24.9055 41.7396C25.5245 39.4682 26.2795 37.8799 27.6349 35.9978C28.4755 34.8305 30.5785 32.7417 31.9124 31.7493C34.0485 30.16 37.0561 28.9203 39.867 28.4704C40.8536 28.3125 41.1839 28.1758 41.1909 27.9227C41.1919 27.8866 41.0072 27.4014 40.7804 26.8447C39.9189 24.7294 39.3194 21.5275 39.4383 19.6761C39.6827 15.8742 41.2125 13.0378 44.0604 11.1069C45.2373 10.309 46.2549 9.81049 47.2998 9.5203C50.4707 8.63964 52.8732 8.81864 55.8128 10.1545C56.3786 10.4116 56.9252 10.622 57.0274 10.622C57.2425 10.622 57.3585 10.3799 57.3585 9.93034C57.3585 9.07245 58.1024 7.1837 58.8959 6.02695C60.6833 3.42125 63.1165 1.89999 66.2346 1.43838C67.7555 1.21327 68.5537 1.21196 70.2324 1.4315C73.2161 1.82175 75.7341 2.937 77.6741 4.72724C78.9639 5.91753 80.0349 7.75425 80.5248 9.6162C80.8239 10.7532 81.0657 10.8661 81.7977 10.2114C82.4155 9.65888 84.5021 8.66608 85.6601 8.37375C87.961 7.79277 89.773 7.82608 91.9651 8.49004C95.1095 9.4423 98.3288 12.5115 100.107 16.2528C101.7 19.6035 102.054 22.939 101.168 26.2604L100.934 27.1402L101.179 27.383C101.401 27.6025 101.462 27.6108 101.814 27.4698C103.159 26.9306 107.294 27.3544 110.355 28.3452C114.895 29.8145 118.631 33.0117 120.824 37.303C121.77 39.1558 122.181 41.0162 122.195 43.5178L122.201 44.7032L122.673 44.6877C123.616 44.6566 123.749 44.0502 123.397 41.3914C122.994 38.3467 121.758 35.6726 119.521 33.004C116.022 28.8299 110.483 26.2712 104.261 25.9548C102.781 25.8796 102.728 25.8678 102.788 25.6287C103.142 24.2107 103.141 21.6475 102.785 19.8684C101.89 15.3853 98.7842 10.7923 95.0764 8.46669C91.4024 6.16233 86.3763 6.04106 82.3533 8.15978C81.9735 8.35988 81.6474 8.50225 81.6289 8.47629C81.6103 8.45021 81.3852 7.95446 81.1288 7.37455C80.2793 5.45332 79.3291 4.25354 77.688 3.02923C76.0189 1.78417 73.594 0.727831 71.299 0.246071C70.1773 0.0106444 67.4608 -0.0792108 66.2912 0.0803484ZM66.0401 5.34497C64.3448 5.65733 63.0909 6.23665 61.8168 7.29596C59.9784 8.82445 59.2312 10.3356 59.056 12.8793L58.975 14.0551L58.4376 13.6334C57.8127 13.1431 56.552 12.5261 55.4425 12.1676C52.9118 11.3498 49.6988 11.6519 47.0603 12.9557C46.1267 13.4171 45.7397 13.6994 44.9027 14.5297C43.8525 15.5716 43.3206 16.3947 42.8529 17.702C42.5054 18.6735 42.4206 20.697 42.6767 21.9104C43.1661 24.2291 43.9803 25.7585 44.6713 25.6571C45.2717 25.5692 45.2709 25.2253 44.6666 23.6025C43.7384 21.1103 43.7238 19.1052 44.6208 17.3471C46.0798 14.4876 49.698 12.7482 53.4157 13.1192C55.8365 13.3607 57.6555 14.3513 59.7371 16.5613C60.2221 17.0762 60.7169 17.4975 60.8367 17.4975C61.1707 17.4975 61.227 17.0908 60.9711 16.5261C60.6403 15.7961 60.5975 15.6242 60.4702 14.5197C60.3001 13.0434 60.4937 11.6101 61.0086 10.5312C61.9562 8.54635 64.1964 6.97399 66.6304 6.58529C67.7324 6.40925 69.9257 6.50101 70.8995 6.76382C72.7243 7.25624 74.7215 8.42235 75.6787 9.55397C77.0649 11.1929 77.8351 13.5226 77.8351 16.0761C77.8351 17.1615 77.956 17.4422 78.3881 17.3592C78.501 17.3375 78.9212 16.9306 79.3218 16.455C81.2483 14.1683 84.3021 12.8492 87.7141 12.83C89.4346 12.8204 90.6079 13.0856 92.2046 13.8452C93.3186 14.3752 93.5853 14.5668 94.5447 15.5259C95.4399 16.4208 95.7346 16.8155 96.2456 17.8026C97.18 19.6082 97.5088 20.8118 97.5223 22.4764C97.5314 23.6082 97.486 23.9795 97.2546 24.6635C96.8025 25.9995 96.455 26.5588 95.3856 27.671C93.8689 29.2486 91.9856 30.1474 88.4925 30.9611C86.4658 31.4331 86.0843 31.691 86.7618 32.1304C87.0934 32.3454 87.4258 32.3272 89.0879 32.003C92.212 31.3933 94.5351 30.3034 96.2917 28.6231C99.0204 26.013 99.7079 22.7477 98.3262 18.9599C96.3633 13.5786 91.3395 10.6698 85.6784 11.6367C84.4787 11.8416 82.6201 12.3954 81.8834 12.7674C81.2135 13.1058 79.745 14.038 79.4248 14.3282C79.1147 14.6092 79.1568 14.6908 78.8046 13.1272C77.9334 9.26033 75.1596 6.54238 71.0308 5.5101C69.8922 5.22536 69.4363 5.17083 68.2725 5.17972C67.5056 5.18565 66.5011 5.25998 66.0401 5.34497ZM67.1178 9.51497C65.3097 9.89786 63.8434 10.995 63.2809 12.386C62.8464 13.4598 62.8057 14.9265 63.1877 15.7451C63.5046 16.4245 64.4212 17.418 65.078 17.7943C66.358 18.5275 68.4084 18.7882 69.7625 18.3902C70.7542 18.0987 71.5207 17.1405 71.6734 16.0017C71.8292 14.839 71.2069 13.7038 70.1196 13.1674C69.0501 12.6398 67.9613 12.8171 67.1912 13.6442C66.7366 14.1323 66.6987 14.2241 66.6987 14.8368C66.6987 15.4124 66.7451 15.5466 67.0487 15.8471C67.5952 16.3881 68.5819 16.2731 68.0823 15.7266C67.9743 15.6084 67.8558 15.3277 67.8189 15.1029C67.7656 14.7778 67.8136 14.6229 68.0531 14.3473C68.3077 14.0543 68.4386 14.0023 68.8962 14.0117C69.8553 14.0316 70.4569 14.6416 70.4569 15.5945C70.4569 16.8528 69.6714 17.4435 68.0159 17.43C66.8566 17.4205 66.0108 17.1179 65.2182 16.4291C64.4979 15.8029 64.2555 15.2248 64.2497 14.1191C64.2454 13.294 64.2873 13.0989 64.5728 12.6176C65.0013 11.8951 65.7389 11.2804 66.5695 10.9541C67.1351 10.7318 67.4761 10.6908 68.7942 10.6864C70.3416 10.6813 70.3563 10.6839 71.249 11.1096C73.5573 12.2103 74.8627 14.3463 74.6787 16.7213C74.6122 17.5789 74.629 17.6886 74.8642 17.9364C75.2186 18.3099 75.4664 18.278 75.7413 17.8235C75.9328 17.507 75.9728 17.2268 75.9655 16.2528C75.9507 14.2797 75.3115 12.8293 73.8201 11.3843C72.0102 9.63078 69.6624 8.97595 67.1178 9.51497ZM85.439 15.9587C84.7378 16.0976 83.4065 16.615 82.6374 17.0476C82.2683 17.2551 81.4754 17.9092 80.8754 18.501C79.9775 19.3865 79.6968 19.7564 79.2888 20.5908C78.752 21.6885 78.6935 22.0053 78.9761 22.285C79.2945 22.6002 79.3621 22.5333 80.6111 20.6612C81.5189 19.3008 82.9413 18.1301 84.3897 17.5509C85.3026 17.1859 86.9953 16.9777 87.8127 17.1301C89.6817 17.4783 91.1553 18.534 91.9645 20.1044C92.3491 20.8507 92.595 22.003 92.5213 22.7146C92.3622 24.2529 91.8074 25.1792 90.5449 26.0139C89.6134 26.63 88.9852 26.804 87.7141 26.7984C86.8342 26.7945 86.5421 26.7446 86.1221 26.5265C84.4566 25.6616 83.6659 24.0785 84.1783 22.635C84.4671 21.8215 84.7522 21.5036 85.5427 21.1137C86.6195 20.5825 87.9205 20.8452 88.4964 21.7101C88.9075 22.3275 88.7144 23.2601 88.0717 23.7604C87.6576 24.0829 87.2768 24.0878 86.9904 23.7745C86.8414 23.6117 86.6522 23.5434 86.4151 23.5671C85.2421 23.6847 86.1065 25.2068 87.3427 25.2002C87.8568 25.1975 88.7456 24.8578 89.136 24.5147C89.762 23.9647 90.1249 22.4078 89.8151 21.6012C89.6262 21.1098 88.846 20.3437 88.2082 20.0237C86.3737 19.1035 84.0979 19.9283 83.1391 21.8611C82.8439 22.4562 82.8047 22.6683 82.8051 23.6618C82.8056 24.6634 82.8425 24.8573 83.1386 25.4146C84.0552 27.1396 85.9205 28.285 87.8132 28.285C90.2375 28.285 92.547 26.9183 93.5222 24.9065C93.8784 24.1715 93.9304 23.9384 93.976 22.8672C94.0351 21.4807 93.7853 20.4234 93.1285 19.28C92.2381 17.7298 90.5746 16.4884 88.766 16.0245C87.999 15.8277 86.273 15.7936 85.439 15.9587ZM52.0572 16.3166C48.5217 16.9053 46.6868 19.0677 47.161 22.0869C47.321 23.1057 47.8165 24.221 48.4121 24.9032C48.8197 25.3699 48.8222 25.3708 49.1381 25.166C49.5338 24.9093 49.534 24.7562 49.14 23.9865C48.0949 21.9447 48.1061 20.0517 49.17 18.9908C50.1488 18.0148 51.5662 17.4868 53.2272 17.4796C54.4107 17.4746 54.9311 17.6099 56.384 18.3008C57.4259 18.7963 58.4563 19.6995 59.3654 20.9142C59.7861 21.4763 60.0744 21.7595 60.1835 21.718C60.4156 21.6298 60.3939 21.8738 60.1318 22.2985C59.9786 22.5468 59.7166 22.7223 59.2641 22.8799C56.6342 23.7957 55.2216 25.0765 54.4135 27.2774C54.1018 28.1267 54.0654 28.3742 54.0654 29.6482C54.0654 30.8697 54.1002 31.1293 54.3114 31.4853C54.5805 31.9386 54.8762 32.0606 55.1538 31.8325C55.2855 31.7243 55.32 31.5101 55.2848 31.0188C55.1835 29.6067 55.6135 27.7357 56.27 26.731C56.9981 25.6169 58.2439 24.76 59.933 24.2114C60.9219 23.8901 61.2333 23.6444 61.3934 23.0591C61.6952 21.956 62.6597 20.9994 63.7649 20.7075C64.8196 20.4289 66.2978 20.6015 67.3151 21.122C67.8233 21.3821 68.8436 22.1295 69.1421 22.4606C69.2676 22.5996 69.444 22.7134 69.5343 22.7134C69.6244 22.7134 70.0154 22.3927 70.4029 22.0005C71.3467 21.0457 72.1973 20.6578 73.3391 20.6613C75.0052 20.6666 75.9791 21.4498 76.5674 23.2574C76.8345 24.0778 77.2044 24.3882 78.6601 25.0138C79.3445 25.3078 80.0347 25.6696 80.1939 25.8177C80.5975 26.1931 81.2844 27.6252 81.4276 28.39C81.4934 28.7413 81.5472 29.4445 81.5472 29.9526C81.5472 30.8375 81.562 30.8872 81.8949 31.122C82.3113 31.4155 82.5436 31.4306 82.796 31.1809C83.084 30.8958 83.0541 28.8264 82.7461 27.7261C82.1116 25.4596 81.2647 24.4768 79.2569 23.6773C78.447 23.3549 78.028 22.9486 77.776 22.2415C77.3242 20.9738 76.5171 20.0772 75.3348 19.5294C74.7363 19.2521 74.5159 19.2175 73.3446 19.217C72.1028 19.2164 71.9821 19.2384 71.2375 19.5991C70.8031 19.8095 70.2123 20.1885 69.9246 20.4411L69.4016 20.9006L68.6788 20.402C67.2509 19.4169 66.2125 19.1081 64.5783 19.1826C63.03 19.2533 62.29 19.5758 61.2366 20.6394C60.5069 21.3762 60.4716 21.3966 60.4665 21.0845C60.4553 20.4103 59.4322 18.9631 58.3213 18.0503C57.6615 17.508 56.1648 16.7814 55.0105 16.4431C54.1285 16.1846 53.1117 16.1411 52.0572 16.3166ZM53.5038 19.7971C52.7651 19.994 51.9154 20.6972 51.5473 21.4164C50.5451 23.3741 52.2127 25.709 54.5145 25.5711C54.6554 25.5626 54.724 25.4605 54.724 25.2592C54.724 25.0282 54.5966 24.8862 54.1661 24.6368C52.9344 23.9237 52.4489 23.2948 52.4489 22.4131C52.4489 21.8483 52.6024 21.5912 53.1915 21.1687C53.9917 20.5948 54.8801 20.7461 55.462 21.5552C55.6964 21.8809 55.7348 22.0643 55.7078 22.7252C55.6833 23.3187 55.7207 23.546 55.8619 23.662C56.1378 23.8887 56.5601 23.653 56.8092 23.1332C56.9846 22.7675 56.9962 22.6078 56.8847 22.0937C56.6391 20.9596 55.8857 20.1265 54.8238 19.8142C54.107 19.6035 54.2241 19.605 53.5038 19.7971ZM64.663 25.6374C62.9627 25.9021 60.6461 26.8487 59.7612 27.6401C58.2739 28.9703 57.4549 31.6633 58.3339 32.3326C58.489 32.4507 58.7371 32.5485 58.8852 32.5499C59.1353 32.5523 59.1546 32.5009 59.1546 31.8345C59.1546 30.394 59.7403 29.12 60.7376 28.3914C61.9049 27.5389 63.9367 26.8682 65.4413 26.839C66.9214 26.8102 68.6251 27.5747 69.7414 28.7682C70.5272 29.6084 71.1046 30.7467 71.2228 31.688C71.3059 32.3509 71.322 32.376 71.6871 32.4111C72.0934 32.4501 72.5675 32.0823 72.5648 31.73C72.5622 31.3887 72.2366 30.3659 71.9099 29.6731C71.732 29.2956 71.6157 28.911 71.6515 28.8185C71.7856 28.4725 72.9494 28.0132 73.8381 27.9556C75.8143 27.8272 76.988 28.7413 77.5338 30.8337L77.7811 31.782H78.3769C78.9487 31.782 78.9743 31.7679 79.0131 31.4296C79.0777 30.8673 78.6828 29.6399 78.2004 28.9039C77.6156 28.0115 76.9019 27.3912 75.9558 26.9529C75.2132 26.6088 75.1359 26.5975 73.8731 26.6491C72.6145 26.7004 72.5211 26.7229 71.5516 27.2096L70.5416 27.7166L69.8475 27.1829C68.2691 25.9692 66.3005 25.3823 64.663 25.6374ZM43.6122 26.6485C43.3861 26.8723 43.4424 27.2723 43.7373 27.5386C43.9706 27.7493 44.2158 27.7908 45.5635 27.8472C47.9459 27.9468 49.5678 28.3511 51.3109 29.2799C51.838 29.5607 52.3367 29.7674 52.4189 29.7392C52.6763 29.6507 52.5833 29.1705 52.2102 28.6605C51.3819 27.5287 48.7264 26.7506 45.0791 26.5707C44.13 26.524 43.7158 26.546 43.6122 26.6485ZM64.3636 29.6351C63.4216 30.0771 62.7966 30.7806 62.4638 31.7735C62.1086 32.8336 62.2998 33.3631 63.0573 33.4173C63.3737 33.44 63.4022 33.4049 63.4781 32.8987C63.7134 31.3308 65.0007 30.2803 66.2373 30.6471C66.9608 30.8616 67.8282 31.7831 68.0261 32.5471C68.1278 32.9404 68.2573 33.1675 68.4061 33.2142C68.6888 33.3032 69.2417 33.1718 69.36 32.9877C69.6621 32.5173 69.176 31.342 68.2924 30.4068C67.3111 29.3682 65.6344 29.0389 64.3636 29.6351ZM99.9881 30.1939C98.3287 30.3255 97.4735 30.6434 97.4735 31.1286C97.4735 31.5295 97.855 31.6236 98.9365 31.4894C100.33 31.3165 102.123 31.3388 103.521 31.5463C107.639 32.1581 110.614 33.2727 112.811 35.0274C114.08 36.04 114.732 36.7632 115.81 38.3491C117.638 41.0382 118.429 43.1738 118.429 45.418C118.429 46.2812 118.46 46.43 118.661 46.5365C119.012 46.7227 119.314 46.6847 119.604 46.4175C119.827 46.2116 119.866 46.0493 119.864 45.3209C119.855 41.6365 116.436 35.8244 112.924 33.5232C110.119 31.6855 106.354 30.4667 102.789 30.2425C102.137 30.2015 101.497 30.1536 101.365 30.1358C101.233 30.1181 100.614 30.1443 99.9881 30.1939ZM40.9532 31.4194C38.1395 31.8224 35.6092 32.7805 33.1254 34.3831C30.1494 36.3034 27.6595 39.413 26.5706 42.5694C26.3241 43.284 26.2844 43.6215 26.2849 44.9996C26.2856 46.9867 26.5034 47.8459 27.0973 48.2044C27.5404 48.4718 28.1195 48.5104 28.2096 48.2784C28.2435 48.1909 28.1385 47.7241 27.9761 47.2411C27.5414 45.9472 27.483 45.2083 27.7229 44.0394C27.9819 42.7773 28.3607 41.7777 28.9647 40.762C30.8325 37.6218 34.3405 34.9322 38.2589 33.6363C40.3592 32.9416 42.9482 32.5939 45.0894 32.7191C46.6937 32.8129 47.6953 33.0959 48.5054 33.6846C49.1142 34.127 49.1168 34.1277 49.525 33.935C49.8524 33.7804 49.9342 33.6728 49.9342 33.3966C49.9342 32.8002 48.686 31.904 47.3596 31.5481C46.3503 31.2774 42.4867 31.1996 40.9532 31.4194ZM77.1166 32.1521C75.492 32.3462 73.372 32.9204 72.2761 33.4632C71.2052 33.9937 69.7242 35.029 69.2095 35.607C68.3332 36.591 68.0868 37.3141 68.3733 38.0602C68.6059 38.6656 68.802 38.5683 70.205 37.1511C71.4689 35.8745 71.6298 35.7543 72.9255 35.1188C76.6401 33.2968 80.9231 33.3207 84.2871 35.1822C85.5325 35.8714 87.5163 37.8354 88.2232 39.0788C88.5031 39.5714 89.0511 40.8107 89.4409 41.8329C90.4248 44.4137 90.6426 44.8388 91.4009 45.6595C92.4961 46.8449 94.1731 47.5119 95.5527 47.3106C96.2017 47.2159 97.1687 46.7599 97.6183 46.3367C98.6276 45.3866 98.701 43.5593 97.7564 42.8982C97.2126 42.5175 96.7246 42.4593 96.3854 42.7347C96.1507 42.9253 96.1209 43.0099 96.2271 43.1843C96.2991 43.3025 96.5043 43.4704 96.6832 43.5573C97.0764 43.7481 97.2902 44.1685 97.1919 44.5567C96.988 45.3611 96.0509 45.9427 94.9588 45.9427C93.1716 45.9427 92.0567 44.6176 90.8241 41.0284C89.7111 37.7875 88.1291 35.5914 85.8394 34.1091C84.8609 33.4758 82.8141 32.6248 81.6669 32.3746C80.799 32.1853 77.9891 32.0479 77.1166 32.1521ZM54.2451 33.4371C52.4868 33.7237 50.2455 34.6216 48.7054 35.6561C46.4117 37.1968 44.7158 39.658 44.2623 42.1044C44.0199 43.4111 44.0167 44.1553 44.2468 45.5603C44.9593 49.9089 48.1471 53.0824 52.7467 54.0223C54.0685 54.2924 56.5861 54.3204 57.8568 54.0792C59.8476 53.7011 61.6721 52.7209 62.96 51.3373C64.4543 49.7318 65.1915 47.9106 65.1897 45.8294C65.1885 44.3865 65.0045 43.6458 64.328 42.3613C63.5199 40.8265 62.3896 39.7831 60.5317 38.8569C58.1194 37.6543 55.836 37.5666 53.7062 38.5946C50.488 40.1478 49.0641 44.0048 50.5285 47.202C51.7761 49.926 55.8802 51.4992 58.4596 50.242C59.8475 49.5657 60.7885 48.369 61.0642 46.9297C61.3715 45.3256 60.5763 43.7852 59.0168 42.964C58.5841 42.7361 58.3138 42.6895 57.4183 42.6888C56.4175 42.6881 56.3029 42.7134 55.8121 43.0436C54.166 44.1513 54.6104 46.7428 56.5344 47.2557C57.1737 47.426 57.7228 47.3611 57.8852 47.0958C57.9942 46.9177 57.9577 46.8328 57.6747 46.6068C57.4865 46.4565 57.1287 46.273 56.8797 46.1991C56.1714 45.9891 55.8099 45.2561 56.0889 44.5956C56.2872 44.1259 56.5279 43.9327 57.064 43.8131C58.2667 43.5446 59.7535 44.7962 59.7533 46.0769C59.7531 46.7081 59.2184 47.8806 58.7207 48.3408C58.1125 48.9031 57.2878 49.1857 56.2209 49.1973C55.363 49.2068 55.1775 49.1661 54.4449 48.808C52.7565 47.9827 51.7609 46.5977 51.6442 44.9111C51.4988 42.8109 52.6846 40.9047 54.7049 39.9912C55.3634 39.6935 55.7007 39.621 56.64 39.5759C58.4755 39.4876 60.0383 40.0325 61.596 41.304C64.4776 43.6559 64.3944 47.8169 61.4095 50.6456C60.5589 51.4515 59.6278 51.9681 58.3721 52.3308C55.9154 53.0402 52.532 52.5938 50.2336 51.2569C49.0646 50.5769 47.5858 49.077 47.0214 47.9987C46.1649 46.3629 45.8034 44.1234 46.1417 42.5508C46.5284 40.7537 47.5817 39.0785 49.1167 37.8193C51.0817 36.2073 52.9893 35.4164 55.534 35.1582C57.1003 34.9994 58.4162 35.1581 60.0931 35.7084C62.2902 36.4294 63.7165 37.3111 65.2236 38.8804C67.2543 40.9946 68.2554 43.3308 68.2554 45.956C68.2554 48.5863 67.0591 51.3797 65.0821 53.3656C63.5775 54.8771 61.9085 55.7301 59.3941 56.2727C58.3022 56.5083 57.8219 56.5424 55.7419 56.5316C53.4782 56.5198 53.2683 56.4991 51.91 56.1534C51.1197 55.9523 50.4026 55.7875 50.3165 55.7874C50.2304 55.7871 49.7994 56.0375 49.3586 56.3437C47.7855 57.4363 47.2237 57.7784 46.0283 58.3723C43.027 59.8631 41.1185 60.4627 37.1213 61.1703C34.4529 61.6427 29.0719 61.6387 26.2244 61.1621C24.8488 60.9319 22.3808 60.3804 21.3148 60.0651C19.3497 59.4838 16.1696 58.1837 14.3813 57.2305C11.6538 55.7768 11.2091 55.5628 10.7567 55.4872C10.1459 55.385 10.0187 55.4851 10.2344 55.8981C10.7102 56.8091 11.6037 57.4936 13.7311 58.577C19.7147 61.6247 26.2198 63.1583 32.4375 62.9871C39.5015 62.7928 45.1703 61.1308 49.8713 57.8759L50.5354 57.416L51.2227 57.6006C52.5423 57.955 54.0135 58.069 56.5293 58.0116C59.2696 57.9491 60.3794 57.76 62.2859 57.0312C65.2222 55.9086 67.1227 54.1555 68.5925 51.2137C69.2248 49.9479 69.5359 48.9634 69.7505 47.5483C69.9764 46.0603 69.9759 45.5711 69.748 44.1797C69.1889 40.7671 67.4726 38.0726 64.5208 35.9736C63.2022 35.036 61.4835 34.2284 59.7104 33.7132C58.6924 33.4175 58.2346 33.3533 56.8795 33.3158C55.8465 33.2873 54.8954 33.331 54.2451 33.4371ZM95.0785 33.8495C93.0607 34.0649 90.0477 34.9829 89.3958 35.581C89.0076 35.9371 89.0069 36.2698 89.3939 36.4444C89.6479 36.5589 89.8644 36.523 90.7411 36.2204C92.6814 35.5506 93.919 35.2918 95.8261 35.1572C100.912 34.798 105.77 36.0452 109.526 38.674C110.998 39.705 112.8 41.753 113.579 43.2807C114.018 44.1435 114.47 45.8858 114.475 46.7354C114.478 47.2539 114.6 47.3704 115.142 47.3704C115.981 47.3704 115.849 45.3818 114.862 43.1609C113.536 40.1772 110.301 37.1371 107.046 35.8162C103.273 34.2849 101.494 33.8886 98.0123 33.8035C96.8927 33.7761 95.5725 33.7968 95.0785 33.8495ZM40.4429 36.3527C36.9895 36.9546 34.0752 38.6027 32.0454 41.1018C30.9867 42.4051 30.4975 43.2876 30.1236 44.5683C29.6556 46.1707 29.738 47.9057 30.3108 48.5155C30.7034 48.9333 31.1303 49.0846 31.3378 48.8791C31.4743 48.7439 31.4691 48.5881 31.3045 47.8963C30.6204 45.0213 32.3134 41.8718 35.7895 39.5525C37.9888 38.0852 40.7461 37.3804 44.1265 37.4215C45.0485 37.4327 45.8973 37.403 46.0125 37.3554C46.5243 37.1441 46.0842 36.4508 45.3018 36.2358C44.574 36.0357 41.8908 36.1002 40.4429 36.3527ZM76.8172 37.163C75.4835 37.4924 74.6481 37.9645 73.6463 38.9554C72.153 40.4325 71.4331 42.1094 71.4332 44.1105C71.4333 45.9869 72.0069 47.3217 73.321 48.5034C74.1505 49.2492 74.6007 49.5084 75.5517 49.7875C77.7972 50.4465 80.3695 49.3511 81.6125 47.2065C82.0743 46.4094 82.1675 45.0535 81.8145 44.2635C80.7469 41.8747 77.619 41.394 76.1665 43.3957C75.7594 43.9569 75.7395 44.03 75.7395 44.9634C75.7395 45.8595 75.7659 45.9687 76.0505 46.2504C76.2451 46.4431 76.5474 46.5831 76.8577 46.6242C77.6509 46.7296 77.9633 46.2704 77.3016 45.9719C77.142 45.8999 76.9598 45.6626 76.8797 45.4224C76.4401 44.1037 78.0513 43.0245 79.4551 43.6973C80.8364 44.3592 80.9475 45.9627 79.6977 47.1984C78.8553 48.0314 78.1162 48.3638 76.9868 48.4175C76.1616 48.4567 76.011 48.4268 75.3368 48.0899C73.865 47.3544 73.1817 46.2567 73.0743 44.4553C72.9556 42.4632 73.9324 40.5578 75.6241 39.4813C77.4029 38.3494 80.0439 38.2995 82.205 39.3568C83.81 40.1421 84.9421 41.3963 85.5142 43.0231C86.1113 44.7215 85.9452 46.894 85.096 48.492C84.2335 50.1151 82.5791 51.3978 80.4073 52.1271C76.8642 53.3169 73.5951 52.926 70.9216 50.9924C70.511 50.6955 70.1259 50.4526 70.0658 50.4526C69.8774 50.4526 69.2133 51.2798 69.2133 51.5144C69.2133 52.0675 71.7945 53.5816 73.4831 54.0192C75.52 54.5468 78.545 54.4391 80.8886 53.7554C83.5418 52.9813 86.1252 50.864 86.8984 48.8302C87.9056 46.1805 87.8091 43.6923 86.6098 41.3949C85.7951 39.8339 83.9376 38.2822 81.9663 37.5158C80.5025 36.9467 78.3036 36.796 76.8172 37.163ZM96.5155 37.889C94.9952 38.1506 93.6834 39.0246 93.0679 40.1858C92.7853 40.7191 92.7468 40.9268 92.7453 41.9272C92.7436 42.9918 92.7655 43.0946 93.0948 43.5654C93.4996 44.144 94.0746 44.4998 94.2787 44.2977C94.3731 44.2043 94.364 44.0122 94.246 43.606C93.7431 41.8739 94.1949 40.5825 95.5616 39.8458C96.1402 39.5339 96.3343 39.4926 97.234 39.4902C98.1073 39.4877 98.3477 39.534 98.9274 39.8157C100.222 40.4451 101.242 41.9768 101.386 43.5095C101.444 44.124 101.4 44.4204 101.134 45.2118C100.656 46.633 99.797 47.5771 98.3117 48.3137C96.9362 48.9959 96.4109 49.0898 94.0008 49.0841C91.8663 49.079 91.7527 49.0666 90.8874 48.7432C90.3935 48.5586 89.6187 48.2235 89.1658 47.9985C88.226 47.5317 87.774 47.5372 87.774 48.0156C87.774 48.6756 89.591 49.7785 91.4427 50.2423C92.3575 50.4714 92.8097 50.5076 94.7193 50.5037C96.7946 50.4994 96.9952 50.4791 97.8926 50.1825C99.9366 49.5069 101.542 48.2235 102.299 46.6592C102.832 45.5576 102.976 44.9516 102.976 43.8141C102.976 42.1566 102.475 40.8987 101.319 39.6493C100.507 38.7723 99.6092 38.2483 98.4238 37.9598C97.5791 37.7541 97.349 37.7457 96.5155 37.889ZM130.809 41.9585C130.096 42.295 129.805 42.6486 129.805 43.1799C129.805 43.6739 130.268 44.0512 130.875 44.0512C131.376 44.0512 132.249 43.5581 132.657 43.0437C133.476 42.0141 132.235 41.2857 130.809 41.9585ZM137.526 43.683C136.689 43.8915 136.217 44.4634 136.348 45.1114C136.446 45.5974 136.769 45.8472 137.388 45.9164C137.866 45.9696 137.962 45.9344 138.396 45.5465C138.983 45.0215 139.179 44.2688 138.82 43.9141C138.561 43.6574 138.018 43.5605 137.526 43.683ZM126.213 45.1796C122.563 47.1136 120.282 48.048 117.671 48.6792C112.949 49.8207 107.566 49.5061 104.598 47.9149C104.203 47.7031 103.691 47.465 103.461 47.3861C103.085 47.2572 103.021 47.2674 102.843 47.4839C102.341 48.0952 103.207 48.8167 105.619 49.795C106.917 50.3216 108.969 50.6648 111.384 50.7595C112.865 50.8176 113.614 50.7828 115.256 50.5802C116.375 50.442 117.588 50.2718 117.95 50.202C120.239 49.7604 124.985 47.778 126.528 46.6188C127.359 45.9946 127.737 45.3837 127.53 45.001C127.352 44.6706 127.112 44.7032 126.213 45.1796ZM14.1845 45.6462C13.8095 46.0174 13.8093 46.472 14.1837 46.958C14.4855 47.3496 15.3856 47.8446 15.796 47.8446C16.183 47.8446 16.7645 47.2747 16.7645 46.8954C16.7645 46.3798 16.6585 46.2062 16.0735 45.7641C15.3806 45.2402 14.6411 45.1941 14.1845 45.6462ZM131.81 46.2356C131.271 46.4264 130.576 46.9325 130.395 47.2674C130.235 47.5639 130.444 48.1496 130.771 48.3233C131.267 48.5859 132.189 48.2869 132.888 47.637C133.375 47.1847 133.432 46.5427 133.011 46.251C132.691 46.0288 132.406 46.0251 131.81 46.2356ZM41.7 47.255C40.6436 48.3865 39.1237 49.3189 37.4806 49.8435C32.9326 51.2954 26.0792 50.678 21.0498 48.3634C19.8337 47.8036 19.3467 47.7405 19.1116 48.1124C18.854 48.5196 19.258 48.9273 20.5249 49.5394C22.5131 50.5001 25.5169 51.3747 28.2035 51.7754C29.5207 51.9719 34.1862 51.9654 35.3251 51.7655C36.5934 51.5429 38.7406 50.9009 39.5171 50.5121C41.381 49.5788 42.9889 48.0082 42.9889 47.121C42.9889 46.824 42.7239 46.5406 42.4462 46.5406C42.4025 46.5406 42.0666 46.8621 41.7 47.255ZM6.90912 47.2087C6.77273 47.3436 6.81368 47.9426 6.98732 48.3541C7.07629 48.5649 7.34488 48.9075 7.58401 49.1155C8.60437 50.0023 10.1214 49.863 9.50965 48.9386C9.12131 48.352 8.06288 47.408 7.71561 47.3387C7.52246 47.3 7.28069 47.2365 7.17855 47.1972C7.07628 47.158 6.9551 47.1632 6.90912 47.2087ZM135.493 48.1451C134.61 48.5887 134.317 49.5075 134.91 49.9697C135.084 50.1049 135.382 50.2155 135.572 50.2155C135.965 50.2155 137.235 49.6167 137.592 49.2637C137.905 48.9542 137.89 48.7652 137.518 48.3279C137.239 47.9994 137.14 47.9633 136.53 47.9639C136.157 47.9643 135.69 48.0459 135.493 48.1451ZM126.811 49.3958C118.974 53.3656 110.618 53.9185 104.179 50.8933C103.619 50.6303 102.928 50.258 102.643 50.0661C101.259 49.1341 100.164 49.5503 101.275 50.5859C102.39 51.6247 103.901 52.4488 105.924 53.1213C108.367 53.9335 110.415 54.2327 113.579 54.2395C118.337 54.2499 122.717 53.1984 127.171 50.9769C129.449 49.8404 130.111 49.2662 129.757 48.7348C129.648 48.5721 129.45 48.4901 129.133 48.4761C128.764 48.4599 128.283 48.6501 126.811 49.3958ZM0.718478 48.6336C0.3681 48.7721 0 49.1936 0 49.4566C0 49.807 0.522452 50.4099 1.1886 50.8281C2.17842 51.4495 3.3529 51.2014 3.3529 50.371C3.3529 49.4438 1.59753 48.2862 0.718478 48.6336ZM14.434 50.092C14.2308 50.3142 14.2314 50.3401 14.4462 50.7044C15.0686 51.7594 19.0545 53.6601 22.3661 54.4813C26.1195 55.4119 27.8184 55.6048 32.2716 55.6062C36.1495 55.6075 37.0531 55.5212 39.8156 54.8863C43.4809 54.0439 46.8647 51.94 45.6173 51.2792C45.4126 51.1707 45.1142 51.2687 43.8216 51.8687C40.6671 53.333 37.7675 54.0381 33.9211 54.2763C30.5631 54.4842 26.6119 54.0902 23.0286 53.1902C20.5844 52.5763 18.3444 51.6699 16.9316 50.723C15.5518 49.7981 14.8619 49.6238 14.434 50.092ZM86.5235 50.4848C86.2531 50.8934 86.4152 51.2216 87.1154 51.6817C88.1377 52.3536 89.332 52.8056 91.1269 53.1998C92.8655 53.5816 96.3761 53.6408 98.0669 53.3167L99.3189 53.0766L100.177 53.8838C102.452 56.023 105.177 57.2445 109.029 57.8516C110.321 58.0552 113.931 58.2558 115.196 58.1943C118.407 58.0381 120.389 57.7493 123.25 57.02C127.784 55.8644 132.22 53.5808 133.047 51.9768C133.297 51.4923 133.354 50.9267 133.153 50.9267C132.947 50.9267 132.132 51.3709 131.212 51.9851C124.371 56.5497 112.951 58.1717 105.713 55.6068C103.705 54.8953 101.98 53.7877 100.591 52.3187C99.7199 51.3974 99.7723 51.4085 98.1919 51.8086C97.7638 51.9168 96.6919 52.0567 95.8099 52.1194C93.7654 52.2645 92.2081 52.0947 90.1091 51.498C89.2495 51.2537 88.9748 51.1466 87.6917 50.5563C86.7992 50.1457 86.7501 50.1427 86.5235 50.4848ZM5.55826 52.0025C5.18693 52.1093 4.9096 52.509 4.9096 52.9375C4.9096 53.4527 6.54964 54.483 7.36954 54.483C7.75537 54.483 8.26249 54.0407 8.26249 53.7042C8.26249 53.3027 7.52965 52.5411 6.79428 52.1782C6.1273 51.8491 6.10371 51.8458 5.55826 52.0025ZM10.4446 52.1782C10.0065 52.4819 10.0928 52.9695 10.6714 53.4598C11.4538 54.1228 12.5929 54.413 13.3276 54.1365C14.1928 53.8109 13.5204 52.7937 12.0334 52.1787C11.4621 51.9423 10.7849 51.9422 10.4446 52.1782ZM46.5214 54.091C43.4324 55.9269 41.4165 56.6716 37.6003 57.386C34.8817 57.8951 28.8221 57.928 25.9849 57.4492C22.6853 56.8924 20.7375 56.3591 17.4231 55.105C15.5271 54.3876 14.4893 54.2091 14.4893 54.6004C14.4893 54.8076 15.8409 55.6061 17.1496 56.1723C22.3842 58.4364 27.7119 59.3765 33.7684 59.1044C36.4414 58.9844 37.53 58.8646 39.2169 58.5054C43.0327 57.6927 46.382 56.2551 48.0894 54.6972C48.7765 54.0701 48.9032 53.8427 48.7367 53.5347C48.5037 53.1038 47.9474 53.2434 46.5214 54.091Z" fill="var(--fill-0, #F3E8DD)"/>
</svg>
