<svg preserveAspectRatio="none" width="100%" height="100%" overflow="visible" style="display: block;" viewBox="0 0 19.5 19.5" fill="none" xmlns="http://www.w3.org/2000/svg">
<path id="Vector" fill-rule="evenodd" clip-rule="evenodd" d="M9.578 1.08254e-07C8.662 1.08254e-07 7.879 0.663 7.728 1.567L7.637 2.116C7.61178 2.25381 7.55072 2.38255 7.45997 2.48927C7.36921 2.596 7.25196 2.67696 7.12 2.724C6.95842 2.78445 6.79899 2.85049 6.642 2.922C6.51539 2.98219 6.37516 3.00797 6.23542 2.99673C6.09568 2.9855 5.96137 2.93765 5.846 2.858L5.393 2.534C5.03179 2.27594 4.59074 2.1544 4.14833 2.19103C3.70592 2.22765 3.29086 2.42005 2.977 2.734L2.734 2.977C2.42005 3.29086 2.22765 3.70592 2.19103 4.14833C2.1544 4.59074 2.27594 5.03179 2.534 5.393L2.858 5.846C2.93765 5.96137 2.9855 6.09568 2.99673 6.23542C3.00797 6.37516 2.98219 6.51539 2.922 6.642C2.85048 6.79899 2.78444 6.95842 2.724 7.12C2.67696 7.25196 2.596 7.36921 2.48927 7.45997C2.38255 7.55072 2.25381 7.61178 2.116 7.637L1.566 7.729C1.12842 7.80211 0.730936 8.02802 0.444209 8.36656C0.157481 8.70511 8.59233e-05 9.13435 0 9.578V9.922C0 10.838 0.663 11.621 1.567 11.772L2.116 11.863C2.397 11.91 2.624 12.113 2.724 12.38C2.784 12.542 2.851 12.701 2.922 12.858C2.98219 12.9846 3.00797 13.1248 2.99673 13.2646C2.9855 13.4043 2.93765 13.5386 2.858 13.654L2.534 14.107C2.27594 14.4682 2.1544 14.9093 2.19103 15.3517C2.22765 15.7941 2.42005 16.2091 2.734 16.523L2.977 16.766C3.625 17.414 4.647 17.499 5.393 16.966L5.846 16.642C5.96137 16.5624 6.09568 16.5145 6.23542 16.5033C6.37516 16.492 6.51539 16.5178 6.642 16.578C6.799 16.649 6.958 16.715 7.12 16.776C7.387 16.876 7.59 17.103 7.637 17.384L7.729 17.934C7.879 18.837 8.661 19.5 9.578 19.5H9.922C10.838 19.5 11.621 18.837 11.772 17.933L11.863 17.384C11.8882 17.2462 11.9493 17.1175 12.04 17.0107C12.1308 16.904 12.248 16.823 12.38 16.776C12.5416 16.7155 12.701 16.6495 12.858 16.578C12.9846 16.5178 13.1248 16.492 13.2646 16.5033C13.4043 16.5145 13.5386 16.5624 13.654 16.642L14.107 16.966C14.4682 17.2241 14.9093 17.3456 15.3517 17.309C15.7941 17.2724 16.2091 17.0799 16.523 16.766L16.766 16.523C17.414 15.875 17.499 14.853 16.966 14.107L16.642 13.654C16.5624 13.5386 16.5145 13.4043 16.5033 13.2646C16.492 13.1248 16.5178 12.9846 16.578 12.858C16.649 12.701 16.715 12.542 16.776 12.38C16.876 12.113 17.103 11.91 17.384 11.863L17.934 11.772C18.3718 11.6989 18.7694 11.4728 19.0561 11.1341C19.3429 10.7953 19.5002 10.3658 19.5 9.922V9.578C19.5 8.662 18.837 7.879 17.933 7.728L17.384 7.637C17.2462 7.61178 17.1175 7.55072 17.0107 7.45997C16.904 7.36921 16.823 7.25196 16.776 7.12C16.7155 6.95844 16.6495 6.79901 16.578 6.642C16.5178 6.51539 16.492 6.37516 16.5033 6.23542C16.5145 6.09568 16.5624 5.96137 16.642 5.846L16.966 5.393C17.2241 5.03179 17.3456 4.59074 17.309 4.14833C17.2724 3.70592 17.0799 3.29086 16.766 2.977L16.523 2.734C16.2091 2.42005 15.7941 2.22765 15.3517 2.19103C14.9093 2.1544 14.4682 2.27594 14.107 2.534L13.654 2.858C13.5386 2.93765 13.4043 2.9855 13.2646 2.99673C13.1248 3.00797 12.9846 2.98219 12.858 2.922C12.701 2.85049 12.5416 2.78445 12.38 2.724C12.248 2.67696 12.1308 2.596 12.04 2.48927C11.9493 2.38255 11.8882 2.25381 11.863 2.116L11.772 1.566C11.6989 1.12825 11.4728 0.730633 11.1341 0.443885C10.7953 0.157138 10.3658 -0.000150636 9.922 1.08254e-07H9.578ZM9.75 13.5C10.7446 13.5 11.6984 13.1049 12.4017 12.4017C13.1049 11.6984 13.5 10.7446 13.5 9.75C13.5 8.75544 13.1049 7.80161 12.4017 7.09835C11.6984 6.39509 10.7446 6 9.75 6C8.75544 6 7.80161 6.39509 7.09835 7.09835C6.39509 7.80161 6 8.75544 6 9.75C6 10.7446 6.39509 11.6984 7.09835 12.4017C7.80161 13.1049 8.75544 13.5 9.75 13.5Z" fill="var(--fill-0, #B38F6F)"/>
</svg>
