<svg preserveAspectRatio="none" width="100%" height="100%" overflow="visible" style="display: block;" viewBox="0 0 19.5 19.5" fill="none" xmlns="http://www.w3.org/2000/svg">
<path id="Vector" fill-rule="evenodd" clip-rule="evenodd" d="M15.752 0.75C15.752 0.551088 15.673 0.360322 15.5323 0.21967C15.3917 0.0790175 15.2009 0 15.002 0C14.8031 0 14.6123 0.0790175 14.4717 0.21967C14.331 0.360322 14.252 0.551088 14.252 0.75V2.25H5.252V0.751C5.252 0.552088 5.17298 0.361322 5.03233 0.22067C4.89168 0.0800177 4.70091 0.000999928 4.502 0.000999928C4.30309 0.000999928 4.11232 0.0800177 3.97167 0.22067C3.83102 0.361322 3.752 0.552088 3.752 0.751V2.248H3C2.20435 2.248 1.44129 2.56407 0.87868 3.12668C0.316071 3.68929 0 4.45235 0 5.248V16.5C0 17.2956 0.316071 18.0587 0.87868 18.6213C1.44129 19.1839 2.20435 19.5 3 19.5H16.5C17.2956 19.5 18.0587 19.1839 18.6213 18.6213C19.1839 18.0587 19.5 17.2956 19.5 16.5V5.249C19.5 4.45335 19.1839 3.69029 18.6213 3.12768C18.0587 2.56507 17.2956 2.249 16.5 2.249H15.752V0.75ZM1.5 16.5V9C1.5 8.60218 1.65804 8.22064 1.93934 7.93934C2.22064 7.65804 2.60218 7.5 3 7.5H16.5C16.8978 7.5 17.2794 7.65804 17.5607 7.93934C17.842 8.22064 18 8.60218 18 9V16.5C18 16.8978 17.842 17.2794 17.5607 17.5607C17.2794 17.842 16.8978 18 16.5 18H3C2.60218 18 2.22064 17.842 1.93934 17.5607C1.65804 17.2794 1.5 16.8978 1.5 16.5Z" fill="var(--fill-0, #B38F6F)"/>
</svg>
