<svg preserveAspectRatio="none" width="100%" height="100%" overflow="visible" style="display: block;" viewBox="0 0 19.5 19.5" fill="none" xmlns="http://www.w3.org/2000/svg">
<path id="Vector" d="M9.75 0C9.94891 0 10.1397 0.0790175 10.2803 0.21967C10.421 0.360322 10.5 0.551088 10.5 0.75V3C10.5 3.19891 10.421 3.38968 10.2803 3.53033C10.1397 3.67098 9.94891 3.75 9.75 3.75C9.55109 3.75 9.36032 3.67098 9.21967 3.53033C9.07902 3.38968 9 3.19891 9 3V0.75C9 0.551088 9.07902 0.360322 9.21967 0.21967C9.36032 0.0790175 9.55109 0 9.75 0ZM5.25 9.75C5.25 8.55653 5.72411 7.41193 6.56802 6.56802C7.41193 5.72411 8.55653 5.25 9.75 5.25C10.9435 5.25 12.0881 5.72411 12.932 6.56802C13.7759 7.41193 14.25 8.55653 14.25 9.75C14.25 10.9435 13.7759 12.0881 12.932 12.932C12.0881 13.7759 10.9435 14.25 9.75 14.25C8.55653 14.25 7.41193 13.7759 6.56802 12.932C5.72411 12.0881 5.25 10.9435 5.25 9.75ZM16.644 3.916C16.7765 3.77382 16.8486 3.58578 16.8452 3.39148C16.8417 3.19718 16.763 3.01179 16.6256 2.87438C16.4882 2.73697 16.3028 2.65825 16.1085 2.65483C15.9142 2.6514 15.7262 2.72352 15.584 2.856L13.993 4.446C13.9213 4.51515 13.8642 4.59788 13.8248 4.68937C13.7855 4.78085 13.7647 4.87926 13.7638 4.97884C13.7629 5.07842 13.7818 5.17719 13.8195 5.26938C13.8572 5.36157 13.9128 5.44534 13.9832 5.51579C14.0536 5.58624 14.1373 5.64197 14.2295 5.67972C14.3216 5.71748 14.4204 5.7365 14.5199 5.73568C14.6195 5.73486 14.718 5.71422 14.8095 5.67496C14.901 5.6357 14.9838 5.5786 15.053 5.507L16.644 3.916ZM19.5 9.75C19.5 9.94891 19.421 10.1397 19.2803 10.2803C19.1397 10.421 18.9489 10.5 18.75 10.5H16.5C16.3011 10.5 16.1103 10.421 15.9697 10.2803C15.829 10.1397 15.75 9.94891 15.75 9.75C15.75 9.55109 15.829 9.36032 15.9697 9.21967C16.1103 9.07902 16.3011 9 16.5 9H18.75C18.9489 9 19.1397 9.07902 19.2803 9.21967C19.421 9.36032 19.5 9.55109 19.5 9.75ZM15.584 16.644C15.7262 16.7765 15.9142 16.8486 16.1085 16.8452C16.3028 16.8417 16.4882 16.763 16.6256 16.6256C16.763 16.4882 16.8417 16.3028 16.8452 16.1085C16.8486 15.9142 16.7765 15.7262 16.644 15.584L15.054 13.993C14.9848 13.9213 14.9021 13.8642 14.8106 13.8248C14.7191 13.7855 14.6207 13.7647 14.5212 13.7638C14.4216 13.7629 14.3228 13.7818 14.2306 13.8195C14.1384 13.8572 14.0547 13.9128 13.9842 13.9832C13.9138 14.0536 13.858 14.1373 13.8203 14.2295C13.7825 14.3216 13.7635 14.4204 13.7643 14.5199C13.7651 14.6195 13.7858 14.718 13.825 14.8095C13.8643 14.901 13.9214 14.9838 13.993 15.053L15.584 16.644ZM9.75 15.75C9.94891 15.75 10.1397 15.829 10.2803 15.9697C10.421 16.1103 10.5 16.3011 10.5 16.5V18.75C10.5 18.9489 10.421 19.1397 10.2803 19.2803C10.1397 19.421 9.94891 19.5 9.75 19.5C9.55109 19.5 9.36032 19.421 9.21967 19.2803C9.07902 19.1397 9 18.9489 9 18.75V16.5C9 16.3011 9.07902 16.1103 9.21967 15.9697C9.36032 15.829 9.55109 15.75 9.75 15.75ZM5.508 15.053C5.64455 14.9115 5.72006 14.722 5.71826 14.5253C5.71646 14.3287 5.63749 14.1406 5.49837 14.0016C5.35925 13.8626 5.1711 13.7839 4.97445 13.7822C4.7778 13.7806 4.58839 13.8563 4.447 13.993L2.856 15.583C2.71931 15.7244 2.64363 15.9138 2.64524 16.1105C2.64686 16.3071 2.72565 16.4952 2.86464 16.6344C3.00363 16.7735 3.1917 16.8525 3.38835 16.8543C3.585 16.8561 3.77448 16.7806 3.916 16.644L5.507 15.054L5.508 15.053ZM3.75 9.75C3.75 9.94891 3.67098 10.1397 3.53033 10.2803C3.38968 10.421 3.19891 10.5 3 10.5H0.75C0.551088 10.5 0.360322 10.421 0.21967 10.2803C0.0790175 10.1397 0 9.94891 0 9.75C0 9.55109 0.0790175 9.36032 0.21967 9.21967C0.360322 9.07902 0.551088 9 0.75 9H3C3.19891 9 3.38968 9.07902 3.53033 9.21967C3.67098 9.36032 3.75 9.55109 3.75 9.75ZM4.447 5.507C4.58917 5.63948 4.77722 5.7116 4.97152 5.70818C5.16582 5.70475 5.35121 5.62603 5.48862 5.48862C5.62603 5.35121 5.70475 5.16582 5.70818 4.97152C5.7116 4.77722 5.63948 4.58917 5.507 4.447L3.917 2.856C3.77561 2.71931 3.5862 2.64363 3.38955 2.64524C3.1929 2.64686 3.00475 2.72565 2.86563 2.86464C2.72651 3.00363 2.64754 3.1917 2.64574 3.38835C2.64394 3.585 2.71945 3.77448 2.856 3.916L4.447 5.507Z" fill="var(--fill-0, #B38F6F)"/>
</svg>
