<svg preserveAspectRatio="none" width="100%" height="100%" overflow="visible" style="display: block;" viewBox="0 0 19.2 19.2" fill="none" xmlns="http://www.w3.org/2000/svg">
<path id="Vector" fill-rule="evenodd" clip-rule="evenodd" d="M9.6 19.2C12.1461 19.2 14.5879 18.1886 16.3882 16.3882C18.1886 14.5879 19.2 12.1461 19.2 9.6C19.2 7.05392 18.1886 4.61212 16.3882 2.81178C14.5879 1.01143 12.1461 0 9.6 0C7.05392 0 4.61212 1.01143 2.81178 2.81178C1.01143 4.61212 0 7.05392 0 9.6C0 12.1461 1.01143 14.5879 2.81178 16.3882C4.61212 18.1886 7.05392 19.2 9.6 19.2ZM10.8 4.8C10.8 4.48174 10.6736 4.17652 10.4485 3.95147C10.2235 3.72643 9.91826 3.6 9.6 3.6C9.28174 3.6 8.97652 3.72643 8.75147 3.95147C8.52643 4.17652 8.4 4.48174 8.4 4.8V9.6C8.40007 9.91823 8.52654 10.2234 8.7516 10.4484L12.1452 13.8432C12.2567 13.9547 12.3891 14.0431 12.5347 14.1035C12.6804 14.1638 12.8365 14.1949 12.9942 14.1949C13.1519 14.1949 13.308 14.1638 13.4537 14.1035C13.5993 14.0431 13.7317 13.9547 13.8432 13.8432C13.9547 13.7317 14.0431 13.5993 14.1035 13.4537C14.1638 13.308 14.1949 13.1519 14.1949 12.9942C14.1949 12.8365 14.1638 12.6804 14.1035 12.5347C14.0431 12.3891 13.9547 12.2567 13.8432 12.1452L10.8 9.1032V4.8Z" fill="var(--fill-0, #F3E8DD)"/>
</svg>
