<svg preserveAspectRatio="none" width="100%" height="100%" overflow="visible" style="display: block;" viewBox="0 0 10.507 6.007" fill="none" xmlns="http://www.w3.org/2000/svg">
<path id="Vector" d="M5.252 0C5.05309 0 4.86232 0.079018 4.72167 0.21967C4.58102 0.360323 4.502 0.551088 4.502 0.75V0.756C4.502 1.17 4.838 1.506 5.252 1.506H5.258C5.45691 1.506 5.64768 1.42698 5.78833 1.28633C5.92898 1.14568 6.008 0.954912 6.008 0.756V0.75C6.008 0.551088 5.92898 0.360323 5.78833 0.21967C5.64768 0.079018 5.45691 0 5.258 0H5.252ZM5.252 4.501C5.05309 4.501 4.86232 4.58002 4.72167 4.72067C4.58102 4.86132 4.502 5.05209 4.502 5.251V5.256C4.502 5.67 4.837 6.006 5.252 6.006H5.257C5.45591 6.006 5.64668 5.92698 5.78733 5.78633C5.92798 5.64568 6.007 5.45491 6.007 5.256V5.251C6.007 5.05209 5.92798 4.86132 5.78733 4.72067C5.64668 4.58002 5.45591 4.501 5.257 4.501H5.252ZM2.251 5.251C2.251 5.05209 2.33002 4.86132 2.47067 4.72067C2.61132 4.58002 2.80209 4.501 3.001 4.501H3.007C3.20591 4.501 3.39668 4.58002 3.53733 4.72067C3.67798 4.86132 3.757 5.05209 3.757 5.251V5.257C3.757 5.45591 3.67798 5.64668 3.53733 5.78733C3.39668 5.92798 3.20591 6.007 3.007 6.007H3.001C2.80209 6.007 2.61132 5.92798 2.47067 5.78733C2.33002 5.64668 2.251 5.45591 2.251 5.257V5.251ZM0.751 4.501C0.552088 4.501 0.361322 4.58002 0.22067 4.72067C0.0800175 4.86132 0.000999928 5.05209 0.000999928 5.251V5.256C0.000999928 5.67 0.337 6.006 0.751 6.006H0.756C0.954912 6.006 1.14568 5.92698 1.28633 5.78633C1.42698 5.64568 1.506 5.45491 1.506 5.256V5.251C1.506 5.05209 1.42698 4.86132 1.28633 4.72067C1.14568 4.58002 0.954912 4.501 0.756 4.501H0.751ZM6.751 3.004C6.751 2.80509 6.83002 2.61432 6.97067 2.47367C7.11132 2.33302 7.30209 2.254 7.501 2.254H7.507C7.70591 2.254 7.89668 2.33302 8.03733 2.47367C8.17798 2.61432 8.257 2.80509 8.257 3.004V3.009C8.257 3.20791 8.17798 3.39868 8.03733 3.53933C7.89668 3.67998 7.70591 3.759 7.507 3.759H7.501C7.30209 3.759 7.11132 3.67998 6.97067 3.53933C6.83002 3.39868 6.751 3.20791 6.751 3.009V3.004ZM7.502 4.501C7.30309 4.501 7.11232 4.58002 6.97167 4.72067C6.83102 4.86132 6.752 5.05209 6.752 5.251V5.257C6.752 5.671 7.087 6.007 7.502 6.007H7.507C7.70591 6.007 7.89668 5.92798 8.03733 5.78733C8.17798 5.64668 8.257 5.45591 8.257 5.257V5.251C8.257 5.05209 8.17798 4.86132 8.03733 4.72067C7.89668 4.58002 7.70591 4.501 7.507 4.501H7.502ZM9.002 3.002C9.002 2.80309 9.08102 2.61232 9.22167 2.47167C9.36232 2.33102 9.55309 2.252 9.752 2.252H9.757C9.95591 2.252 10.1467 2.33102 10.2873 2.47167C10.428 2.61232 10.507 2.80309 10.507 3.002V3.008C10.507 3.20691 10.428 3.39768 10.2873 3.53833C10.1467 3.67898 9.95591 3.758 9.757 3.758H9.752C9.55309 3.758 9.36232 3.67898 9.22167 3.53833C9.08102 3.39768 9.002 3.20691 9.002 3.008V3.002ZM6.75 0.75C6.75 0.551088 6.82902 0.360323 6.96967 0.21967C7.11032 0.079018 7.30109 0 7.5 0H9.75C9.94891 0 10.1397 0.079018 10.2803 0.21967C10.421 0.360323 10.5 0.551088 10.5 0.75C10.5 0.948912 10.421 1.13968 10.2803 1.28033C10.1397 1.42098 9.94891 1.5 9.75 1.5H7.5C7.30109 1.5 7.11032 1.42098 6.96967 1.28033C6.82902 1.13968 6.75 0.948912 6.75 0.75ZM0 3C0 2.80109 0.0790175 2.61032 0.21967 2.46967C0.360322 2.32902 0.551088 2.25 0.75 2.25H5.25C5.44891 2.25 5.63968 2.32902 5.78033 2.46967C5.92098 2.61032 6 2.80109 6 3C6 3.19891 5.92098 3.38968 5.78033 3.53033C5.63968 3.67098 5.44891 3.75 5.25 3.75H0.75C0.551088 3.75 0.360322 3.67098 0.21967 3.53033C0.0790175 3.38968 0 3.19891 0 3Z" fill="var(--fill-0, #B38F6F)"/>
</svg>
