<svg preserveAspectRatio="none" width="100%" height="100%" overflow="visible" style="display: block;" viewBox="0 0 18 19.7635" fill="none" xmlns="http://www.w3.org/2000/svg">
<path id="Vector" fill-rule="evenodd" clip-rule="evenodd" d="M9.96133 0.30146C9.90106 0.2207 9.82514 0.152912 9.7381 0.102144C9.65106 0.051376 9.55468 0.0186685 9.45472 0.00597476C9.35475 -0.00671903 9.25326 0.000861161 9.15629 0.0282628C9.05932 0.0556645 8.96886 0.102326 8.89033 0.16546C6.97387 1.70403 5.70975 3.91009 5.35133 6.34146C4.6945 5.86516 4.11878 5.28606 3.64633 4.62646C3.58216 4.53676 3.499 4.46232 3.40277 4.40844C3.30654 4.35456 3.19961 4.32256 3.0896 4.31473C2.97959 4.3069 2.86921 4.32343 2.76631 4.36314C2.66342 4.40284 2.57056 4.46476 2.49433 4.54446C1.17365 5.92602 0.327073 7.69214 0.0772355 9.587C-0.172602 11.4819 0.18727 13.407 1.10472 15.0837C2.02218 16.7604 3.44957 18.1014 5.18013 18.9126C6.9107 19.7238 8.85458 19.963 10.7302 19.5956C12.6058 19.2282 14.3157 18.2732 15.6123 16.869C16.9089 15.4648 17.7248 13.6843 17.9418 11.7854C18.1588 9.8865 17.7657 7.96782 16.8194 6.30729C15.8731 4.64675 14.4227 3.33059 12.6783 2.54946C11.606 2.02803 10.6743 1.25716 9.96133 0.30146ZM12.7483 12.2655C12.748 12.8079 12.6299 13.3438 12.4023 13.8362C12.1748 14.3286 11.8431 14.7657 11.4302 15.1175C11.0173 15.4692 10.5329 15.7272 10.0106 15.8736C9.48836 16.0201 8.94051 16.0515 8.40492 15.9656C7.86932 15.8798 7.35872 15.6788 6.90834 15.3765C6.45797 15.0742 6.07854 14.6777 5.79623 14.2146C5.51392 13.7514 5.33546 13.2325 5.27315 12.6936C5.21084 12.1548 5.26618 11.6088 5.43533 11.0935C6.06333 11.5585 6.78533 11.9035 7.56833 12.0935C7.78062 10.7244 8.4609 9.47128 9.49333 8.54746C10.3943 8.66744 11.2211 9.1106 11.8198 9.7945C12.4186 10.4784 12.7485 11.3565 12.7483 12.2655Z" fill="var(--fill-0, #B38F6F)"/>
</svg>
