<svg preserveAspectRatio="none" width="100%" height="100%" overflow="visible" style="display: block;" viewBox="0 0 108 35" fill="none" xmlns="http://www.w3.org/2000/svg">
<g id="Group 365">
<g id="Download on the">
<path d="M0 0.466484H3.043C5.67252 0.466484 6.95174 2.03439 6.95174 4.87865C6.95174 7.72291 5.65959 9.31025 3.043 9.31025H0V0.466484ZM1.46658 1.70396V8.07277H2.88148C4.62588 8.07277 5.44639 7.0167 5.44639 4.89809C5.44639 2.76651 4.61942 1.70396 2.88148 1.70396H1.46658Z" fill="var(--fill-0, #F3E8DD)"/>
<path d="M11.5905 2.34538C13.3737 2.34538 14.6206 3.50511 14.6206 5.42936V6.31698C14.6206 8.30601 13.3737 9.42687 11.5905 9.42687C9.78154 9.42687 8.54754 8.31897 8.54754 6.32345V5.43584C8.54754 3.56342 9.80092 2.34538 11.5905 2.34538ZM11.597 3.50511C10.5762 3.50511 9.99474 4.36033 9.99474 5.50711V6.27162C9.99474 7.4184 10.5374 8.26714 11.597 8.26714C12.6436 8.26714 13.1799 7.42488 13.1799 6.27162V5.50711C13.1799 4.36033 12.6178 3.50511 11.597 3.50511Z" fill="var(--fill-0, #F3E8DD)"/>
<path d="M25.1516 2.462L23.3555 9.31025H21.8954L20.4676 4.25667H20.4288L19.0268 9.31025H17.5603L15.6866 2.462H17.2308L18.3291 7.68403H18.3937L19.7698 2.462H21.1201L22.535 7.68403H22.5996L23.7173 2.462H25.1516Z" fill="var(--fill-0, #F3E8DD)"/>
<path d="M26.573 9.31025V2.462H27.9814V3.693H28.0525C28.2269 3.15525 28.7244 2.35834 30.107 2.35834C31.4831 2.35834 32.407 3.12285 32.407 4.68428V9.31025H30.9727V5.10541C30.9727 4.0623 30.43 3.58286 29.6224 3.58286C28.5629 3.58286 28.0072 4.39921 28.0072 5.50711V9.31025H26.573Z" fill="var(--fill-0, #F3E8DD)"/>
<path d="M34.5778 9.31025V0H36.0121V9.31025H34.5778Z" fill="var(--fill-0, #F3E8DD)"/>
<path d="M40.9352 2.34538C42.7183 2.34538 43.9652 3.50511 43.9652 5.42936V6.31698C43.9652 8.30601 42.7183 9.42687 40.9352 9.42687C39.1261 9.42687 37.8922 8.31897 37.8922 6.32345V5.43584C37.8922 3.56342 39.1455 2.34538 40.9352 2.34538ZM40.9416 3.50511C39.9208 3.50511 39.3394 4.36033 39.3394 5.50711V6.27162C39.3394 7.4184 39.8821 8.26714 40.9416 8.26714C41.9883 8.26714 42.5245 7.42488 42.5245 6.27162V5.50711C42.5245 4.36033 41.9624 3.50511 40.9416 3.50511Z" fill="var(--fill-0, #F3E8DD)"/>
<path d="M47.6801 9.41391C46.3557 9.41391 45.4447 8.59757 45.4447 7.32121C45.4447 6.10965 46.2846 5.2933 47.861 5.2933H49.5861V4.65189C49.5861 3.86793 49.0886 3.49863 48.3004 3.49863C47.5251 3.49863 47.1762 3.82258 47.0664 4.27611H45.7032C45.7872 3.12933 46.6464 2.35834 48.3456 2.35834C49.8057 2.35834 51.0139 2.96736 51.0139 4.67132V9.31025H49.6507V8.42263H49.5861C49.2824 8.94743 48.688 9.41391 47.6801 9.41391ZM48.1259 8.29953C48.94 8.29953 49.5861 7.74234 49.5861 6.99727V6.25866H48.0872C47.2537 6.25866 46.8855 6.6798 46.8855 7.24994C46.8855 7.96263 47.4799 8.29953 48.1259 8.29953Z" fill="var(--fill-0, #F3E8DD)"/>
<path d="M55.433 2.3713C56.3957 2.3713 57.1322 2.79891 57.3971 3.49215H57.4681V0H58.9024V9.31025H57.5069V8.21531H57.4358C57.2291 8.90856 56.4086 9.40096 55.4136 9.40096C53.8437 9.40096 52.8229 8.2801 52.8229 6.47247V5.29978C52.8229 3.49215 53.8631 2.3713 55.433 2.3713ZM55.8336 3.55046C54.8774 3.55046 54.283 4.26315 54.283 5.50711V6.25866C54.283 7.5091 54.8839 8.22179 55.8659 8.22179C56.835 8.22179 57.4681 7.51558 57.4681 6.34937V5.31274C57.4681 4.25667 56.7769 3.55046 55.8336 3.55046Z" fill="var(--fill-0, #F3E8DD)"/>
<path d="M66.7781 2.34538C68.5612 2.34538 69.8081 3.50511 69.8081 5.42936V6.31698C69.8081 8.30601 68.5612 9.42687 66.7781 9.42687C64.969 9.42687 63.7351 8.31897 63.7351 6.32345V5.43584C63.7351 3.56342 64.9884 2.34538 66.7781 2.34538ZM66.7845 3.50511C65.7637 3.50511 65.1823 4.36033 65.1823 5.50711V6.27162C65.1823 7.4184 65.725 8.26714 66.7845 8.26714C67.8312 8.26714 68.3674 7.42488 68.3674 6.27162V5.50711C68.3674 4.36033 67.8053 3.50511 66.7845 3.50511Z" fill="var(--fill-0, #F3E8DD)"/>
<path d="M71.6559 9.31025V2.462H73.0643V3.693H73.1354C73.3098 3.15525 73.8073 2.35834 75.1899 2.35834C76.5661 2.35834 77.4899 3.12285 77.4899 4.68428V9.31025H76.0557V5.10541C76.0557 4.0623 75.513 3.58286 74.7054 3.58286C73.6458 3.58286 73.0902 4.39921 73.0902 5.50711V9.31025H71.6559Z" fill="var(--fill-0, #F3E8DD)"/>
<path d="M83.0397 2.50735V0.796911H84.4417V2.50735H85.9729V3.63469H84.4417V7.26938C84.4417 8.01446 84.7195 8.22179 85.4883 8.22179C85.6821 8.22179 85.9406 8.20883 86.0504 8.19587V9.29729C85.9341 9.31673 85.456 9.3556 85.133 9.3556C83.4726 9.3556 83.0203 8.75954 83.0203 7.386V3.63469H81.9801V2.50735H83.0397Z" fill="var(--fill-0, #F3E8DD)"/>
<path d="M87.7819 9.31025V0H89.2097V3.693H89.2808C89.4294 3.20708 89.985 2.35834 91.3546 2.35834C92.6856 2.35834 93.6353 3.12933 93.6353 4.69076V9.31025H92.2075V5.11189C92.2075 4.06878 91.6325 3.58286 90.8184 3.58286C89.7912 3.58286 89.2097 4.39273 89.2097 5.50711V9.31025H87.7819Z" fill="var(--fill-0, #F3E8DD)"/>
<path d="M98.4485 9.42687C96.5878 9.42687 95.4314 8.2801 95.4314 6.34937V5.42288C95.4314 3.4792 96.6977 2.34538 98.3645 2.34538C100.077 2.34538 101.285 3.53751 101.285 5.42288V6.22627H96.8527V6.56318C96.8527 7.54798 97.4342 8.27362 98.4421 8.27362C99.1915 8.27362 99.7084 7.91728 99.8053 7.48967H101.207C101.123 8.2801 100.29 9.42687 98.4485 9.42687ZM96.8527 5.28682H99.8828V5.19612C99.8828 4.16596 99.282 3.4792 98.371 3.4792C97.46 3.4792 96.8527 4.16596 96.8527 5.19612V5.28682Z" fill="var(--fill-0, #F3E8DD)"/>
</g>
<g id="App Store">
<path d="M2.98485 30.4518H0L6.07308 12.7642H9.35513L15.4153 30.4518H12.3141L10.7506 25.5537H4.56127L2.98485 30.4518ZM7.72703 15.8223H7.61073L5.22027 23.299H10.0917L7.72703 15.8223Z" fill="var(--fill-0, #F3E8DD)"/>
<path d="M23.653 30.6461C21.8828 30.6461 20.539 29.8039 19.8154 28.547H19.712V35H16.8434V16.7553H19.6345V18.7638H19.7378C20.4873 17.455 21.8828 16.5739 23.7176 16.5739C26.78 16.5739 28.9637 18.8933 28.9637 22.988V24.2061C28.9637 28.2749 26.8059 30.6461 23.653 30.6461ZM22.994 28.2749C24.816 28.2749 26.0564 26.8106 26.0564 24.0506V23.0917C26.0564 20.4353 24.8935 18.9192 22.9423 18.9192C20.9395 18.9192 19.6861 20.5519 19.6861 23.0787V24.0506C19.6861 26.6422 20.9524 28.2749 22.994 28.2749Z" fill="var(--fill-0, #F3E8DD)"/>
<path d="M38.2352 30.6461C36.465 30.6461 35.1211 29.8039 34.3975 28.547H34.2942V35H31.4256V16.7553H34.2166V18.7638H34.32C35.0694 17.455 36.465 16.5739 38.2998 16.5739C41.3622 16.5739 43.5459 18.8933 43.5459 22.988V24.2061C43.5459 28.2749 41.388 30.6461 38.2352 30.6461ZM37.5762 28.2749C39.3981 28.2749 40.6386 26.8106 40.6386 24.0506V23.0917C40.6386 20.4353 39.4757 18.9192 37.5245 18.9192C35.5217 18.9192 34.2683 20.5519 34.2683 23.0787V24.0506C34.2683 26.6422 35.5346 28.2749 37.5762 28.2749Z" fill="var(--fill-0, #F3E8DD)"/>
<path d="M49.4904 25.5407H52.359C52.4882 27.0698 53.832 28.3785 56.3259 28.3785C58.613 28.3785 59.9697 27.303 59.9697 25.6314C59.9697 24.2838 59.0652 23.5582 57.1787 23.1046L54.2843 22.379C52.0101 21.8477 49.9685 20.4872 49.9685 17.6105C49.9685 14.2285 52.9146 12.3755 56.3388 12.3755C59.763 12.3755 62.6186 14.2285 62.6832 17.5328H59.8663C59.7371 16.0296 58.5871 14.7857 56.3 14.7857C54.2843 14.7857 52.9146 15.7446 52.9146 17.3902C52.9146 18.5435 53.7157 19.3728 55.3568 19.7486L58.2382 20.4612C60.8871 21.1091 62.9029 22.366 62.9029 25.3723C62.9029 28.845 60.0989 30.8016 56.1062 30.8016C51.196 30.8016 49.555 27.925 49.4904 25.5407Z" fill="var(--fill-0, #F3E8DD)"/>
<path d="M66.3985 16.7553V13.4251H69.2153V16.7553H71.8771V19.0618H69.2153V26.37C69.2153 27.8602 69.7709 28.2749 71.3086 28.2749C71.5541 28.2749 71.7867 28.2749 71.9547 28.2489V30.4518C71.7221 30.4907 71.1794 30.5425 70.5979 30.5425C67.2771 30.5425 66.3597 29.3504 66.3597 26.6033V19.0618H64.4732V16.7553H66.3985Z" fill="var(--fill-0, #F3E8DD)"/>
<path d="M79.6239 16.522C83.552 16.522 85.684 19.295 85.684 23.0269V24.1283C85.684 27.9898 83.5649 30.685 79.6239 30.685C75.6828 30.685 73.5379 27.9898 73.5379 24.1283V23.0269C73.5379 19.308 75.6957 16.522 79.6239 16.522ZM79.6239 18.8285C77.4918 18.8285 76.4323 20.5779 76.4323 23.0658V24.1154C76.4323 26.5644 77.4789 28.3656 79.6239 28.3656C81.7688 28.3656 82.8025 26.5774 82.8025 24.1154V23.0658C82.8025 20.5649 81.7559 18.8285 79.6239 18.8285Z" fill="var(--fill-0, #F3E8DD)"/>
<path d="M88.1071 30.4518V16.7553H90.9757V18.5564H91.079C91.4279 17.7012 92.4487 16.5609 94.3482 16.5609C94.7229 16.5609 95.0459 16.5868 95.3173 16.6387V19.1784C95.0718 19.1136 94.5678 19.0747 94.0897 19.0747C91.7897 19.0747 91.0144 20.5001 91.0144 22.3401V30.4518H88.1071Z" fill="var(--fill-0, #F3E8DD)"/>
<path d="M102.276 30.685C98.619 30.685 96.2932 28.2619 96.2932 24.2061V22.8196C96.2932 18.997 98.5673 16.522 102.16 16.522C105.803 16.522 108 19.0877 108 22.9492V24.2579H99.123V24.5818C99.123 26.8884 100.363 28.4174 102.315 28.4174C103.775 28.4174 104.77 27.6917 105.119 26.5126H107.845C107.431 28.7284 105.648 30.685 102.276 30.685ZM99.123 22.2494H105.196V22.2235C105.196 20.2798 103.994 18.7508 102.172 18.7508C100.325 18.7508 99.123 20.2798 99.123 22.2235V22.2494Z" fill="var(--fill-0, #F3E8DD)"/>
</g>
</g>
</svg>
