<svg preserveAspectRatio="none" width="100%" height="100%" overflow="visible" style="display: block;" viewBox="0 0 28 35" fill="none" xmlns="http://www.w3.org/2000/svg">
<g id="Apple">
<path id="&#60;Path&#62;" d="M23.3863 18.6129C23.4033 17.2714 23.7537 15.956 24.4049 14.7892C25.0561 13.6224 25.9869 12.6421 27.1107 11.9394C26.3968 10.9025 25.4549 10.0491 24.3599 9.44709C23.265 8.84508 22.047 8.51102 20.8029 8.47143C18.149 8.18812 15.5761 10.0865 14.2237 10.0865C12.8451 10.0865 10.7629 8.49956 8.52062 8.54647C7.07029 8.59412 5.65683 9.02303 4.41796 9.7914C3.17908 10.5598 2.15705 11.6414 1.45143 12.9309C-1.60507 18.3127 0.674807 26.2222 3.60273 30.5725C5.06765 32.7027 6.7797 35.0822 9.01991 34.9978C11.2121 34.9053 12.0308 33.5762 14.6769 33.5762C17.2985 33.5762 18.0667 34.9978 20.3523 34.9442C22.7046 34.9053 24.1867 32.8045 25.6002 30.6541C26.6528 29.1363 27.4627 27.4587 28 25.6836C26.6334 25.0958 25.4671 24.1118 24.6467 22.8545C23.8262 21.5971 23.3879 20.1219 23.3863 18.6129Z" fill="var(--fill-0, #F3E8DD)"/>
<path id="&#60;Path&#62;_2" d="M19.0691 5.6104C20.3517 4.04458 20.9836 2.03198 20.8306 0C18.8711 0.209299 17.0611 1.1617 15.7612 2.66745C15.1256 3.40304 14.6389 4.25881 14.3287 5.18584C14.0185 6.11287 13.8911 7.09298 13.9536 8.07013C14.9337 8.08039 15.9033 7.86435 16.7894 7.43828C17.6755 7.01222 18.455 6.38723 19.0691 5.6104Z" fill="var(--fill-0, #F3E8DD)"/>
</g>
</svg>
