<svg preserveAspectRatio="none" width="100%" height="100%" overflow="visible" style="display: block;" viewBox="0 0 110.361 38" fill="none" xmlns="http://www.w3.org/2000/svg">
<g id="Group 364">
<g id="GET IT ON">
<path d="M10.7976 6.0102C10.7976 7.50157 10.3552 8.68969 9.47029 9.57456C8.47604 10.6285 7.16861 11.1554 5.548 11.1554C3.99698 11.1554 2.68458 10.6185 1.61079 9.54474C0.537011 8.47095 0.000119835 7.14861 0.000119835 5.57771C0.000119835 4.0068 0.537011 2.68446 1.61079 1.61067C2.68458 0.536892 3.99698 0 5.548 0C6.33345 0 7.07416 0.139194 7.77013 0.417582C8.4661 0.69597 9.03779 1.0887 9.4852 1.59576L8.5009 2.58006C8.1728 2.18236 7.74527 1.87415 7.21833 1.65542C6.70132 1.42674 6.14454 1.3124 5.548 1.3124C4.38473 1.3124 3.40043 1.71507 2.59509 2.52041C1.7997 3.33569 1.402 4.35479 1.402 5.57771C1.402 6.80062 1.7997 7.81972 2.59509 8.635C3.40043 9.44034 4.38473 9.84301 5.548 9.84301C6.61184 9.84301 7.49671 9.54474 8.20263 8.94819C8.90854 8.35164 9.31618 7.53139 9.42555 6.48744H5.548V5.20486H10.723C10.7727 5.48325 10.7976 5.7517 10.7976 6.0102Z" fill="var(--fill-0, #F3E8DD)"/>
<path d="M18.6986 0.238619V1.55102H13.8367V4.93642H18.2213V6.21899H13.8367V9.60439H18.6986V10.9168H12.4647V0.238619H18.6986Z" fill="var(--fill-0, #F3E8DD)"/>
<path d="M24.1867 1.55102V10.9168H22.8146V1.55102H19.8319V0.238619H27.1694V1.55102H24.1867Z" fill="var(--fill-0, #F3E8DD)"/>
<path d="M33.2507 10.9168H31.8786V0.238619H33.2507V10.9168Z" fill="var(--fill-0, #F3E8DD)"/>
<path d="M39.0421 1.55102V10.9168H37.67V1.55102H34.6873V0.238619H42.0248V1.55102H39.0421Z" fill="var(--fill-0, #F3E8DD)"/>
<path d="M56.8972 5.57771C56.8972 7.15855 56.3703 8.4809 55.3164 9.54474C54.2525 10.6185 52.9501 11.1554 51.409 11.1554C49.858 11.1554 48.5555 10.6185 47.5016 9.54474C46.4477 8.4809 45.9208 7.15855 45.9208 5.57771C45.9208 3.99686 46.4477 2.67452 47.5016 1.61067C48.5555 0.536892 49.858 0 51.409 0C52.96 0 54.2625 0.541863 55.3164 1.62559C56.3703 2.68943 56.8972 4.0068 56.8972 5.57771ZM47.3226 5.57771C47.3226 6.81057 47.7104 7.82967 48.4859 8.635C49.2714 9.44034 50.2457 9.84301 51.409 9.84301C52.5722 9.84301 53.5416 9.44034 54.3171 8.635C55.1026 7.83961 55.4953 6.82051 55.4953 5.57771C55.4953 4.3349 55.1026 3.3158 54.3171 2.52041C53.5416 1.71507 52.5722 1.3124 51.409 1.3124C50.2457 1.3124 49.2714 1.71507 48.4859 2.52041C47.7104 3.32574 47.3226 4.34484 47.3226 5.57771Z" fill="var(--fill-0, #F3E8DD)"/>
<path d="M59.8884 10.9168H58.5164V0.238619H60.1867L65.3767 8.54552H65.4363L65.3767 6.48744V0.238619H66.7487V10.9168H65.317L59.8884 2.20722H59.8288L59.8884 4.2653V10.9168Z" fill="var(--fill-0, #F3E8DD)"/>
</g>
<path id="path90" d="M85.7806 32.6455H88.2098V16.2233H85.7806V32.6455ZM107.66 22.1388L104.875 29.2588H104.792L101.902 22.1388H99.2855L103.619 32.0898L101.15 37.6256H103.682L110.361 22.1388H107.66ZM93.8843 30.7801C93.0876 30.7801 91.9785 30.3794 91.9785 29.385C91.9785 28.1186 93.3597 27.6325 94.5534 27.6325C95.6209 27.6325 96.1247 27.865 96.773 28.1816C96.5842 29.7029 95.2863 30.7801 93.8843 30.7801ZM94.1772 21.7801C92.4185 21.7801 90.596 22.5618 89.8435 24.2945L91.9993 25.2022C92.4601 24.2945 93.318 23.9976 94.2189 23.9976C95.4751 23.9976 96.7522 24.7582 96.773 26.1113V26.2794C96.333 26.0259 95.3918 25.6463 94.2397 25.6463C91.916 25.6463 89.5493 26.935 89.5493 29.3429C89.5493 31.5407 91.4552 32.9568 93.5901 32.9568C95.2239 32.9568 96.1247 32.2172 96.6897 31.3502H96.773V32.6179H99.1175V26.3215C99.1175 23.4064 96.9618 21.7801 94.1772 21.7801ZM79.1649 24.1382H75.7099V18.5091H79.1649C80.9809 18.5091 82.0119 20.0264 82.0119 21.323C82.0119 22.5959 80.9809 24.1382 79.1649 24.1382ZM79.1024 16.2233H73.2821V32.6455H75.7099V26.4239H79.1024C81.7945 26.4239 84.4411 24.4561 84.4411 21.323C84.4411 18.1899 81.7945 16.2233 79.1024 16.2233ZM47.3634 30.7827C45.6853 30.7827 44.2807 29.3653 44.2807 27.4184C44.2807 25.4505 45.6853 24.0107 47.3634 24.0107C49.0205 24.0107 50.3197 25.4505 50.3197 27.4184C50.3197 29.3653 49.0205 30.7827 47.3634 30.7827ZM50.1531 23.0583H50.0685C49.523 22.4028 48.4751 21.8103 47.1538 21.8103C44.3848 21.8103 41.8476 24.2643 41.8476 27.4184C41.8476 30.5502 44.3848 32.9844 47.1538 32.9844C48.4751 32.9844 49.523 32.3919 50.0685 31.7141H50.1531V32.5194C50.1531 34.6567 49.0205 35.7996 47.1954 35.7996C45.7062 35.7996 44.7832 34.7198 44.4057 33.8094L42.2876 34.6987C42.8956 36.1806 44.5111 38 47.1954 38C50.0476 38 52.4599 36.3067 52.4599 32.1804V22.148H50.1531V23.0583ZM54.1379 32.6455H56.5709V16.222H54.1379V32.6455ZM60.1561 27.2279C60.0936 25.0696 61.8133 23.9687 63.05 23.9687C64.0159 23.9687 64.8334 24.4548 65.1055 25.1536L60.1561 27.2279ZM67.7065 25.3651C67.2457 24.1171 65.8397 21.8103 62.9667 21.8103C60.1144 21.8103 57.7452 24.0738 57.7452 27.3974C57.7452 30.5292 60.0936 32.9844 63.2387 32.9844C65.7772 32.9844 67.2457 31.4185 67.8536 30.5081L65.966 29.2378C65.3372 30.1692 64.4768 30.7827 63.2387 30.7827C62.002 30.7827 61.1207 30.2113 60.5544 29.0907L67.9578 25.9996L67.7065 25.3651ZM8.72475 23.5247V25.8945H14.3446C14.1767 27.2279 13.7367 28.2013 13.0662 28.8779C12.2474 29.7042 10.9677 30.6146 8.72475 30.6146C5.26328 30.6146 2.55815 27.7994 2.55815 24.3076C2.55815 20.8146 5.26328 18.0007 8.72475 18.0007C10.5915 18.0007 11.9545 18.7416 12.9608 19.694L14.618 18.0217C13.212 16.6673 11.3466 15.6295 8.72475 15.6295C3.98491 15.6295 0.000119835 19.5246 0.000119835 24.3076C0.000119835 29.0907 3.98491 32.9844 8.72475 32.9844C11.2828 32.9844 13.212 32.1371 14.7221 30.5502C16.2752 28.9843 16.7568 26.7839 16.7568 25.0052C16.7568 24.4548 16.7152 23.9477 16.6306 23.5247H8.72475ZM23.1473 30.7827C21.4693 30.7827 20.0217 29.3863 20.0217 27.3974C20.0217 25.3861 21.4693 24.0107 23.1473 24.0107C24.8241 24.0107 26.2717 25.3861 26.2717 27.3974C26.2717 29.3863 24.8241 30.7827 23.1473 30.7827ZM23.1473 21.8103C20.0842 21.8103 17.5887 24.1592 17.5887 27.3974C17.5887 30.6145 20.0842 32.9844 23.1473 32.9844C26.2092 32.9844 28.7047 30.6145 28.7047 27.3974C28.7047 24.1592 26.2092 21.8103 23.1473 21.8103ZM35.271 30.7827C33.593 30.7827 32.1454 29.3863 32.1454 27.3974C32.1454 25.3861 33.593 24.0107 35.271 24.0107C36.949 24.0107 38.3953 25.3861 38.3953 27.3974C38.3953 29.3863 36.949 30.7827 35.271 30.7827ZM35.271 21.8103C32.2091 21.8103 29.7136 24.1592 29.7136 27.3974C29.7136 30.6145 32.2091 32.9844 35.271 32.9844C38.3328 32.9844 40.8283 30.6145 40.8283 27.3974C40.8283 24.1592 38.3328 21.8103 35.271 21.8103Z" fill="var(--fill-0, #F3E8DD)"/>
</g>
</svg>
