<svg preserveAspectRatio="none" width="100%" height="100%" overflow="visible" style="display: block;" viewBox="0 0 100 132.547" fill="none" xmlns="http://www.w3.org/2000/svg">
<g id="Group 1">
<g id="Group">
<path id="Vector" d="M43.7838 0.316657C42.6192 0.773066 41.3759 2.04786 40.9194 3.24397C40.6362 3.98367 40.5889 4.36139 40.6519 5.25847C40.6991 5.85652 40.7778 6.50179 40.8408 6.67491C40.9194 6.94246 40.7935 7.03689 39.9437 7.35165C38.3699 7.90249 37.2839 8.86253 36.56 10.3104C35.9934 11.4593 35.9619 11.6167 35.9619 12.9859V14.4496L35.4111 14.544C34.4982 14.7172 33.6799 15.2837 33.2392 16.0392C32.8929 16.6215 32.83 16.9362 32.83 17.8491C32.83 19.2812 33.2234 20.4774 34.1992 22.0827C35.5684 24.3017 35.5999 24.4119 35.7258 26.3162C35.7888 27.3864 35.9462 28.3307 36.1035 28.7085C36.7016 30.1092 37.8033 30.6757 38.842 30.1092C39.3614 29.8259 39.3771 29.8259 39.5974 30.1092C39.7076 30.2665 39.8807 30.7702 39.9909 31.2266C40.4316 33.1781 39.204 35.2084 36.8905 36.3887C36.6229 36.5304 35.5999 36.971 34.6399 37.3645C31.0044 38.8282 29.6981 39.6938 27.3688 42.1332C22.49 47.2166 17.5481 55.9828 15.9586 62.3568C15.4707 64.3241 15.2818 67.456 15.5651 68.9512C16.0373 71.4535 17.1232 73.4995 18.8072 75.0261L19.6571 75.7973L17.2649 76.7101C14.5107 77.7488 10.6705 79.5587 8.78194 80.6919C3.47815 83.9182 0.0157382 89.7099 0 95.3914C0 98.8538 0.975771 101.419 3.13191 103.544C7.45993 107.825 16.5409 108.139 26.4403 104.378C30.1387 102.977 38.1495 99.3417 49.1033 94.1009C62.0559 87.9 66.7302 86.3734 72.0025 86.5937C76.2518 86.7669 79.2106 88.1676 80.8946 90.7958C81.9333 92.4169 82.3583 94.7934 81.9333 96.7292C81.5399 98.6492 80.8631 99.8296 79.3365 101.34C77.3378 103.308 75.8584 104.095 72.4117 105.007C70.6962 105.448 70.3972 105.48 67.5171 105.495C64.0075 105.511 63.3465 105.432 57.1771 104.236C51.527 103.15 49.0404 102.804 45.4521 102.6C37.4098 102.159 31.3663 103.78 26.8337 107.589C24.8035 109.288 23.3241 111.586 22.7103 113.931C22.3326 115.426 22.3798 118.354 22.8047 119.99C24.0953 124.838 27.7308 128.615 33.1762 130.771C38.5902 132.896 45.0114 133.132 50.4726 131.385C55.9967 129.622 59.8211 126.349 61.0487 122.351C61.8356 119.833 61.5838 116.748 60.4349 114.482C58.5305 110.689 54.7848 108.58 49.9847 108.58C46.2862 108.58 43.3589 109.745 40.9037 112.184C38.9679 114.136 38.118 115.93 37.9764 118.448C37.7403 122.178 39.3456 124.995 42.5562 126.537C43.8153 127.151 44.0514 127.198 45.515 127.277C46.4908 127.324 47.4193 127.277 47.9702 127.151C50.0948 126.679 51.7474 125.451 52.5972 123.72C53.0536 122.792 53.1166 122.524 53.1166 121.407C53.1166 120.305 53.0694 120.053 52.7231 119.55C52.5028 119.235 52.2982 118.967 52.251 118.967C52.2038 118.967 52.1723 119.581 52.1723 120.352C52.1723 121.485 52.0936 121.863 51.7631 122.587C50.3309 125.625 46.5223 126.868 43.3431 125.341C42.2729 124.822 41.0139 123.453 40.4001 122.146C39.9437 121.171 39.9122 120.966 39.8965 119.361C39.8965 117.803 39.9437 117.519 40.3686 116.481C41.8008 112.971 45.1688 110.768 49.4968 110.532C55.0681 110.217 59.6322 114.088 59.648 119.172C59.648 120.321 59.2073 122.052 58.5778 123.374C58.1371 124.303 57.7279 124.853 56.5947 125.971C54.4858 128.064 52.1566 129.323 48.7256 130.22C46.3964 130.834 44.917 130.976 41.9582 130.881C39.6132 130.818 39.0309 130.74 37.3783 130.315C35.4268 129.795 32.8772 128.694 31.5237 127.765C27.416 124.964 25.2914 120.588 25.9524 116.308C26.3458 113.837 27.1485 112.294 29.0371 110.39C30.4535 108.958 31.4765 108.234 33.491 107.258C37.1895 105.432 40.5417 104.85 46.4121 105.007C50.0319 105.102 51.4011 105.244 57.3659 106.219C63.0159 107.132 65.6442 107.368 69.0909 107.274C74.5521 107.116 77.9201 106.188 80.7057 104.095C82.5943 102.678 84.2311 100.207 84.7505 97.9882C85.0495 96.7292 85.0495 94.1481 84.7505 92.8733C83.9006 89.2692 80.7844 86.4836 76.362 85.3662C72.6478 84.4219 68.4614 84.4376 64.2278 85.3819C59.0814 86.5308 53.8405 88.5925 43.3589 93.55C34.8602 97.579 31.1145 99.1686 26.4717 100.774C19.9246 103.009 13.8339 103.985 10.403 103.323C6.86188 102.662 4.2808 100.333 3.52537 97.1541C3.17913 95.6747 3.30503 92.8733 3.77718 91.3467C5.25658 86.641 8.62456 83.0684 14.4005 80.1411C16.5252 79.0551 20.9948 77.1036 21.3253 77.1036C21.4512 77.1036 21.7817 77.2452 22.065 77.4026C22.8047 77.8275 25.4173 78.7718 27.117 79.2282C31.9486 80.5345 38.118 80.7863 41.9424 79.842C45.2789 79.0079 47.1518 77.56 47.3407 75.7029C47.4823 74.1133 46.6167 72.7913 44.8225 71.9257C43.1228 71.0916 41.9582 70.887 38.9522 70.9027C36.6544 70.9027 35.9776 70.9657 34.1677 71.3434C31.0201 72.0044 26.2042 73.4838 23.5759 74.6169C22.6473 75.0104 22.3955 74.9317 20.9476 73.7513C17.8787 71.2647 17.0917 67.5032 18.5869 62.3883C20.5069 55.8097 25.9366 46.6343 30.4378 42.3535C31.9172 40.9528 33.0346 40.2131 34.876 39.4262C39.0938 37.6163 40.1797 36.8137 41.1083 34.8306C41.5332 33.9178 41.5962 33.6031 41.6119 32.4227C41.6277 30.8489 41.2814 29.6685 40.6204 28.9603C40.0224 28.3307 39.4558 28.2048 38.5744 28.5353C37.8662 28.8029 37.8505 28.8029 37.5829 28.4566C37.3469 28.1891 37.2996 27.8114 37.2996 26.4107C37.2996 24.3804 37.0793 23.5935 35.9934 21.9253C34.9389 20.2728 34.6714 19.6747 34.4668 18.573C34.2622 17.4084 34.451 16.6372 35.0176 16.2595C35.6157 15.866 36.0563 16.0234 36.3081 16.7474C36.4183 17.0936 36.6229 17.4713 36.7331 17.5973C37.0636 17.9278 37.6144 17.6445 37.882 17.0307C38.0708 16.5585 38.0708 16.291 37.9134 15.3624C37.6931 14.0089 37.8348 12.4823 38.2597 11.4751C38.7004 10.4364 39.7391 9.49206 41.2657 8.73662C42.9182 7.91823 43.0284 7.71363 42.7136 6.15555C42.4933 5.13256 42.4933 4.9437 42.7293 4.15679C43.1858 2.53575 44.4133 1.71736 46.3334 1.71736C47.8285 1.71736 48.8673 2.42558 49.5283 3.8735C49.9689 4.8178 50.205 4.83353 50.205 3.88924C50.205 2.39411 49.4338 1.15078 48.0646 0.458301C46.9787 -0.0925373 44.9799 -0.15549 43.7838 0.316657ZM43.2802 72.6182C45.3104 73.4366 46.1445 74.9002 45.2947 76.1593C44.8068 76.8832 43.0441 77.7961 41.3129 78.2367C40.0696 78.5515 39.5187 78.5987 36.8275 78.583C34.0261 78.583 33.5539 78.5358 31.3821 78.0793C30.0758 77.8118 28.0928 77.261 26.9754 76.8675C25.8737 76.474 24.9294 76.1593 24.9136 76.1593C24.8822 76.1593 24.8664 76.0963 24.8664 76.0176C24.8664 75.7658 29.7453 74.0504 32.6569 73.2949C36.0406 72.4136 37.4413 72.2247 40.1325 72.2719C42.0526 72.3191 42.7136 72.3821 43.2802 72.6182Z" fill="var(--fill-0, #B38F6F)"/>
</g>
<g id="Tibet">
<path d="M48.9552 22.1195C47.9761 22.1195 47.0924 22.1651 46.3042 22.2564C45.5159 22.3393 44.8355 22.4306 44.263 22.5302C43.5992 22.6546 43.0059 22.7915 42.4832 22.9409L42.8441 20.9246C42.9437 20.9329 43.093 20.9412 43.2922 20.9495C43.4913 20.9578 43.7112 20.9661 43.9518 20.9744C44.2007 20.9827 44.458 20.991 44.7235 20.9993C44.9973 20.9993 45.2545 21.0034 45.4952 21.0117C45.7358 21.0117 45.9474 21.0159 46.1299 21.0242C46.3208 21.0242 46.4577 21.0242 46.5406 21.0242H53.6474C53.7304 21.0242 53.8632 21.0242 54.0457 21.0242C54.2365 21.0159 54.4523 21.0117 54.6929 21.0117C54.9335 21.0034 55.1866 20.9993 55.4521 20.9993C55.7259 20.991 55.9832 20.9827 56.2238 20.9744C56.4727 20.9661 56.6967 20.9578 56.8959 20.9495C57.095 20.9412 57.2444 20.9329 57.3439 20.9246L57.7049 22.9409C57.1738 22.7915 56.5764 22.6546 55.9126 22.5302C55.3401 22.4306 54.6597 22.3393 53.8715 22.2564C53.0832 22.1651 52.1995 22.1195 51.2204 22.1195V34.0056C51.2204 34.7109 51.2287 35.329 51.2453 35.8601C51.2702 36.3828 51.2951 36.835 51.32 37.2167C51.3532 37.5984 51.3905 37.9178 51.432 38.1751C51.4818 38.4323 51.5316 38.648 51.5814 38.8223V38.8721H48.6067V38.8223C48.6565 38.648 48.7021 38.4323 48.7436 38.1751C48.7851 37.9178 48.8224 37.5984 48.8556 37.2167C48.8888 36.835 48.9137 36.3828 48.9303 35.8601C48.9469 35.329 48.9552 34.7109 48.9552 34.0056V22.1195Z" fill="var(--fill-0, #B38F6F)"/>
<path d="M58.1973 30.9936C58.1973 30.2883 58.1848 29.6743 58.1599 29.1516C58.1433 28.6205 58.1184 28.1642 58.0852 27.7825C58.0604 27.4008 58.023 27.0813 57.9732 26.8241C57.9317 26.5669 57.8861 26.3512 57.8363 26.1769V26.1271H60.7114V26.1769C60.6616 26.3512 60.616 26.5669 60.5745 26.8241C60.533 27.0813 60.4957 27.4008 60.4625 27.7825C60.4293 28.1642 60.4044 28.6205 60.3878 29.1516C60.3712 29.6743 60.3629 30.2883 60.3629 30.9936V34.0056C60.3629 34.7109 60.3712 35.329 60.3878 35.8601C60.4044 36.3828 60.4293 36.835 60.4625 37.2167C60.4957 37.5984 60.533 37.9178 60.5745 38.1751C60.616 38.4323 60.6616 38.648 60.7114 38.8223V38.8721H57.8363V38.8223C57.8861 38.648 57.9317 38.4323 57.9732 38.1751C58.023 37.9178 58.0604 37.5984 58.0852 37.2167C58.1184 36.835 58.1433 36.3828 58.1599 35.8601C58.1848 35.329 58.1973 34.7109 58.1973 34.0056V30.9936ZM57.9359 22.3559C57.9359 22.1734 57.9691 22.0033 58.0355 21.8456C58.1101 21.6797 58.2056 21.5386 58.3217 21.4225C58.4379 21.298 58.5748 21.2026 58.7324 21.1362C58.8984 21.0615 59.0768 21.0242 59.2676 21.0242C59.4585 21.0242 59.6327 21.0615 59.7904 21.1362C59.9563 21.2026 60.0974 21.298 60.2135 21.4225C60.338 21.5386 60.4334 21.6797 60.4998 21.8456C60.5745 22.0033 60.6118 22.1734 60.6118 22.3559C60.6118 22.7376 60.4832 23.0571 60.226 23.3143C59.9688 23.5715 59.6493 23.7001 59.2676 23.7001C59.0768 23.7001 58.8984 23.6669 58.7324 23.6006C58.5748 23.5259 58.4379 23.4305 58.3217 23.3143C58.2056 23.1898 58.1101 23.0488 58.0355 22.8911C57.9691 22.7252 57.9359 22.5468 57.9359 22.3559Z" fill="var(--fill-0, #B38F6F)"/>
<path d="M65.672 26.7619C66.1947 26.4798 66.7548 26.2682 67.3522 26.1271C67.9496 25.9778 68.5595 25.9031 69.1818 25.9031C70.1028 25.9031 70.9533 26.0608 71.7333 26.3761C72.5215 26.6831 73.2019 27.1228 73.7744 27.6954C74.347 28.2679 74.795 28.9649 75.1186 29.7863C75.4422 30.6078 75.604 31.5288 75.604 32.5494C75.604 33.404 75.4547 34.2255 75.156 35.0137C74.8656 35.802 74.4258 36.499 73.8367 37.1047C73.2558 37.7104 72.5298 38.1958 71.6586 38.5609C70.7956 38.9177 69.7917 39.0961 68.6466 39.0961C68.5138 39.0961 68.3354 39.0919 68.1114 39.0836C67.8957 39.0753 67.6551 39.0587 67.3895 39.0339C67.124 39.009 66.8419 38.9758 66.5432 38.9343C66.2445 38.8928 65.9541 38.8389 65.672 38.7725C65.2737 38.6812 64.8713 38.5816 64.4647 38.4738C64.0664 38.3576 63.6847 38.229 63.3196 38.0879C63.3528 37.9635 63.3819 37.756 63.4067 37.4656C63.4316 37.1669 63.4482 36.8475 63.4565 36.5073C63.4731 36.1671 63.4856 35.8352 63.4939 35.5116C63.5022 35.1797 63.5063 34.9142 63.5063 34.715V25.1314C63.5063 24.4262 63.4939 23.8121 63.469 23.2894C63.4524 22.7584 63.4275 22.302 63.3943 21.9203C63.3694 21.5386 63.3321 21.2192 63.2823 20.962C63.2408 20.7047 63.1952 20.489 63.1454 20.3148V20.265H66.0205V20.3148C65.9707 20.489 65.925 20.7047 65.8835 20.962C65.8421 21.2192 65.8047 21.5386 65.7715 21.9203C65.7383 22.302 65.7134 22.7584 65.6968 23.2894C65.6803 23.8121 65.672 24.4262 65.672 25.1314V26.7619ZM65.672 34.5159C65.672 35.188 65.6761 35.7439 65.6844 36.1837C65.701 36.6234 65.7217 36.9761 65.7466 37.2416C66.0951 37.5071 66.5681 37.7312 67.1655 37.9137C67.7629 38.0962 68.4184 38.1875 69.132 38.1875C69.7211 38.1875 70.2605 38.0713 70.75 37.839C71.2396 37.6067 71.6586 37.2706 72.0071 36.8309C72.3556 36.3911 72.6252 35.8559 72.8161 35.2253C73.0152 34.5947 73.1148 33.8811 73.1148 33.0846C73.1148 32.1884 73.0318 31.3587 72.8659 30.5953C72.6999 29.8237 72.4427 29.1599 72.0942 28.6039C71.7457 28.0397 71.3018 27.5999 70.7625 27.2846C70.2231 26.9693 69.5801 26.8117 68.8333 26.8117C68.2027 26.8117 67.6136 26.9403 67.0659 27.1975C66.5183 27.4547 66.0536 27.8281 65.672 28.3177V34.5159Z" fill="var(--fill-0, #B38F6F)"/>
<path d="M83.2032 39.0961C82.2822 39.0961 81.4192 38.9509 80.6144 38.6605C79.8095 38.3701 79.1084 37.9469 78.511 37.391C77.9136 36.8267 77.4406 36.1339 77.0921 35.3124C76.7519 34.4827 76.5818 33.5368 76.5818 32.4747C76.5818 31.5371 76.7395 30.67 77.0548 29.8734C77.3701 29.0686 77.8057 28.3716 78.3616 27.7825C78.9175 27.1934 79.5647 26.7328 80.3032 26.401C81.05 26.0691 81.8549 25.9031 82.7178 25.9031C83.5724 25.9031 84.3648 26.0525 85.095 26.3512C85.8252 26.6416 86.4558 27.0689 86.9868 27.6331C87.5262 28.1891 87.9493 28.8819 88.2564 29.7116C88.5717 30.5331 88.7418 31.4707 88.7666 32.5245C87.829 32.5079 86.8914 32.4954 85.9538 32.4871C85.0162 32.4789 84.0412 32.4747 83.0289 32.4747C82.3071 32.4747 81.6018 32.4789 80.9131 32.4871C80.2327 32.4954 79.6187 32.5079 79.071 32.5245C79.1208 33.3874 79.2536 34.1674 79.4693 34.8644C79.6934 35.5614 79.9962 36.1588 80.3779 36.6566C80.7679 37.1462 81.2367 37.5237 81.7843 37.7892C82.3403 38.0548 82.9667 38.1875 83.6637 38.1875C84.145 38.1875 84.5972 38.1336 85.0203 38.0257C85.4518 37.9095 85.8418 37.7519 86.1903 37.5528C86.5388 37.3536 86.8499 37.1213 87.1237 36.8558C87.3976 36.582 87.6299 36.2874 87.8207 35.9721L87.9701 36.0468L87.0491 38.2622C86.601 38.4945 86.0658 38.6937 85.4435 38.8596C84.8212 39.0173 84.0744 39.0961 83.2032 39.0961ZM81.5478 31.5039C82.3776 31.5039 83.2073 31.5039 84.0371 31.5039C84.8751 31.4956 85.6344 31.479 86.3147 31.4541C86.2401 30.7322 86.099 30.085 85.8916 29.5125C85.6841 28.94 85.4186 28.4546 85.095 28.0563C84.7714 27.658 84.3897 27.351 83.95 27.1353C83.5102 26.9195 83.0248 26.8117 82.4938 26.8117C82.0125 26.8117 81.5686 26.9195 81.162 27.1353C80.7637 27.3427 80.4152 27.6456 80.1165 28.0439C79.8178 28.4421 79.5772 28.9317 79.3947 29.5125C79.2121 30.085 79.1042 30.7405 79.071 31.479C79.4444 31.4956 79.8386 31.5039 80.2534 31.5039C80.6683 31.5039 81.0998 31.5039 81.5478 31.5039Z" fill="var(--fill-0, #B38F6F)"/>
<path d="M95.1834 38.1377C95.4323 38.1377 95.6771 38.0921 95.9177 38.0008C96.1667 37.9095 96.4031 37.7851 96.6272 37.6274C96.8595 37.4698 97.0794 37.2914 97.2868 37.0922C97.5026 36.8848 97.7017 36.6691 97.8842 36.445L98.0087 36.5073L97.1997 38.5111C97.1001 38.5609 96.9757 38.6231 96.8263 38.6978C96.6853 38.7642 96.511 38.8264 96.3036 38.8845C96.1044 38.9509 95.868 39.0048 95.5941 39.0463C95.3203 39.0961 94.9967 39.121 94.6233 39.121C93.5115 39.121 92.6444 38.8223 92.0221 38.2249C91.4081 37.6191 91.1011 36.6774 91.1011 35.3996V27.0979L89.0101 27.1726V26.0773C89.2673 26.0939 89.5743 26.1064 89.9311 26.1147C90.2879 26.123 90.6779 26.1271 91.1011 26.1271C91.0928 25.538 91.0762 25.0194 91.0513 24.5714C91.0347 24.115 91.0098 23.7209 90.9766 23.389C90.9517 23.0488 90.9185 22.7625 90.877 22.5302C90.8355 22.2979 90.7941 22.1029 90.7526 21.9452V21.8954H93.6276V21.9452C93.5779 22.1029 93.5322 22.2979 93.4907 22.5302C93.4492 22.7625 93.4119 23.0446 93.3787 23.3765C93.3538 23.7084 93.3289 24.1026 93.304 24.5589C93.2874 25.007 93.275 25.5297 93.2667 26.1271C93.7894 26.1188 94.2997 26.1105 94.7976 26.1022C95.3037 26.0856 95.7601 26.0691 96.1667 26.0525C96.5815 26.0276 96.93 26.0068 97.2122 25.9902C97.5026 25.9653 97.6934 25.9446 97.7847 25.928L97.5606 27.1975C97.1375 27.1892 96.6936 27.1768 96.2289 27.1602C95.8306 27.1436 95.3743 27.1311 94.8598 27.1228C94.3454 27.1145 93.8143 27.1062 93.2667 27.0979V35.6609C93.2667 36.1754 93.3206 36.5944 93.4285 36.918C93.5447 37.2333 93.6899 37.4822 93.8641 37.6648C94.0467 37.8473 94.25 37.9718 94.474 38.0382C94.7063 38.1045 94.9428 38.1377 95.1834 38.1377Z" fill="var(--fill-0, #B38F6F)"/>
</g>
<g id="Astro">
<path d="M56.6095 59.2639V59.2141C56.6261 59.1727 56.6386 59.1104 56.6469 59.0275C56.6552 58.9445 56.6593 58.8698 56.6593 58.8034C56.6593 58.5462 56.622 58.2641 56.5473 57.9571C56.4809 57.6418 56.3481 57.2518 56.149 56.7871L54.643 53.4018C54.1784 53.3852 53.5602 53.3769 52.7885 53.3769C52.0169 53.3769 51.183 53.3769 50.2868 53.3769C49.6313 53.3769 48.9966 53.3769 48.3826 53.3769C47.7769 53.3769 47.2292 53.3852 46.7397 53.4018L45.3084 56.6876C45.1839 56.9946 45.0511 57.3306 44.9101 57.6957C44.769 58.0608 44.6985 58.43 44.6985 58.8034C44.6985 58.9113 44.7068 59.0026 44.7234 59.0772C44.74 59.1436 44.7566 59.1893 44.7732 59.2141V59.2639H42.2341V59.2141C42.3835 59.0565 42.5702 58.7785 42.7942 58.3803C43.0183 57.9737 43.263 57.4675 43.5286 56.8618L50.6602 41.0427H51.6559L58.4142 56.2519C58.5719 56.6087 58.7337 56.9572 58.8996 57.2974C59.0739 57.6293 59.2357 57.928 59.385 58.1936C59.5344 58.4591 59.6671 58.6831 59.7833 58.8657C59.8995 59.0482 59.9783 59.1644 60.0198 59.2141V59.2639H56.6095ZM48.5444 52.3065C49.0256 52.3065 49.5193 52.3065 50.0255 52.3065C50.5316 52.2982 51.0253 52.2941 51.5066 52.2941C51.9961 52.2858 52.4649 52.2816 52.913 52.2816C53.3611 52.2733 53.7676 52.265 54.1327 52.2567L50.6353 44.3534L47.2002 52.3065H48.5444Z" fill="var(--fill-0, #B38F6F)"/>
<path d="M66.561 49.0207L66.3868 49.0456C66.3287 48.8548 66.2333 48.6515 66.1005 48.4357C65.976 48.22 65.8101 48.0209 65.6027 47.8383C65.4035 47.6558 65.1587 47.5064 64.8683 47.3902C64.5862 47.2658 64.2585 47.2036 63.8851 47.2036C63.6279 47.2036 63.3831 47.2409 63.1508 47.3156C62.9267 47.3902 62.7276 47.5023 62.5533 47.6516C62.3874 47.7927 62.2546 47.9711 62.1551 48.1868C62.0555 48.4025 62.0057 48.6556 62.0057 48.946C62.0057 49.3526 62.1302 49.7426 62.3791 50.116C62.6363 50.4811 62.9558 50.8461 63.3374 51.2112C63.7191 51.568 64.1299 51.929 64.5696 52.2941C65.0177 52.6591 65.4326 53.0408 65.8142 53.4391C66.1959 53.8374 66.5112 54.2647 66.7602 54.7211C67.0174 55.1691 67.146 55.6545 67.146 56.1773C67.146 56.6004 67.0713 57.0153 66.922 57.4219C66.7726 57.8202 66.5403 58.177 66.225 58.4923C65.918 58.8076 65.5197 59.0648 65.0301 59.2639C64.5489 59.4548 63.9722 59.5502 63.3001 59.5502C62.9018 59.5502 62.5284 59.5129 62.1799 59.4382C61.8398 59.3635 61.5244 59.2722 61.234 59.1644C60.9519 59.0482 60.6947 58.9237 60.4624 58.791C60.2383 58.6499 60.0392 58.5172 59.865 58.3927L59.9894 56.0279H60.1886C60.2715 56.4179 60.396 56.7747 60.5619 57.0983C60.7279 57.4219 60.9312 57.6999 61.1718 57.9322C61.4207 58.1562 61.7028 58.3346 62.0181 58.4674C62.3335 58.5918 62.6778 58.6541 63.0512 58.6541C63.6652 58.6541 64.1506 58.484 64.5074 58.1438C64.8725 57.8036 65.055 57.3597 65.055 56.812C65.055 56.3723 64.9306 55.9698 64.6816 55.6047C64.441 55.2314 64.134 54.8746 63.7606 54.5344C63.3872 54.1942 62.9848 53.854 62.5533 53.5138C62.1302 53.1736 61.7319 52.8126 61.3585 52.431C60.9851 52.041 60.674 51.6178 60.425 51.1614C60.1844 50.6968 60.0641 50.1699 60.0641 49.5808C60.0641 49.0995 60.1512 48.6598 60.3255 48.2615C60.508 47.8549 60.7569 47.5106 61.0722 47.2284C61.3958 46.938 61.7775 46.714 62.2173 46.5564C62.6571 46.3987 63.1383 46.3199 63.661 46.3199C64.3497 46.3199 64.9223 46.3946 65.3786 46.5439C65.8433 46.685 66.1959 46.8219 66.4366 46.9546L66.561 49.0207Z" fill="var(--fill-0, #B38F6F)"/>
<path d="M73.7121 58.5296C73.961 58.5296 74.2058 58.484 74.4464 58.3927C74.6954 58.3014 74.9318 58.177 75.1559 58.0193C75.3882 57.8617 75.6081 57.6833 75.8155 57.4841C76.0313 57.2767 76.2304 57.061 76.4129 56.8369L76.5374 56.8992L75.7284 58.903C75.6288 58.9528 75.5044 59.015 75.355 59.0897C75.214 59.1561 75.0397 59.2183 74.8323 59.2764C74.6331 59.3428 74.3967 59.3967 74.1228 59.4382C73.849 59.488 73.5254 59.5129 73.152 59.5129C72.0402 59.5129 71.1731 59.2141 70.5508 58.6167C69.9368 58.011 69.6298 57.0693 69.6298 55.7914V47.4898L67.5388 47.5645V46.4692C67.796 46.4858 68.103 46.4983 68.4598 46.5066C68.8166 46.5149 69.2066 46.519 69.6298 46.519C69.6215 45.9299 69.6049 45.4113 69.58 44.9632C69.5634 44.5069 69.5385 44.1127 69.5053 43.7808C69.4804 43.4406 69.4472 43.1544 69.4057 42.9221C69.3642 42.6897 69.3227 42.4947 69.2813 42.3371V42.2873H72.1563V42.3371C72.1065 42.4947 72.0609 42.6897 72.0194 42.9221C71.9779 43.1544 71.9406 43.4365 71.9074 43.7684C71.8825 44.1003 71.8576 44.4944 71.8327 44.9508C71.8161 45.3989 71.8037 45.9216 71.7954 46.519C72.3181 46.5107 72.8284 46.5024 73.3263 46.4941C73.8324 46.4775 74.2888 46.4609 74.6954 46.4443C75.1102 46.4194 75.4587 46.3987 75.7408 46.3821C76.0313 46.3572 76.2221 46.3365 76.3134 46.3199L76.0893 47.5894C75.6662 47.5811 75.2222 47.5686 74.7576 47.552C74.3593 47.5355 73.903 47.523 73.3885 47.5147C72.8741 47.5064 72.343 47.4981 71.7954 47.4898V56.0528C71.7954 56.5673 71.8493 56.9863 71.9572 57.3099C72.0734 57.6252 72.2186 57.8741 72.3928 58.0567C72.5754 58.2392 72.7786 58.3637 73.0027 58.43C73.235 58.4964 73.4715 58.5296 73.7121 58.5296Z" fill="var(--fill-0, #B38F6F)"/>
<path d="M78.2246 51.3855C78.2246 50.6802 78.2122 50.0662 78.1873 49.5434C78.1707 49.0124 78.1458 48.556 78.1126 48.1744C78.0877 47.7927 78.0504 47.4732 78.0006 47.216C77.9591 46.9588 77.9135 46.743 77.8637 46.5688V46.519H80.7387V46.5688C80.6724 46.7596 80.6143 46.992 80.5645 47.2658C80.523 47.5396 80.4898 47.8922 80.4649 48.3237C80.7719 48.0665 81.0914 47.8134 81.4233 47.5645C81.7552 47.3156 82.0954 47.0957 82.4439 46.9048C82.7924 46.714 83.145 46.5605 83.5018 46.4443C83.8669 46.3282 84.232 46.2701 84.5971 46.2701C84.8211 46.2701 85.0161 46.2825 85.182 46.3074C85.348 46.324 85.4973 46.3531 85.6301 46.3946C85.7629 46.4277 85.8832 46.4692 85.991 46.519C86.0989 46.5605 86.2026 46.602 86.3022 46.6435L85.6923 49.0207L85.4807 48.9709C85.3812 48.6058 85.1945 48.3154 84.9207 48.0997C84.6469 47.8756 84.2735 47.7636 83.8005 47.7636C83.5433 47.7636 83.2736 47.8093 82.9915 47.9005C82.7094 47.9918 82.4231 48.1204 82.1327 48.2864C81.8423 48.444 81.5519 48.6307 81.2615 48.8465C80.9711 49.0539 80.689 49.2738 80.4151 49.5061C80.3985 49.7467 80.3902 50.0081 80.3902 50.2902C80.3902 50.5723 80.3902 50.871 80.3902 51.1863V54.3975C80.3902 55.1027 80.3985 55.7209 80.4151 56.2519C80.4317 56.7747 80.4566 57.2269 80.4898 57.6086C80.523 57.9903 80.5603 58.3097 80.6018 58.5669C80.6433 58.8242 80.689 59.0399 80.7387 59.2141V59.2639H77.8637V59.2141C77.9135 59.0399 77.9591 58.8242 78.0006 58.5669C78.0504 58.3097 78.0877 57.9903 78.1126 57.6086C78.1458 57.2269 78.1707 56.7747 78.1873 56.2519C78.2122 55.7209 78.2246 55.1027 78.2246 54.3975V51.3855Z" fill="var(--fill-0, #B38F6F)"/>
<path d="M86.4212 52.8666C86.4212 51.929 86.5954 51.0619 86.9439 50.2653C87.2924 49.4605 87.7695 48.7635 88.3752 48.1744C88.9893 47.5852 89.7111 47.1247 90.5409 46.7928C91.3706 46.4609 92.2626 46.295 93.2168 46.295C94.1544 46.295 95.034 46.4526 95.8554 46.7679C96.6852 47.0749 97.407 47.5147 98.0211 48.0872C98.6351 48.6598 99.1163 49.3567 99.4648 50.1782C99.8216 50.9996 100 51.9207 100 52.9413C100 53.7959 99.8506 54.6173 99.5519 55.4056C99.2532 56.1939 98.8135 56.8909 98.2326 57.4966C97.6518 58.1023 96.9382 58.5877 96.0919 58.9528C95.2538 59.3096 94.2872 59.488 93.1919 59.488C92.2626 59.488 91.3872 59.3345 90.5658 59.0275C89.7443 58.7204 89.0266 58.2807 88.4126 57.7082C87.7986 57.1356 87.3132 56.4428 86.9564 55.6296C86.5996 54.8082 86.4212 53.8872 86.4212 52.8666ZM93.4782 58.5794C94.0673 58.5794 94.6066 58.4632 95.0962 58.2309C95.594 57.9986 96.0214 57.6625 96.3782 57.2228C96.7349 56.783 97.0129 56.2478 97.212 55.6172C97.4112 54.9866 97.5108 54.273 97.5108 53.4764C97.5108 52.5803 97.4153 51.7506 97.2245 50.9872C97.0337 50.2155 96.7474 49.5517 96.3657 48.9958C95.9923 48.4316 95.5194 47.9918 94.9468 47.6765C94.3743 47.3612 93.7064 47.2036 92.943 47.2036C92.3539 47.2036 91.8145 47.3197 91.325 47.552C90.8354 47.7761 90.4081 48.1038 90.043 48.5353C89.6862 48.9668 89.4083 49.4978 89.2091 50.1284C89.01 50.7507 88.9104 51.4602 88.9104 52.2567C88.9104 53.1528 89.0058 53.9867 89.1967 54.7584C89.3958 55.5301 89.6862 56.2022 90.0679 56.7747C90.4496 57.3389 90.9226 57.7828 91.4868 58.1064C92.0593 58.4217 92.7231 58.5794 93.4782 58.5794Z" fill="var(--fill-0, #B38F6F)"/>
</g>
</g>
</svg>
