<svg preserveAspectRatio="none" width="100%" height="100%" overflow="visible" style="display: block;" viewBox="0 0 129 101" fill="none" xmlns="http://www.w3.org/2000/svg">
<path id="Decorative icon/Flower" fill-rule="evenodd" clip-rule="evenodd" d="M63.7726 0.25434C61.6632 1.53581 59.8422 6.04167 59.8399 9.98447L59.8393 11.0757L59.4006 10.2054C57.9337 7.29501 56.3706 6.02325 55.7423 7.22888C55.5397 7.6177 55.5105 7.99797 55.5756 9.40124C55.6782 11.6119 55.9153 12.6523 57.1908 16.488L58.247 19.6645L58.8948 19.453C59.251 19.3365 59.5425 19.1654 59.5425 19.0726C59.5425 18.9798 59.24 17.9439 58.8701 16.7705C57.79 13.3433 57.4482 12.0699 57.2299 10.6605C56.9106 8.59887 56.9375 8.46042 57.4889 9.33202C58.4421 10.839 59.4576 13.4762 60.4406 16.9982C60.7038 17.9408 61.0073 18.7455 61.1152 18.7866C61.3304 18.8685 62.3626 18.5713 62.3626 18.4274C62.3626 18.3782 62.2624 17.9194 62.1399 17.4079C62.0175 16.8964 61.8195 16.0638 61.7 15.5575C60.9588 12.4172 61.144 8.93687 62.2243 5.70719C62.9705 3.47577 64.1878 1.60386 64.7503 1.82242C65.3201 2.04378 66.3397 4.38168 66.8384 6.61031C67.1391 7.95452 67.1842 8.55159 67.1832 11.176C67.1821 14.1837 67.0781 15.0593 66.3928 17.8253C66.2166 18.5365 66.3496 18.7044 67.1606 18.7951C67.7821 18.8646 67.8463 18.8415 67.9211 18.5213C68.6946 15.2133 68.9717 14.2516 69.4894 13.0791C70.1659 11.5469 71.3024 9.53865 71.6594 9.24468C71.863 9.07708 71.8779 9.13791 71.7912 9.78446C71.5675 11.4555 70.1032 16.555 69.2708 18.5617C69.1329 18.894 69.7308 19.4236 70.2437 19.4236C70.612 19.4236 70.6805 19.3292 71.0198 18.3558C71.2247 17.7685 71.633 16.5991 71.9273 15.7571C72.6212 13.7723 73.1646 11.0599 73.2587 9.1114C73.3445 7.33816 73.2023 6.85833 72.57 6.78528C71.9895 6.71826 70.5015 8.25659 69.6004 9.85516L68.8976 11.1023L68.8954 10.3447C68.8916 8.97634 68.5913 6.55699 68.2866 5.43929C67.6296 3.02996 66.3487 0.792496 65.3317 0.277609C64.6124 -0.0864641 64.3404 -0.0905876 63.7726 0.25434ZM46.0761 3.06442C45.1122 3.31185 44.7765 4.22557 44.7965 6.54786C44.8078 7.86292 44.9034 8.5482 45.2899 10.0826C46.4041 14.5073 48.1953 17.7088 51.8052 21.7276C52.3144 22.2946 52.5921 22.4974 52.7676 22.4306C53.1112 22.2998 53.2234 21.7279 53.0175 21.1568C52.9221 20.8919 52.7505 19.8139 52.6362 18.7608C52.2611 15.3065 51.3598 12.6613 49.8356 10.5418C48.9766 9.34734 48.2207 8.52493 47.9819 8.52493C47.7171 8.52493 47.8501 8.86839 49.0945 11.3969C49.8578 12.948 50.3335 14.1567 50.6912 15.4548C51.2419 17.4531 51.5331 19.3881 51.2576 19.2191C50.9912 19.0558 49.0443 15.8572 48.5493 14.7697C47.9532 13.46 47.3022 11.652 46.9901 10.4396C46.4969 8.52317 46.21 5.20969 46.5114 4.91086C46.7041 4.71984 47.9121 5.55668 48.7679 6.47393C51.3124 9.20094 53.3338 13.4473 53.8808 17.2144C53.9689 17.8219 54.1197 18.8754 54.2159 19.5554C54.3379 20.4196 54.4783 20.8788 54.6824 21.0813C54.9726 21.3693 54.976 21.3691 55.2917 21.0554C55.5829 20.766 55.6074 20.5966 55.5869 19.0138C55.5477 15.9824 54.8828 13.2595 53.4943 10.4459C51.4268 6.25669 47.7793 2.62715 46.0761 3.06442ZM81.5369 3.22761C80.9966 3.44808 79.5778 4.58301 78.7577 5.45064C76.6899 7.63861 75.0094 10.3568 74.1392 12.9211C73.3693 15.1899 72.8811 20.0282 73.3832 20.4136C74.2106 21.0488 74.4877 20.6968 74.6843 18.7608C75.0818 14.8497 75.8887 12.4331 77.8161 9.38136C78.5495 8.22021 78.6472 8.08796 79.5828 6.98955C80.1669 6.30382 81.0509 5.50115 81.7531 5.01881L82.2192 4.69863L82.3204 5.23354C82.5521 6.4592 81.9934 9.82541 81.1998 11.986C80.5783 13.6778 79.1371 16.5042 78.1027 18.0601C77.6603 18.7258 77.2767 19.249 77.2505 19.223C77.2242 19.1971 77.3112 18.5853 77.4437 17.8637C77.8083 15.8787 78.6233 13.503 79.5863 11.6178C80.0623 10.6863 80.5561 9.66752 80.6837 9.35382C81.669 6.93329 79.2345 9.48563 77.7516 12.4278C76.8797 14.1576 76.4631 15.8085 76.0859 19.0275C75.9703 20.0149 75.8334 21.0363 75.7821 21.2973C75.7018 21.704 75.7408 21.7954 76.0549 21.9373C76.3963 22.0917 76.4959 22.0261 77.5163 20.9753C79.0777 19.3675 80.1252 17.92 81.1872 15.9026C83.2185 12.0439 84.227 8.01343 83.8952 5.07905C83.7257 3.57828 83.436 3.16104 82.5336 3.11833C82.1745 3.10124 81.726 3.15043 81.5369 3.22761ZM63.89 7.08896C63.0936 7.95334 62.5435 9.9961 62.4111 12.5813C62.3179 14.4025 62.518 16.0609 63.056 17.9291L63.2831 18.7174L64.1216 18.616C64.5827 18.5604 65.0019 18.4707 65.0531 18.4169C65.3522 18.1023 65.8473 15.8982 66.0026 14.1908C66.1825 12.2135 65.346 7.80062 64.6457 7.033C64.3257 6.68203 64.2607 6.68675 63.89 7.08896ZM42.7996 8.24702C42.3872 8.6295 42.325 8.78444 42.325 9.42982C42.325 10.5684 42.8775 13.0162 43.4669 14.4897C44.4112 16.8497 45.45 18.724 46.9467 20.7675C47.6383 21.7117 50.0665 24.2838 50.2663 24.2838C50.3565 24.2838 50.6434 24.0655 50.9039 23.7988L51.3776 23.3139L50.2523 22.0683C48.6943 20.3438 47.9698 19.3954 46.9843 17.7903C45.2928 15.0351 44.0162 11.5883 43.5948 8.63878C43.5401 8.256 43.4455 7.91211 43.3847 7.87484C43.3238 7.83758 43.0605 8.00504 42.7996 8.24702ZM85.2441 8.04628C85.1698 8.18811 85.0623 8.70167 85.0053 9.18769C84.5107 13.4 81.8339 18.8177 78.6697 22.0104C77.9301 22.7565 77.6658 23.121 77.7346 23.2991C77.7875 23.4356 77.8743 23.5474 77.9276 23.5474C77.9809 23.5474 78.2127 23.7206 78.4428 23.9322L78.861 24.3169L79.3097 23.8954C80.1406 23.1147 82.0032 20.8321 82.8056 19.6111C85.6311 15.3114 87.2353 9.50125 85.9668 8.16145C85.5494 7.72064 85.4251 7.70076 85.2441 8.04628ZM64.745 11.3172C64.952 12.7482 64.848 14.8326 64.4921 16.3859C64.2607 17.3948 64.2538 17.4047 64.0778 16.9817C63.7706 16.2437 63.5067 13.5968 63.6114 12.306C63.7122 11.0665 63.9625 9.59064 64.1143 9.34042C64.2624 9.09608 64.5572 10.0201 64.745 11.3172ZM97.4654 15.6083C94.1009 16.0898 89.1983 19.1318 85.9851 22.7318C84.5529 24.3362 82.3575 27.7018 82.2346 28.4812C82.1806 28.8234 82.9342 30.4695 83.1448 30.4695C83.223 30.4695 83.5293 29.9891 83.8258 29.4017C84.5516 27.9632 85.8706 25.8473 86.603 24.9465C88.1982 22.9845 90.5331 20.8939 92.6565 19.5264C94.5384 18.3143 95.347 17.9493 98.8593 16.7267C99.5263 16.4946 99.7673 16.1216 99.4522 15.8091C99.1735 15.5325 98.4831 15.4627 97.4654 15.6083ZM29.5092 15.8637C29.2189 16.1821 29.1871 16.6144 29.4491 16.6834C33.929 17.8665 38.1902 20.6249 41.486 24.4752C42.9275 26.1592 44.3433 28.6449 45.068 30.764C45.248 31.2906 45.4524 31.7118 45.5223 31.7002C45.7506 31.6619 46.481 30.1446 46.481 29.7082C46.481 28.7831 45.0754 26.0928 43.4688 23.9427C40.2509 19.6362 33.9669 15.5943 30.4897 15.5943C29.9663 15.5943 29.6842 15.6718 29.5092 15.8637ZM27.2449 18.2998C26.5594 18.6087 26.3954 19.4056 26.6817 21.0349C27.4505 25.4099 29.6253 28.9506 34.4381 33.6634C36.5821 35.7627 36.7925 35.9294 37.1966 35.8515C37.4372 35.8053 37.786 35.6684 37.9717 35.5478L38.3094 35.3282L37.6084 34.7063C34.0813 31.5767 31.3491 28.268 29.8406 25.2997C29.0384 23.721 27.9428 20.3117 28.0994 19.8813C28.1285 19.8015 28.4565 19.847 28.8646 19.9877L29.5786 20.2338L30.3917 22.3693C31.3066 24.7722 32.3642 26.7179 33.7445 28.5373C34.2597 29.2163 34.9196 30.1054 35.2113 30.5132C36.0186 31.6421 36.579 31.5068 35.8497 30.359C35.7337 30.1767 35.6778 30.0277 35.7251 30.0277C35.8032 30.0277 37.8093 32.0807 39.5329 33.9245C40.1714 34.6076 40.2407 34.6435 40.6024 34.4799C40.8151 34.3837 40.9892 34.2431 40.9892 34.1674C40.9892 33.7934 39.0093 31.4163 36.2508 28.4781C35.1102 27.2634 33.5866 25.3024 32.8201 24.0629C31.5569 22.0198 30.7637 20.6018 30.8841 20.6018C31.1977 20.6018 32.5656 21.2992 33.6421 22.0077C36.9954 24.215 40.0745 28.4712 41.4415 32.7891C41.7043 33.6193 41.9941 34.2979 42.0852 34.2967C42.1763 34.2956 42.41 34.2525 42.6044 34.2008C42.9434 34.1108 42.9545 34.0665 42.8732 33.1351C42.6314 30.3665 40.5959 26.4367 38.0395 23.8029C35.6419 21.3325 33.5348 19.8878 30.8015 18.8402C29.0243 18.159 27.9274 17.9923 27.2449 18.2998ZM99.0608 18.3947C97.0275 18.9523 94.4136 20.3376 92.5724 21.8336C91.6398 22.5912 89.7039 24.5923 88.8595 25.6713C86.9219 28.1472 85.288 31.418 85.0086 33.3805C84.9272 33.9516 84.9537 34.0242 85.2986 34.1802C85.835 34.4228 86.0806 34.1189 86.9044 32.1944C88.9874 27.3273 92.4081 23.2689 96.1085 21.2738C97.2739 20.6455 98.1333 20.3233 98.1333 20.5145C98.1333 20.6644 96.0515 23.8375 95.2737 24.8729C94.8783 25.3994 93.5155 26.908 92.2451 28.2251C88.812 31.7851 87.438 33.6151 87.7641 34.1933C87.9101 34.4522 88.634 34.5522 88.634 34.3136C88.634 34.1691 92.4541 29.9334 93.2297 29.2176L93.7087 28.7758L93.2127 29.5858C92.9399 30.0313 92.6754 30.429 92.6249 30.4695C92.5744 30.51 92.4863 30.6922 92.4288 30.8745C92.2626 31.4032 92.7174 31.2867 93.2918 30.6536C94.6867 29.1163 96.742 26.1597 97.6117 24.4395C98.2013 23.2733 99.0219 21.1226 99.0231 20.7404C99.0244 20.3283 99.3827 20.0271 100.043 19.8831L100.692 19.7415L100.598 20.4405C100.47 21.4027 99.7185 23.6514 99.1549 24.762C97.6382 27.7504 95.0882 30.8966 91.751 33.8974L90.4893 35.0319L90.8398 35.3281C91.4814 35.8704 91.7915 35.7294 93.6039 34.0706C95.8276 32.0354 97.7447 29.9982 98.7834 28.5669C100.493 26.2112 101.793 23.2455 102.128 20.9373C102.325 19.5831 102.239 18.8209 101.85 18.4713C101.43 18.0948 100.27 18.0629 99.0608 18.3947ZM62.7337 20.1067C61.8642 20.2012 59.2762 20.745 58.5035 20.9953C57.2112 21.4142 54.8344 22.6521 53.6509 23.5228C49.7145 26.419 47.4812 30.0646 46.543 35.126C46.4887 35.4191 46.3719 35.4425 44.5906 35.5175C42.5241 35.6044 41.2546 35.8892 39.3565 36.6916C37.0402 37.6707 35.5267 38.7142 33.5124 40.7203C29.8322 44.3857 28.2599 49.7929 29.2646 55.3293C30.1602 60.2648 32.7072 64.083 36.9983 66.9231C37.7831 67.4424 38.9455 68.1026 39.5815 68.3903C40.9962 69.0299 43.619 69.8663 44.6524 70.0074L45.416 70.1117L45.6728 71.1518C46.7023 75.3202 49.1301 78.7385 52.8565 81.2666C54.4693 82.3607 56.4153 83.3288 58.1823 83.916C61.9244 85.1595 67.0457 85.135 70.8971 83.855C74.0961 82.7918 76.5922 81.2585 79.0739 78.8322C80.9245 77.0227 82.5355 74.021 83.0551 71.4141L83.2165 70.6049L83.9586 70.4828C88.9169 69.6676 90.3359 69.243 92.6319 67.888C96.839 65.4052 99.7185 61.2084 100.581 56.3027C100.871 54.6511 100.872 51.3174 100.584 49.8199C99.8979 46.2629 98.2657 43.1471 95.7174 40.53C93.8576 38.6199 91.9788 37.3193 89.9699 36.5515C88.2303 35.8867 84.6152 35.2421 83.4073 35.3812L82.7075 35.4618L82.6211 34.9172C82.5735 34.6175 82.4997 34.1404 82.457 33.8569C82.0555 31.1932 80.1819 27.6074 78.0705 25.462C75.494 22.844 72.0088 20.9917 68.3738 20.3086C67.4278 20.1308 63.7286 19.9983 62.7337 20.1067ZM69.1902 22.5148C72.2092 23.4134 74.1429 24.5 76.165 26.4342C78.9459 29.0943 80.6491 32.5667 80.8785 36.0436L80.9595 37.2729L82.2364 37.2079C85.0534 37.0646 87.3668 37.5219 89.9035 38.7236C94.1274 40.7244 97.2726 44.9074 98.3147 49.9103C98.708 51.7989 98.6261 55.2982 98.1481 57.0205C97.1664 60.5581 94.6819 64.0198 91.6943 66.0129C89.265 67.6336 85.9607 68.7611 82.9196 69.0071C82.3482 69.0533 81.8643 69.105 81.8444 69.1221C81.8245 69.139 81.6368 69.8436 81.427 70.688C79.8702 76.9569 74.4633 81.667 67.4833 82.8349C65.4878 83.1688 61.9546 83.0629 60.1362 82.6146C57.5209 81.97 55.3362 80.9504 53.2344 79.3936C50.0742 77.0529 47.8841 73.4601 47.2274 69.5395L47.0493 68.4761L46.5055 68.3881C44.6812 68.0926 43.6423 67.8134 42.0027 67.1779C38.9871 66.0089 36.4305 64.1557 34.5901 61.8047C31.5787 57.9576 30.5186 53.0197 31.7066 48.3726C32.8553 43.8792 36.1425 40.1741 40.6033 38.3449C42.6485 37.5063 43.3412 37.3716 46.0645 37.2823L48.394 37.2059L48.4858 36.3783C49.0152 31.6021 51.4038 27.5843 55.3573 24.8197C58.353 22.725 61.2941 21.8914 65.3311 21.9931C67.3846 22.0448 67.7991 22.1008 69.1902 22.5148ZM62.8079 25.0289C56.3393 25.8149 51.1085 31.4462 50.6745 38.0912L50.5951 39.3062L48.5751 39.3074C45.5165 39.309 43.8773 39.6492 41.6571 40.7432C40.1375 41.492 38.9573 42.3738 37.7019 43.6979C36.3267 45.1485 35.5105 46.474 34.8743 48.2902C34.3943 49.6605 34.3842 49.7411 34.3842 52.1931C34.3842 54.4076 34.4245 54.8244 34.7323 55.8015C35.5078 58.2621 36.6138 60.1356 38.1924 61.6638C40.8674 64.2529 43.8089 65.6541 47.5161 66.1052C48.2078 66.1893 48.8169 66.2583 48.8696 66.2583C48.9223 66.2583 48.9747 66.6676 48.9861 67.1679C49.0605 70.4332 50.579 74.0906 52.7052 76.126C55.1698 78.4851 57.4227 79.8199 60.1362 80.5287C60.5035 80.6247 61.5388 80.8103 62.4368 80.9411C65.5217 81.3904 69.2019 80.7611 71.8619 79.3294C76.5202 76.8221 79.3519 72.635 79.6811 67.7679C79.7317 67.0187 79.8132 66.402 79.8622 66.3977C79.911 66.3933 80.5856 66.3639 81.3611 66.332C87.2687 66.0898 92.5897 62.6589 94.7039 57.7291C96.5972 53.3141 96.0243 48.6262 93.1325 44.8718C92.3698 43.8814 90.8744 42.4254 90.0652 41.8851C88.5276 40.8584 86.2691 39.9328 84.2888 39.5177C83.2277 39.2952 79.7972 39.2096 79.0819 39.3877C78.7396 39.4729 78.735 39.4569 78.6411 37.8804C78.4508 34.6839 77.0354 31.4971 74.77 29.1647C72.1992 26.518 69.1611 25.1473 65.4697 24.9685C64.6179 24.9272 63.4201 24.9543 62.8079 25.0289ZM66.7124 26.6572C68.0908 26.8694 69.9642 27.5292 71.1479 28.2192C72.3055 28.8939 73.9993 30.5364 74.7902 31.7508C76.4245 34.2606 77.2184 37.7617 76.7017 40.1799C76.5731 40.782 76.4957 41.3024 76.53 41.3363C76.5643 41.3703 76.9138 41.2963 77.3069 41.1717C79.9882 40.3223 83.4522 40.5288 86.4107 41.7145C87.8612 42.296 88.8941 42.9832 90.2992 44.3021C91.8293 45.7385 92.5418 46.8767 93.2559 49.0266C93.6732 50.2828 93.7206 50.6065 93.7191 52.1931C93.7172 54.2025 93.4901 55.2705 92.706 56.9561C90.9161 60.8045 87.0335 63.6327 82.5485 64.3551C81.4174 64.5375 78.8195 64.575 78.1059 64.4195L77.7139 64.3341L77.7725 65.782C77.9454 70.0538 76.1738 73.7062 72.6598 76.3232C70.4865 77.9416 69.0763 78.5111 66.398 78.8522C62.4493 79.355 58.6571 78.5095 56.121 76.5607C53.43 74.4931 52.1366 72.6877 51.1607 69.6374C50.8282 68.5982 50.7649 68.1396 50.7753 66.8474C50.7821 65.9968 50.8524 65.0359 50.9314 64.7118C51.1922 63.643 51.2247 63.6713 50.1174 64.0022C49.4632 64.1977 48.1422 64.2176 47.0824 64.0479C42.1572 63.2595 37.7945 59.451 36.6068 54.9031C35.1954 49.4984 38.0897 43.9256 43.4053 41.8136C46.4289 40.6123 49.4001 40.3799 51.997 41.1416C52.3777 41.2533 52.7204 41.3135 52.7588 41.2755C52.7971 41.2375 52.7645 40.9279 52.6861 40.5877C52.4345 39.4947 52.5166 37.1342 52.8507 35.8452C53.338 33.966 54.4426 31.9146 55.6876 30.577C57.4875 28.6431 58.624 27.8893 60.827 27.1687C62.7633 26.5352 64.7809 26.3598 66.7124 26.6572ZM19.0839 27.1547C18.7725 27.4637 18.7334 27.5772 18.8789 27.751C18.9776 27.8691 19.1808 27.9657 19.3304 27.9657C19.48 27.9657 20.7241 28.3278 22.0953 28.7703C24.5513 29.563 26.6952 30.4914 28.1503 31.3925C30.3031 32.7255 33.111 35.3138 33.9556 36.7437C34.1661 37.1001 34.3955 37.3916 34.4656 37.3916C34.8227 37.3916 35.349 37.0181 35.349 36.7646C35.349 36.4022 33.9158 34.2124 33.1128 33.3479C31.9646 32.1119 29.3735 30.1994 27.4824 29.192C25.5061 28.1391 22.2106 27.0592 20.3957 26.8698C19.5317 26.7796 19.4423 26.799 19.0839 27.1547ZM105.885 27.4523C101.3 28.6313 96.7724 31.5303 94.1733 34.9519C93.2155 36.2126 93.1275 36.4402 93.4573 36.8019C93.8653 37.2492 94.2015 37.1605 94.7116 36.4711C95.7122 35.1185 97.5783 33.4139 99.322 32.26C102.112 30.4132 104.19 29.4926 108.004 28.4126C108.902 28.1582 109.763 27.8267 109.917 27.6758C110.835 26.7763 108.925 26.6706 105.885 27.4523ZM62.975 28.1261C62.1155 28.2575 60.0584 28.9273 59.3198 29.3164C58.628 29.6808 57.1873 30.8767 56.4784 31.6748C55.6741 32.5804 54.6964 34.3139 54.2924 35.5506C53.4438 38.1476 53.8689 41.9382 55.2047 43.6878C55.6712 44.2988 55.4986 44.2925 54.5361 43.6636C52.9527 42.6288 51.187 42.0972 49.1187 42.0322C46.7158 41.9567 44.822 42.3271 43.0261 43.2236C42.4039 43.5342 40.554 44.9271 40.1729 45.3721C38.3803 47.4647 37.4626 50.029 37.6599 52.3936C37.8365 54.5107 38.3777 56.0663 39.5204 57.7419C41.6347 60.8422 45.3908 62.7186 49.4914 62.7224C50.8385 62.7237 51.5039 62.4934 51.9506 61.8707C52.4792 61.1341 52.414 61.0978 50.7482 61.1969C48.9406 61.3044 47.4331 61.0633 45.6532 60.3823C41.9431 58.9625 39.6106 55.9097 39.4015 52.2002C39.2597 49.6841 39.9612 47.8254 41.7037 46.1008C44.5743 43.2596 49.3887 42.7577 53.7476 44.8452C56.0111 45.9294 56.7858 46.4877 56.3135 46.6948C56.1134 46.7824 54.9661 48.6366 54.5932 49.4748C53.7911 51.2779 53.6053 52.1755 53.608 54.2337C53.6106 56.2052 53.7864 57.3648 54.3216 58.9438L54.613 59.8033L54.2051 60.2693C51.9012 62.9019 51.4742 66.9213 53.1269 70.4208C55.0529 74.4991 60.1827 76.7545 64.2743 75.3221C65.0472 75.0516 66.1685 74.2571 66.8255 73.5147C67.932 72.2642 68.4457 70.1946 67.9309 69.0617C67.4052 67.905 66.7777 68.2599 66.6147 69.8064C66.5068 70.8317 66.1084 71.6201 65.2624 72.483C63.9438 73.828 61.9906 74.2311 59.7305 73.6246C57.4912 73.0238 55.9403 71.8001 54.8798 69.7977C54.1604 68.439 53.9023 67.3431 53.9023 65.6459C53.9023 64.4205 53.9673 64.0338 54.3489 62.989C54.5947 62.3165 54.9184 61.5811 55.0686 61.3549L55.3416 60.9436L55.7115 61.4285C55.9148 61.6953 56.2293 62.4106 56.4104 63.0181C57.5004 66.677 58.5866 68.4479 60.5227 69.7232C61.9488 70.6623 63.726 70.9821 64.5486 70.4473C65.1328 70.0675 64.7269 69.6656 63.4281 69.3383C61.5614 68.8679 60.2462 67.7044 59.1146 65.5219C58.4412 64.2232 58.258 63.6073 58.5449 63.6073C58.6525 63.6073 59.3124 64.1953 60.0114 64.9141C62.1327 67.0954 63.7777 67.7733 66.909 67.7568C69.3791 67.7439 71.5386 67.0615 73.2559 65.7513L73.9818 65.1974L73.9054 66.5748C73.8116 68.2623 73.372 69.4343 72.3022 70.8489C71.1677 72.3488 70.3044 72.9829 67.0911 74.676C66.7517 74.8549 66.5246 75.0954 66.481 75.3225C66.4151 75.6644 66.4488 75.6841 67.0987 75.6841C68.047 75.6841 69.6775 75.2116 70.9599 74.5651C73.0466 73.5132 74.7571 71.3291 75.4288 68.8589C75.6936 67.8853 75.7331 67.433 75.6672 66.1282C75.6237 65.2683 75.5455 64.2962 75.4934 63.9681C75.4121 63.4566 75.4735 63.2446 75.9253 62.48C76.6017 61.3346 77.1473 59.6678 77.3754 58.0492C77.5202 57.023 77.627 56.7034 77.9138 56.4396C78.5143 55.8875 79.4922 55.6735 81.4941 55.6561C83.6169 55.6377 84.2626 55.4551 84.4211 54.8284C84.5053 54.4955 84.4478 54.3652 84.0925 54.0829C83.5385 53.6429 82.9057 53.5136 81.4353 53.5399C80.1187 53.5633 79.2925 53.8082 78.3102 54.4661C77.9518 54.7062 77.6355 54.8562 77.6074 54.7997C77.5792 54.7431 77.5414 54.4318 77.5231 54.1078C77.3973 51.8707 76.15 48.9063 74.5141 46.9557C72.9262 45.0623 70.1741 43.349 68.0086 42.9056C66.2818 42.552 63.4802 42.6302 61.9271 43.0755C60.9692 43.3502 59.1122 44.2604 58.2825 44.862L57.6904 45.2913L56.9378 44.103C55.8488 42.3835 55.5322 41.5396 55.3575 39.8906C55.1553 37.9804 55.4338 36.5097 56.3467 34.6669C57.4507 32.4383 59.0551 30.9601 61.4076 30.0034C62.4806 29.5671 62.754 29.5194 64.4854 29.4665C66.2104 29.4139 66.4976 29.4437 67.6023 29.7895C70.3846 30.6607 72.2498 32.4003 73.262 35.0684C74.1556 37.4243 74.0562 40.8824 73.0378 42.863C72.5029 43.9037 72.8011 44.5784 73.574 44.0759C74.5016 43.4727 75.2806 41.4201 75.3842 39.3062C75.5192 36.5492 74.8132 34.1372 73.2639 32.0632C71.3557 29.5086 68.7779 28.1712 65.5174 28.044C64.6394 28.0096 63.4954 28.0468 62.975 28.1261ZM110.23 29.6502C107.733 30.2766 106.675 30.6652 104.544 31.7371C102.006 33.0139 99.5509 34.6073 97.6177 36.2328C96.4847 37.1854 96.2042 37.4991 96.206 37.8116C96.209 38.3037 96.3626 38.5379 96.6532 38.4931C96.7779 38.474 97.6462 37.88 98.5827 37.1732C99.5192 36.4664 100.853 35.5568 101.547 35.1516C102.241 34.7466 102.909 34.3294 103.031 34.2244C103.748 33.6104 107.6 31.8819 109.445 31.3465L109.848 31.2297L109.46 31.839C108.486 33.3701 105.611 35.369 102.586 36.6188C100.799 37.357 97.9331 38.7254 97.6509 38.9749C97.5081 39.1012 97.3912 39.2984 97.3912 39.4132C97.3912 39.6603 97.7472 40.0426 97.9773 40.0426C98.0665 40.0426 99.0898 39.6192 100.251 39.1017C101.413 38.584 103.019 37.8789 103.821 37.5346C107.496 35.9562 109.981 33.8363 110.671 31.6893C110.941 30.8502 111.026 30.8062 112.531 30.7261C113.154 30.6928 113.195 30.7134 113.15 31.0347C113.031 31.8757 111.305 34.1456 109.726 35.5369C107.672 37.3474 104.039 39.2101 99.9144 40.5687C99.2205 40.7973 98.623 41.0064 98.5864 41.0334C98.5498 41.0605 98.6316 41.2702 98.768 41.4992C98.9044 41.7284 98.9678 41.9668 98.9087 42.029C98.629 42.3234 101.029 41.6639 103.522 40.7609C106.461 39.6968 109.209 38.0837 111.516 36.0686C113.071 34.7107 114.648 32.1872 114.848 30.7356C114.932 30.1299 114.898 30.0073 114.56 29.6712C114.204 29.3181 114.085 29.2921 112.871 29.303C112.04 29.3106 111.081 29.4365 110.23 29.6502ZM14.868 29.6228C14.1389 29.8818 13.917 30.397 14.142 31.3082C14.511 32.8034 15.6557 34.6179 17.112 36.0166C20.0172 38.8065 22.9136 40.3076 27.9087 41.6114L29.8982 42.1307L30.2696 41.7622C30.474 41.5596 30.6055 41.3019 30.5621 41.1896C30.5186 41.0774 29.9249 40.8105 29.2425 40.5965C22.9165 38.6136 20.6079 37.3931 17.9601 34.6323C16.9341 33.5625 15.6155 31.5776 15.6103 31.0954C15.6079 30.8724 16.3589 30.8539 17.1021 31.0588C17.575 31.1891 17.6896 31.3283 18.1803 32.3685C19.3128 34.7692 21.7481 36.4328 27.4824 38.7233C31.462 40.3129 31.0405 40.1926 31.675 39.9189C32.1316 39.722 32.2732 39.554 32.4652 38.9802C32.5939 38.5958 32.657 38.1493 32.6055 37.9881C32.4679 37.558 30.4288 35.7353 28.8925 34.6693C27.1259 33.4435 24.2757 31.8345 22.5079 31.0652C19.8622 29.9138 16.0656 29.197 14.868 29.6228ZM21.6107 32.3034C23.4086 33.0508 24.4467 33.5905 26.4089 34.798C28.6695 36.1892 29.1657 36.5369 30.3165 37.5362C31.2875 38.3795 32.6851 39.8208 32.0698 39.3444C31.94 39.2438 31.7952 39.1996 31.7482 39.2463C31.7013 39.293 30.9059 38.9321 29.9807 38.4445C29.0557 37.9569 27.2457 37.0935 25.9587 36.5259C24.6717 35.9583 23.0638 35.1614 22.3856 34.7549C21.1442 34.0108 19.1522 32.2532 18.9675 31.7389C18.878 31.4892 18.9255 31.471 19.449 31.5541C19.7686 31.6047 20.7412 31.942 21.6107 32.3034ZM114.452 35.0842C113.231 36.7835 111.22 38.5828 109.479 39.5344C109.076 39.7545 108.679 39.9849 108.597 40.0463C107.673 40.7406 104.027 42.1444 101.512 42.7746C100.674 42.9844 99.929 43.2141 99.8559 43.2848C99.6483 43.4863 100.026 44.2196 100.434 44.4089C101.259 44.7907 105.026 43.635 108.4 41.9649C111.002 40.6772 112.081 39.9279 113.741 38.2567C115.455 36.5302 116.172 34.7362 115.194 34.623C114.905 34.5896 114.728 34.6993 114.452 35.0842ZM13.0689 35.3596C12.9334 35.6111 13.0149 35.8132 13.5839 36.6355C14.6229 38.137 15.9135 39.3456 17.8493 40.6294C20.5111 42.395 22.5719 43.3059 25.7003 44.1C28.2452 44.7458 28.4987 44.7474 28.9296 44.1194C29.493 43.2982 29.4292 43.2381 27.5937 42.8617C22.6614 41.8497 18.7613 39.8562 15.523 36.6911C13.9259 35.1303 13.3586 34.8225 13.0689 35.3596ZM63.8489 37.2763C63.4868 37.8673 63.3471 38.7539 63.4323 39.922C63.4874 40.6775 63.5635 40.8795 63.9033 41.1695C64.643 41.8008 65.3759 41.4774 65.7558 40.3521C66.1197 39.274 65.8401 37.5785 65.2183 37.0932C64.6589 36.6565 64.1904 36.7191 63.8489 37.2763ZM78.9831 42.1008C76.5953 42.4067 73.7113 43.9971 74.1972 44.7398C74.4005 45.0507 74.4801 45.0352 76.3761 44.3147C78.4066 43.5433 79.0682 43.433 81.2869 43.4969C84.2618 43.5823 86.2493 44.3825 88.1601 46.264C90.9407 49.0019 91.2827 53.2879 89.0091 56.9074C87.2617 59.6892 84.0445 61.3894 79.6796 61.8375C77.7953 62.0311 77.5458 62.0997 77.4537 62.4496C77.3358 62.8968 77.954 63.0576 79.8027 63.061C86.5871 63.0732 91.6682 58.8286 92.1192 52.7725C92.2543 50.9592 91.9503 49.4876 91.0782 47.7346C89.0434 43.6439 84.2752 41.4229 78.9831 42.1008ZM67.9903 44.8335C70.9069 45.7136 73.0631 47.5488 74.3876 50.2785C75.3128 52.1849 75.6267 53.4409 75.6212 55.2123C75.6135 57.7201 74.9511 60.2237 73.8342 61.9673C72.7964 63.5872 70.7818 65.1415 68.9912 65.7038C68.1138 65.9792 67.5922 66.0374 65.999 66.0374C64.083 66.0374 64.0625 66.0338 63.0712 65.5219C61.8042 64.8677 57.8239 61.3757 57.0834 60.2687C55.8214 58.3822 55.4608 57.0619 55.4608 54.3287C55.4608 51.9593 55.5844 51.4143 56.5466 49.5421C57.3379 48.0028 59.104 46.311 60.7801 45.4868C61.4909 45.1373 62.4883 44.7654 62.9967 44.6604C64.1847 44.415 66.9175 44.5097 67.9903 44.8335ZM61.898 47.5911C61.3568 47.7789 60.5553 48.2073 60.1169 48.5431C57.1371 50.8255 57.1564 55.9068 60.1549 58.5825C60.6055 58.9846 60.8783 59.3506 60.8783 59.5531C60.8783 60.1586 61.7533 61.6445 62.4372 62.2006C63.4446 63.0197 64.5471 63.3457 66.0853 63.2794C67.6289 63.2127 68.7553 62.7329 69.7487 61.7185C70.9023 60.5408 71.3798 59.2768 71.5113 57.0533C71.6143 55.3134 71.2889 53.7541 70.4606 52.0179C69.4744 49.9507 68.2279 48.655 66.4158 47.8135C65.0346 47.1721 63.3456 47.089 61.898 47.5911ZM14.4951 48.3867C14.3319 48.421 14.0499 48.4804 13.8686 48.5187C13.6872 48.557 13.4691 48.7178 13.3837 48.8761C13.1716 49.2692 13.6004 49.5325 15.0531 49.9012C16.5823 50.2893 21.8629 51.1963 24.1428 51.4626C24.551 51.5103 25.3665 51.6445 25.9548 51.7607C27.5381 52.0737 27.4824 52.0955 27.4824 51.1622V50.3521L26.9258 50.352C26.2083 50.3517 18.4265 48.9866 18.1397 48.8107C18.0339 48.7458 14.8327 48.2628 14.8033 48.3073C14.797 48.3168 14.6584 48.3524 14.4951 48.3867ZM110.23 48.876C107.949 49.1324 106.624 49.3732 102.326 50.3134C102.052 50.3734 101.992 50.4857 101.992 50.9404C101.992 51.6644 102.236 51.8622 102.895 51.6728C103.812 51.4087 107.657 50.8066 110.378 50.5006C114.135 50.0784 115.926 49.5389 115.378 48.995C115.159 48.7773 111.8 48.6997 110.23 48.876ZM65.2792 49.0848C67.2265 49.5993 68.8166 51.5067 69.4962 54.1433C70.2369 57.0173 69.4351 60.035 67.6121 61.233C66.0338 62.2704 63.6931 61.7559 62.8689 60.1904C62.5753 59.6326 62.6122 58.3489 62.9426 57.627C63.0949 57.2944 63.5276 56.7667 63.9041 56.4544C65.0268 55.5231 64.7485 54.7779 63.451 55.2409C62.7127 55.5044 62.6225 55.4449 62.3768 54.5327C61.9624 52.9948 62.8837 51.5503 64.1697 51.7214C64.9842 51.8298 65.6838 52.4183 66.173 53.407C66.557 54.1829 66.5926 54.393 66.5908 55.8751C66.5886 57.7349 66.3388 58.4158 65.3909 59.1454C65.0967 59.3718 64.715 59.6653 64.5424 59.7976C64.2687 60.0073 64.2512 60.0871 64.4057 60.4235C64.6616 60.9808 65.389 60.9481 66.2365 60.3413C67.0548 59.7556 67.1902 59.5923 67.6521 58.6354C69.1201 55.5928 67.4962 51.0089 64.7156 50.347C63.4026 50.0345 62.3466 50.4281 61.414 51.5779C61.015 52.0697 60.9502 52.2781 60.9022 53.2226C60.8423 54.4004 61.0046 55.069 61.5408 55.8532L61.8882 56.3611L61.5079 56.8913C61.2988 57.1829 61.0683 57.4215 60.9957 57.4215C60.7507 57.4215 59.8515 55.2932 59.7047 54.3655C59.5333 53.2827 59.7124 51.9095 60.1298 51.1075C61.0403 49.358 63.1605 48.525 65.2792 49.0848ZM47.9201 50.6499C47.384 51.0688 47.4423 51.4927 48.0962 51.9288C49.0637 52.5741 50.581 52.7417 52.047 52.3649C52.8111 52.1685 53.3136 51.6238 53.0094 51.3218C52.7253 51.0399 50.5266 50.4697 49.4495 50.3984C48.4614 50.333 48.2896 50.3613 47.9201 50.6499ZM116.687 50.8092C116.238 50.9716 115.636 51.1641 115.349 51.2367C115.062 51.3093 114.561 51.4794 114.236 51.6146C113.107 52.0836 110.598 52.6174 105.571 53.4587C102.383 53.992 102.23 54.0562 102.169 54.882C102.144 55.2284 102.189 55.5069 102.271 55.5069C102.352 55.5069 102.974 55.3741 103.653 55.2118C106.734 54.4748 111.42 54.4973 115.351 55.2682C121.225 56.4202 127.259 58.8011 127.049 59.884C126.974 60.2689 125.883 61.0172 124.659 61.5228C122.059 62.5968 118.171 63.2526 115.277 63.1053C114.297 63.0555 113.328 62.9871 113.124 62.9533C112.92 62.9195 112.433 62.8517 112.042 62.8028C111.651 62.7538 110.983 62.6454 110.558 62.562C110.133 62.4787 109.613 62.386 109.402 62.3563C108.659 62.2512 105.306 61.2617 103.194 60.5244C102.018 60.1139 101.034 59.778 101.007 59.778C100.981 59.778 100.824 60.0407 100.659 60.3618C100.309 61.0431 100.219 60.9555 101.992 61.6559C103.807 62.3728 106.529 63.1694 107.932 63.3946C108.985 63.5637 113.305 64.4058 114.868 64.7469C116.077 65.0107 113.962 65.2412 111.269 65.1392C106.928 64.9749 103.945 64.4196 100.914 63.2124C100.198 62.9273 99.5301 62.7264 99.4295 62.766C99.3289 62.8056 99.1282 63.0404 98.9835 63.2875C98.7291 63.7227 98.73 63.7458 99.0147 64.009C99.3988 64.364 101.363 65.1463 102.586 65.4313C106.579 66.3618 110.539 66.6132 114.657 66.1979C115.875 66.0749 116.81 66.0519 117.254 66.134C118.132 66.296 119.546 66.8704 119.397 67.0044C119.174 67.2044 117.773 67.5816 116.316 67.834C115.15 68.0359 113.955 68.0917 110.75 68.0942C106.806 68.0975 106.602 68.0833 104.738 67.6779C102.783 67.2525 101.245 66.7254 99.1031 65.7463L97.9208 65.2058L97.5115 65.6952C97.2864 65.9644 97.1006 66.2667 97.0983 66.3668C97.094 66.5656 98.5358 67.3213 100.063 67.9206C101.535 68.4982 104.116 69.1633 105.87 69.4174C108.937 69.8613 115.338 69.6292 117.919 68.9806C119.194 68.6601 120.902 67.9171 121.279 67.519C121.552 67.231 121.581 67.1159 121.444 66.8623C121.293 66.5817 118.744 65.2273 118.368 65.2273C118.279 65.2273 118.124 65.1279 118.022 65.0064C117.921 64.8849 117.88 64.7855 117.932 64.7855C117.983 64.7855 118.676 64.6817 119.471 64.5548C122.507 64.0704 126.345 62.734 127.654 61.7053C129.873 59.9617 129.49 59.1737 125.444 57.1582C122.294 55.5892 118.643 54.4275 115.202 53.9001C114.59 53.8063 113.863 53.6939 113.587 53.6506C112.929 53.5471 113.137 53.3789 114.277 53.0936C116.397 52.5631 118.374 51.4726 118.289 50.8815C118.229 50.4633 117.707 50.4398 116.687 50.8092ZM11.2995 51.1675C11.1411 51.3569 11.1805 51.467 11.5412 51.8438C12.0513 52.3766 12.7593 52.7559 14.2725 53.307C15.5316 53.7655 15.5767 53.7306 13.2335 54.1119C9.96873 54.6431 7.33431 55.4059 4.47637 56.6477C1.39994 57.9844 0.263438 58.7967 0.0295181 59.8254C-0.25739 61.0879 1.55638 62.4406 5.07007 63.5847C6.33719 63.9972 9.89867 64.7855 10.4958 64.7855C10.6254 64.7855 10.8289 64.8821 10.9477 65.0001C11.1373 65.1881 11.007 65.2902 9.89748 65.8232C8.73219 66.3829 8.18539 66.8269 8.18806 67.2116C8.18969 67.4618 9.15832 68.0377 10.2257 68.4231C12.4716 69.234 15.6768 69.6642 19.4359 69.6595C22.7384 69.6554 24.2567 69.4498 27.6309 68.5501C28.2634 68.3813 30.1048 67.6259 31.4528 66.9821C32.7511 66.3621 32.9742 66.2042 32.9742 65.9051C32.9742 65.3987 32.4731 64.8224 32.212 65.0285C31.9361 65.2463 29.3783 66.3773 28.373 66.726C25.4238 67.749 22.5977 68.1999 19.1691 68.1943C16.4276 68.1897 14.8131 68.042 12.5859 67.5917C10.7518 67.2209 10.3294 67.0517 10.5574 66.779C10.6543 66.6631 11.0312 66.4556 11.3947 66.3178C11.957 66.1047 12.282 66.0871 13.5722 66.1997C14.4064 66.2724 16.6918 66.3278 18.6511 66.3228C23.3255 66.3107 25.915 65.9276 29.1384 64.7715C30.3093 64.3515 31.2977 63.9813 31.335 63.9491C31.4331 63.8638 30.86 62.8477 30.6739 62.7769C30.5874 62.744 29.7398 62.9807 28.7905 63.3031C26.7281 64.0033 25.796 64.226 23.2493 64.6273C20.5266 65.0562 20.4607 65.0622 17.1668 65.1743C14.4463 65.2668 14.2148 65.2554 14.3958 65.0378C14.6002 64.792 15.0945 64.6744 19.0963 63.9211C20.4025 63.6751 22.3061 63.2441 23.3265 62.9632C25.0799 62.4804 28.6513 61.2461 29.098 60.9683C29.5421 60.6924 28.876 59.5114 28.3909 59.7145C27.4665 60.1019 24.108 61.231 22.4641 61.7073C18.5408 62.844 16.7494 63.0966 12.714 63.0822C8.64818 63.0675 5.63172 62.4277 3.17318 61.0586C1.39608 60.0689 1.51289 59.6672 3.97721 58.2939C5.25976 57.5791 9.79655 56.0627 11.7492 55.6962C11.9533 55.6577 12.7805 55.4998 13.5874 55.345C14.3942 55.1903 16.2271 54.9583 17.6605 54.8296C20.5249 54.5723 22.2357 54.6618 25.1818 55.2233C25.9982 55.3788 26.8877 55.5062 27.1584 55.5065C27.601 55.5069 27.6404 55.4733 27.5468 55.1755C27.2203 54.1356 27.1789 54.0877 26.5052 53.9734C25.6083 53.8213 21.7299 53.3097 20.8032 53.2213C18.698 53.0202 14.7135 52.0514 12.9318 51.3074C11.9164 50.8834 11.5625 50.853 11.2995 51.1675ZM106.742 55.909C105.745 55.9816 103.99 56.2685 103.227 56.4834C102.273 56.7523 101.724 57.1698 101.441 57.843C101.243 58.3132 101.246 58.3796 101.471 58.5429C101.608 58.6422 102.065 58.8037 102.487 58.902C102.909 59.0002 104.256 59.4002 105.48 59.7911C111.359 61.6676 115.315 62.2264 119.117 61.7174C121.772 61.362 124.81 60.4371 125.176 59.8727C125.53 59.3263 120.59 57.7495 115.202 56.6897C112.61 56.1798 108.38 55.7894 106.742 55.909ZM18.7253 55.9876C18.6845 56.0278 18.0833 56.1025 17.3894 56.1533C14.1698 56.3893 8.14784 57.8604 4.97656 59.1858C3.9309 59.6228 3.65958 59.9466 4.1335 60.1916C5.48448 60.8899 8.65842 61.6232 11.3129 61.8504C13.1403 62.0066 13.5111 61.9937 15.5383 61.7025C18.0563 61.3409 19.529 60.9926 23.3047 59.8661C24.7594 59.432 26.4268 58.9923 27.0103 58.8889C28.141 58.6884 28.351 58.4908 28.1388 57.8271C28.0347 57.5018 27.8812 57.3435 27.2282 56.8876C26.5475 56.4125 24.405 56.0753 21.5454 55.9932C20.0351 55.9498 18.7661 55.9473 18.7253 55.9876ZM24.885 57.442C26.0865 57.6349 26.123 57.6435 26.2413 57.7609C26.298 57.8173 26.2077 57.8634 26.0405 57.8634C25.6872 57.8634 19.7046 59.4379 17.6863 60.0622C16.7997 60.3363 13.6924 60.6618 11.9763 60.6601C10.3965 60.6586 7.01935 60.2388 6.25718 59.9491L5.88642 59.8083L6.29058 59.651C6.51292 59.5644 8.2829 59.1635 10.2239 58.7602C12.165 58.3566 14.1872 57.9288 14.7178 57.8093C15.6532 57.5986 18.3886 57.3133 20.358 57.2209C21.6427 57.1607 23.7845 57.2653 24.885 57.442ZM112.976 57.619C115.96 58.1448 121.711 59.3394 122.809 59.6614C123.494 59.8622 123.531 60.0717 122.883 60.0751C122.618 60.0765 121.8 60.1777 121.065 60.3C119.092 60.6281 115.491 60.7411 113.84 60.5268C112.148 60.3069 109.391 59.6625 106.816 58.8852C103.81 57.9777 103.395 57.8634 103.105 57.8634C102.625 57.8634 102.968 57.7111 103.94 57.4924C105.189 57.2114 111.135 57.2946 112.976 57.619ZM31.8917 67.8858C28.2729 69.4829 24.7834 72.4231 23.747 74.7482C23.4743 75.3598 23.4702 75.434 23.69 75.7669C23.8203 75.9644 24.0646 76.126 24.2328 76.126C24.962 76.126 27.8139 75.2772 29.1893 74.6508C32.3469 73.2128 36.2615 71.8591 38.5402 71.4172C41.1577 70.9096 41.5191 70.7423 40.8108 70.3662C39.903 69.8841 36.5113 70.3997 34.3494 71.3484C33.8993 71.546 33.4925 71.7076 33.4454 71.7076C33.3625 71.7076 34.7773 70.771 36.6605 69.5791C37.1663 69.2591 37.5573 68.9277 37.5293 68.8427C37.3333 68.2489 35.1001 69.0536 33.0484 70.4575C29.0897 73.1661 27.8207 73.8857 26.3001 74.2836C25.5652 74.476 25.5593 74.4748 25.7246 74.1682C26.0682 73.5312 28.3421 71.4973 29.7145 70.5993C31.2145 69.6178 34.2821 68.0256 34.6728 68.0256C34.7998 68.0256 34.9027 67.9428 34.9015 67.8415C34.8969 67.4686 34.6462 67.283 34.0772 67.2315C33.627 67.1908 33.1277 67.3403 31.8917 67.8858ZM95.1749 67.52C94.6922 67.728 94.6805 67.7498 94.9522 67.9372C95.11 68.0461 96.0314 68.5512 97.0001 69.0598C100.105 70.6897 103.144 73.2 103.538 74.4591C103.634 74.767 103.615 74.7741 103.075 74.6284C102.001 74.3386 99.88 73.1309 98.0833 71.7865C94.903 69.4068 93.5894 68.6753 92.9859 68.9482C92.7923 69.0357 92.6574 69.1775 92.6862 69.2632C92.7307 69.3959 94.8408 70.9703 95.7034 71.5147C96.0368 71.725 95.6956 71.6301 93.9774 71.0347C92.5123 70.5272 90.7828 70.1006 90.4546 70.1662C90.3105 70.195 89.9421 70.2584 89.6359 70.307C88.7017 70.4554 88.9463 70.7741 90.3115 71.1874C90.9891 71.3926 91.6575 71.5603 91.7964 71.5603C92.3156 71.5603 95.3285 72.7679 97.9914 74.0433C101.056 75.5112 102.857 76.126 104.092 76.126C105.029 76.126 105.406 75.8545 105.406 75.1792C105.406 74.766 105.044 73.8789 104.711 73.4749C104.61 73.3534 104.328 73.0004 104.084 72.6904C103.007 71.3251 99.606 68.8514 97.44 67.8584C96.0636 67.2275 95.9084 67.2042 95.1749 67.52ZM41.7313 71.5767C39.5244 71.8107 36.5648 72.7893 33.5548 74.2804C31.4303 75.333 30.7471 75.7622 29.1506 77.0472C25.8972 79.6662 23.048 84.6549 23.9906 86.082C24.2257 86.4381 24.3097 86.4651 24.9378 86.386C25.7682 86.2816 27.1093 85.7437 29.4894 84.5606C32.6321 82.9986 33.3024 82.6171 35.7201 81.0152C38.1517 79.4039 39.4116 78.4206 42.5688 75.6695C43.56 74.8059 44.457 74.0707 44.5621 74.0359C44.6737 73.9991 44.7132 73.8692 44.657 73.7238C44.3652 72.9693 39.7696 74.1288 36.6849 75.7352C34.2367 77.0102 31.8367 78.5985 29.7214 80.3436C28.107 81.6754 27.6622 82.2657 27.7622 82.9428C27.7898 83.1295 28.3317 82.7894 30.3465 81.3214C33.5373 78.9961 35.6889 77.637 37.6024 76.7382C40.3391 75.4526 40.8725 75.2171 41.3603 75.0797L41.8056 74.9542L41.4345 75.2527C41.2304 75.4169 40.6961 75.8254 40.2471 76.1604C39.7981 76.4955 39.1302 77.0143 38.7628 77.3133C37.7166 78.1649 33.6719 80.9862 33.4974 80.9862C33.4509 80.9862 33.164 81.1458 32.8598 81.341C31.332 82.3202 28.0589 83.9541 26.3145 84.6082C25.7945 84.8032 25.3467 84.9627 25.3193 84.9627C25.2918 84.9627 25.4362 84.5153 25.6402 83.9686C26.4944 81.6787 29.1371 78.6549 31.8865 76.8211C34.3479 75.1795 37.916 73.6352 40.8408 72.9455C41.8063 72.7179 43.8682 72.3035 44.2175 72.2669C44.4657 72.241 44.4541 71.7856 44.2 71.5764C43.9889 71.4027 43.3718 71.4027 41.7313 71.5767ZM85.6355 71.549C84.4865 71.6471 84.1321 71.8693 84.5164 72.2505C84.6823 72.4153 85.0639 72.5098 85.6698 72.5362C88.4077 72.6558 92.0722 73.9265 95.3132 75.8806C96.2435 76.4414 98.1357 77.8507 99.2648 78.8235C100.84 80.1808 103.328 83.7764 103.328 84.6955C103.328 85.0509 103.062 85.0089 101.547 84.4148C98.4453 83.1984 94.9506 81.1121 91.4661 78.3965C88.5062 76.0899 87.9783 75.6807 87.3872 75.2359C86.7595 74.7638 86.7625 74.7108 87.4025 74.9661C87.6308 75.0572 87.9513 75.1851 88.1145 75.2505C89.7457 75.9036 91.4881 76.754 92.7157 77.4965C93.8451 78.1796 99.153 81.9829 100.463 83.0478C100.664 83.2115 101.102 83.0911 101.102 82.8718C101.102 82.3265 97.1976 78.8706 94.7223 77.2249C91.0261 74.7674 85.8411 73.0131 83.8473 73.5452C83.432 73.6561 83.2809 73.9168 83.6321 73.9168C83.8914 73.9168 85.4565 75.0511 87.0013 76.3587C92.0319 80.6165 95.2852 82.8585 99.0304 84.6491C101.861 86.0025 102.651 86.2914 103.773 86.3836C104.818 86.4695 105.017 86.3318 104.986 85.5446C104.935 84.2553 104.302 82.7495 103.077 81.0013C100.996 78.0312 98.2293 75.7989 94.0502 73.7172C90.7037 72.0503 87.9809 71.3487 85.6355 71.549ZM42.2433 77.3569C37.2296 82.1843 35.4446 83.44 31.3415 85.0259C30.566 85.3256 29.7645 85.6394 29.5604 85.7232C29.3563 85.807 28.8284 86.0182 28.3871 86.1923C27.9458 86.3666 27.5163 86.6184 27.4326 86.752C27.1888 87.1405 27.6968 87.7386 28.6453 88.1798C29.4258 88.5429 29.6302 88.5709 31.4899 88.57C33.164 88.5691 33.673 88.5131 34.5836 88.2302C35.8752 87.8287 37.3504 87.0775 38.4289 86.2717C38.8575 85.9515 39.2081 85.7275 39.2081 85.7738C39.2081 85.8202 39.0821 86.1039 38.9279 86.4045C38.2779 87.6722 37.568 90.9443 37.6429 92.3266C37.6967 93.3159 37.9254 93.6521 38.5449 93.6521C39.2731 93.6521 40.029 92.9221 41.3518 90.9407C42.38 89.4011 45.6143 85.5253 48.1744 82.765C50.2155 80.5644 50.3089 80.3722 49.5368 79.9621C49.1663 79.7654 49.1188 79.7789 48.7394 80.1913C48.5175 80.4322 47.8685 81.125 47.2972 81.7308C43.6726 85.5733 41.239 88.3903 39.9548 90.2298C39.6007 90.7371 39.2796 91.1212 39.2413 91.0833C39.1018 90.9447 39.5538 88.9815 39.9891 87.8346C40.8795 85.4894 42.2793 83.4133 45.2026 80.1025C46.3112 78.8469 47.2192 77.7119 47.2206 77.5799C47.2219 77.4481 47.126 77.2603 47.0074 77.1627C46.6566 76.8737 45.2036 78.0272 42.5941 80.666C40.023 83.2659 38.8065 84.2973 37.1123 85.3138C35.1133 86.5132 32.8598 87.1521 30.8529 87.0885C29.3955 87.0423 29.4932 86.9672 32.4547 85.8561C36.4851 84.3441 39.5501 82.1155 43.5125 77.8157C46.0525 75.0592 45.9861 75.1529 45.6565 74.7915C45.5132 74.6343 45.3528 74.5059 45.3001 74.5059C45.2474 74.5059 43.8718 75.7888 42.2433 77.3569ZM83.0925 74.7517C83.0134 74.8301 83.2839 75.5461 83.4447 75.6841C83.4919 75.7246 84.1927 76.4868 85.002 77.3778C88.0755 80.7617 90.2265 82.7431 92.1498 83.9615C93.7209 84.957 95.8579 85.9014 97.9107 86.5075C100.124 87.161 100.087 87.1421 99.2465 87.1798C96.5667 87.2999 94.7082 86.904 92.4564 85.7333C90.4954 84.7136 89.1921 83.6295 85.9623 80.3312C85.0236 79.3724 83.8004 78.222 83.2442 77.7747L82.2328 76.9613L81.84 77.3513L81.4469 77.7412L83.0805 79.4006C86.5234 82.8978 87.6626 84.5129 88.7035 87.3726C89.1434 88.5812 89.3143 89.2501 89.585 90.8244C89.7052 91.5237 89.5048 91.3318 88.4115 89.7006C86.9479 87.5172 84.5569 84.6257 82.3087 82.3206C81.1896 81.1733 80.1466 80.1668 79.9912 80.0844C79.6499 79.9031 78.9863 80.2698 78.9863 80.6396C78.9863 80.7694 79.9716 81.8801 81.1756 83.108C83.3204 85.2951 85.6692 88.2215 87.7473 91.2957C88.9555 93.0831 89.5494 93.6521 90.206 93.6521C90.8689 93.6521 91.0099 93.348 91.0042 91.9313C90.9974 90.2023 90.7682 88.7722 90.2716 87.3592C90.026 86.6602 89.8421 86.0713 89.8631 86.0505C89.8842 86.0296 90.3676 86.3126 90.9374 86.6794C92.2863 87.5476 93.3026 87.9941 94.9421 88.4394C97.344 89.0915 99.8403 88.8775 100.916 87.9273C101.663 87.2675 101.564 87.0116 100.323 86.3963C99.7308 86.1031 98.6915 85.6608 98.0131 85.4134C96.4936 84.8593 94.3891 83.8213 93.0954 82.9877C91.543 81.9875 90.4959 81.0915 87.3472 78.0691C85.7209 76.5083 84.2265 75.1473 84.0261 75.0448C83.4597 74.7549 83.1783 74.6666 83.0925 74.7517ZM50.8968 81.9838C50.7732 82.1236 50.3677 82.7126 49.996 83.2924C48.2854 85.9617 47.2645 87.0521 44.6631 88.9893C42.4947 90.6039 42.0451 91.1487 42.8816 91.1481C43.766 91.1474 46.8647 89.1372 48.5625 87.4629C50.2048 85.8433 52.0943 82.5182 51.6196 82.0828C51.2667 81.7592 51.1141 81.7383 50.8968 81.9838ZM77.1981 81.952C77.0366 82.1451 77.104 82.3685 77.6221 83.3575C79.2406 86.4467 81.6372 88.8391 85.3367 91.0583C87.2887 92.2291 86.9298 90.9587 84.8837 89.4547C82.5432 87.7343 80.1479 85.1518 78.361 82.4221C77.8868 81.6978 77.531 81.5539 77.1981 81.952ZM52.4784 83.8949C50.9832 86.6087 49.9637 88.0454 48.7166 89.1955C47.0529 90.7298 44.133 92.2743 42.2606 92.6104C41.7763 92.6973 41.3635 92.7685 41.3437 92.7685C41.2504 92.7685 40.8408 93.2452 40.8408 93.3538C40.8408 93.5729 41.7561 93.7994 42.6422 93.7994C43.8274 93.7994 45.9835 93.092 47.3715 92.2478C47.9838 91.8755 48.9652 91.1001 49.5522 90.5248L50.6198 89.479L50.6044 91.7496C50.5835 94.851 50.8616 96.3677 51.7088 97.7727C52.3515 98.8381 52.7089 98.9612 53.85 98.5094C54.9604 98.0698 57.1613 95.9465 57.9373 94.5662L58.4585 93.639L58.5468 94.8809C58.752 97.7664 59.8108 100.059 61.261 100.758C61.8793 101.056 61.9651 101.065 62.3323 100.86C62.9055 100.541 62.8813 100.291 62.2042 99.5433C61.4658 98.7271 60.8213 97.6325 60.4123 96.4999C60.1761 95.8456 60.0837 95.1516 60.0252 93.5929C59.9394 91.3072 60.0725 90.2901 60.7587 87.9891C61.2268 86.419 61.1853 85.8464 60.6028 85.8464C60.2055 85.8464 60.0774 86.0486 59.5739 87.4698C58.1422 91.5117 56.3348 94.4224 54.1153 96.2609C53.2348 96.9901 52.9372 97.1653 52.848 97.0072C52.7839 96.8935 52.5777 96.2412 52.3898 95.5576C52.0945 94.4835 52.0488 93.9751 52.0526 91.8112C52.058 88.9005 52.1632 88.3212 53.1974 85.5126C53.9205 83.549 53.9357 83.4761 53.6776 83.193C53.5309 83.0323 53.3245 82.9008 53.2186 82.9008C53.1128 82.9008 52.7797 83.3482 52.4784 83.8949ZM75.0524 83.2322L74.6643 83.5635L75.133 84.6681C76.1978 87.1767 76.4499 87.9071 76.7593 89.3811C77.2298 91.6218 77.2239 95.3358 76.7503 95.0454C76.3425 94.7953 76.0178 93.7735 76.0166 92.7375C76.0145 90.6662 75.4566 88.4074 74.2995 85.7858C73.5861 84.1696 73.4098 84.0058 72.8332 84.4242C72.5762 84.6107 72.574 84.6602 72.795 85.2711C74.0462 88.7316 74.4032 89.8476 74.675 91.1491C74.8483 91.9795 74.964 92.6851 74.9318 92.7171C74.8712 92.777 74.5043 91.9992 73.0453 88.7183C71.6938 85.6792 71.5916 85.474 71.2943 85.207C71.0721 85.0075 70.9303 84.9854 70.621 85.1022C70.4055 85.1835 70.2292 85.2779 70.2292 85.312C70.2292 85.3461 70.433 85.8614 70.682 86.457C70.9311 87.0527 71.2734 87.9046 71.4427 88.3501C71.937 89.6503 73.8932 93.6256 74.444 94.4491C75.0305 95.3257 76.2053 96.4578 76.8963 96.8125C77.8319 97.2926 78.2657 96.6001 78.5305 94.2041C78.6 93.5763 78.6348 92.8473 78.608 92.5841C78.5811 92.321 78.5238 91.7081 78.4808 91.222C78.4377 90.736 78.3598 90.1064 78.3077 89.8229L78.2129 89.3074L78.7827 89.9522C79.514 90.7796 81.5168 92.328 82.4776 92.8084C83.8452 93.4923 85.0549 93.8046 86.3745 93.8143C87.7092 93.824 88.3992 93.5655 88.3072 93.0906C88.2701 92.8988 87.9204 92.7839 86.7768 92.5878C85.9615 92.4478 84.9939 92.2225 84.6265 92.087C81.5631 90.9569 78.4602 87.8969 76.3942 83.9686C76.0853 83.3814 75.7444 82.9008 75.6366 82.9008C75.5289 82.9008 75.266 83.05 75.0524 83.2322ZM54.8019 85.0163C53.6256 87.6178 53.0926 89.9478 53.096 92.4739C53.0989 94.5196 53.2967 95.3472 53.6897 94.957C54.1493 94.5011 57.3964 88.0796 57.9819 86.4689C58.4648 85.1409 58.4573 85.011 57.8948 84.9291L57.4345 84.8621L55.8629 88.0754C54.9986 89.8429 54.2729 91.2708 54.2506 91.2485C54.1635 91.1621 54.9405 88.3112 55.5195 86.5928C56.1927 84.5954 56.2384 84.2995 55.8939 84.1684C55.3842 83.9743 55.213 84.1071 54.8019 85.0163ZM64.0695 85.9939C63.4249 86.1327 63.0406 86.3673 62.5929 86.895C61.5497 88.1255 60.9794 90.0152 60.9985 92.1794C61.0121 93.694 61.0431 93.9089 61.4122 95.0386C62.0631 97.0306 63.5126 98.9542 64.3626 98.9542C65.3445 98.9542 66.9763 96.4503 67.4912 94.1535C68.3635 90.2636 66.3656 85.4995 64.0695 85.9939ZM67.9293 86.0486C67.6434 86.2559 67.647 86.2916 68.1548 88.2988C68.6532 90.2693 68.6704 90.4306 68.6637 93.063C68.657 95.6774 68.6403 95.8292 68.2496 96.8148C67.7614 98.0469 67.1669 98.9959 66.4526 99.6826C65.8454 100.267 65.8288 100.332 66.195 100.695C66.9684 101.462 68.8078 100.196 69.4798 98.4341C69.8752 97.3969 70.2166 95.6438 70.2244 94.6095L70.2301 93.8731L70.821 94.7567C72.5387 97.3257 75.1452 99.0138 76.5288 98.4536L76.9741 98.2733L76.6072 97.9422C76.4055 97.7602 75.726 97.2192 75.0973 96.7401C72.6671 94.8883 70.5654 91.6702 69.4881 88.1517C68.7894 85.8695 68.575 85.5801 67.9293 86.0486ZM64.9841 87.7242C66.3818 89.4794 66.5651 93.225 65.318 94.5497C65.0034 94.884 64.7853 94.9777 64.3221 94.9777C63.8332 94.9777 63.6512 94.8894 63.2842 94.4748C62.6213 93.7255 62.4631 93.0817 62.5432 91.458C62.6246 89.8068 63.0715 88.6682 63.9322 87.9183C64.5292 87.3982 64.6996 87.3667 64.9841 87.7242ZM64.7622 96.4862C65.2398 96.3073 65.2823 96.3909 64.9516 96.8594C64.6437 97.2957 64.2098 97.2729 63.7655 96.7971C63.2711 96.2677 63.3082 96.1323 63.8716 96.4111C64.2388 96.5929 64.4336 96.6094 64.7622 96.4862Z" fill="var(--fill-0, #F3E8DD)"/>
</svg>
