<svg preserveAspectRatio="none" width="100%" height="100%" overflow="visible" style="display: block;" viewBox="0 0 33 38" fill="none" xmlns="http://www.w3.org/2000/svg">
<g id="Playstore">
<path id="path94" d="M15.4076 18.1477L0.140801 34.8427C0.142234 34.8457 0.142234 34.8501 0.143668 34.8531C0.612554 36.6659 2.21853 38 4.12562 38C4.88845 38 5.60397 37.7872 6.21768 37.4149L6.26644 37.3854L23.4503 27.1689L15.4076 18.1477Z" fill="var(--fill-0, #EA4335)"/>
<path id="path98" d="M30.852 15.3048L30.8377 15.2945L23.4187 10.8636L15.0604 18.5271L23.4488 27.1672L30.8276 22.7806C32.121 22.0596 33 20.6546 33 19.0353C33 17.4249 32.1339 16.0273 30.852 15.3048Z" fill="var(--fill-0, #FBBC04)"/>
<path id="path102" d="M0.140523 3.15608C0.0487527 3.50476 0 3.87116 0 4.24939V33.7509C0 34.1291 0.0487527 34.4955 0.141956 34.8427L15.9321 18.5746L0.140523 3.15608Z" fill="var(--fill-0, #4285F4)"/>
<path id="path106" d="M15.5203 18.9999L23.4211 10.8607L6.25731 0.607226C5.63356 0.221615 4.90514 1.13848e-07 4.12653 1.13848e-07C2.21943 1.13848e-07 0.610595 1.33708 0.141709 3.15138C0.141709 3.15285 0.140275 3.15433 0.140275 3.15581L15.5203 18.9999Z" fill="var(--fill-0, #34A853)"/>
</g>
</svg>
