<svg width="960" height="960" viewBox="0 0 960 960" fill="none" xmlns="http://www.w3.org/2000/svg">
<path d="M449.124 169.491C443.641 171.639 437.788 177.641 435.639 183.272C434.305 186.754 434.083 188.532 434.379 192.755C434.602 195.571 434.972 198.609 435.268 199.424C435.639 200.683 435.046 201.128 431.045 202.61C423.636 205.203 418.524 209.722 415.115 216.539C412.448 221.948 412.3 222.689 412.3 229.135V236.025L409.707 236.47C405.409 237.285 401.557 239.952 399.482 243.508C397.852 246.25 397.556 247.732 397.556 252.029C397.556 258.771 399.408 264.402 404.002 271.96C410.448 282.407 410.596 282.925 411.189 291.89C411.485 296.929 412.226 301.374 412.967 303.152C415.782 309.747 420.969 312.414 425.859 309.747C428.304 308.413 428.378 308.413 429.415 309.747C429.934 310.487 430.749 312.858 431.267 315.007C433.342 324.194 427.563 333.752 416.671 339.309C415.412 339.976 410.596 342.051 406.076 343.903C388.961 350.793 382.811 354.868 371.846 366.353C348.877 390.284 325.612 431.554 318.129 461.561C315.832 470.822 314.943 485.567 316.277 492.605C318.5 504.386 323.612 514.018 331.54 521.205L335.541 524.835L324.279 529.133C311.313 534.023 293.234 542.543 284.343 547.878C259.374 563.067 243.074 590.332 243 617.08C243 633.38 247.594 645.457 257.744 655.459C278.12 675.612 320.871 677.094 367.474 659.386C384.886 652.792 422.599 635.677 474.167 611.004C535.144 581.812 557.15 574.625 581.97 575.662C601.975 576.477 615.904 583.071 623.832 595.445C628.722 603.076 630.723 614.264 628.722 623.377C626.87 632.417 623.684 637.973 616.497 645.086C607.087 654.348 600.123 658.052 583.897 662.35C575.821 664.424 574.413 664.572 560.854 664.647C544.332 664.721 541.22 664.35 512.176 658.719C485.577 653.607 473.87 651.977 456.977 651.014C419.116 648.939 390.665 656.571 369.327 674.501C359.769 682.503 352.804 693.32 349.915 704.36C348.136 711.399 348.359 725.18 350.359 732.885C356.435 755.705 373.55 773.488 399.186 783.638C424.673 793.64 454.903 794.752 480.613 786.528C506.619 778.229 524.623 762.818 530.402 743.999C534.107 732.144 532.921 717.622 527.513 706.953C518.548 689.097 500.914 679.169 478.316 679.169C460.904 679.169 447.123 684.651 435.565 696.136C426.451 705.323 422.451 713.769 421.784 725.624C420.672 743.184 428.23 756.446 443.344 763.707C449.272 766.597 450.383 766.819 457.274 767.19C461.867 767.412 466.239 767.19 468.832 766.597C478.834 764.374 486.614 758.595 490.615 750.445C492.764 746.074 493.06 744.814 493.06 739.553C493.06 734.367 492.838 733.182 491.208 730.811C490.17 729.329 489.207 728.069 488.985 728.069C488.763 728.069 488.615 730.959 488.615 734.589C488.615 739.924 488.244 741.702 486.688 745.11C479.946 759.41 462.016 765.263 447.049 758.076C442.011 755.631 436.083 749.185 433.194 743.036C431.045 738.442 430.897 737.479 430.823 729.921C430.823 722.586 431.045 721.253 433.046 716.363C439.788 699.84 455.644 689.467 476.019 688.356C502.247 686.874 523.734 705.101 523.808 729.032C523.808 734.441 521.734 742.591 518.77 748.815C516.695 753.186 514.769 755.78 509.434 761.04C499.506 770.894 488.54 776.822 472.388 781.045C461.423 783.934 454.458 784.601 440.529 784.157C429.489 783.86 426.748 783.49 418.968 781.489C409.781 779.044 397.778 773.858 391.406 769.487C372.068 756.298 362.066 735.701 365.177 715.548C367.03 703.915 370.808 696.654 379.699 687.689C386.368 680.947 391.184 677.539 400.667 672.945C418.079 664.35 433.861 661.609 461.497 662.35C478.538 662.794 484.984 663.461 513.065 668.055C539.664 672.352 552.037 673.463 568.263 673.019C593.973 672.278 609.829 667.907 622.943 658.052C631.834 651.384 639.54 639.752 641.985 629.305C643.392 623.377 643.392 611.226 641.985 605.225C637.984 588.258 623.314 575.144 602.494 569.883C585.008 565.438 565.3 565.512 545.369 569.957C521.141 575.366 496.468 585.072 447.123 608.411C407.113 627.378 389.48 634.862 367.623 642.419C336.8 652.94 308.127 657.534 291.975 654.422C275.304 651.31 263.153 640.344 259.597 625.378C257.967 618.413 258.559 605.225 260.782 598.038C267.747 575.884 283.602 559.066 310.794 545.285C320.796 540.172 341.839 530.985 343.394 530.985C343.987 530.985 345.543 531.652 346.877 532.393C350.359 534.393 362.658 538.839 370.66 540.987C393.406 547.137 422.451 548.322 440.455 543.877C456.162 539.95 464.979 533.133 465.868 524.391C466.535 516.907 462.46 510.684 454.014 506.609C446.012 502.682 440.529 501.719 426.377 501.793C415.56 501.793 412.374 502.089 403.853 503.867C389.035 506.979 366.363 513.944 353.99 519.278C349.618 521.131 348.433 520.76 341.616 515.203C327.168 503.497 323.464 485.789 330.502 461.709C339.542 430.739 365.103 387.543 386.294 367.39C393.258 360.796 398.519 357.313 407.188 353.609C427.044 345.088 432.157 341.31 436.528 331.974C438.528 327.677 438.825 326.195 438.899 320.638C438.973 313.229 437.343 307.672 434.231 304.338C431.416 301.374 428.748 300.781 424.599 302.337C421.265 303.597 421.191 303.597 419.931 301.967C418.82 300.707 418.598 298.929 418.598 292.335C418.598 282.777 417.56 279.072 412.448 271.219C407.484 263.439 406.224 260.624 405.261 255.437C404.298 249.954 405.187 246.324 407.854 244.546C410.67 242.693 412.744 243.434 413.93 246.843C414.449 248.473 415.412 250.251 415.93 250.843C417.486 252.399 420.08 251.066 421.339 248.176C422.228 245.953 422.228 244.694 421.487 240.322C420.45 233.951 421.117 226.764 423.117 222.022C425.192 217.132 430.082 212.686 437.269 209.13C445.049 205.277 445.567 204.314 444.085 196.979C443.048 192.163 443.048 191.274 444.159 187.569C446.308 179.938 452.087 176.085 461.126 176.085C468.165 176.085 473.055 179.419 476.167 186.235C478.242 190.681 479.353 190.755 479.353 186.309C479.353 179.271 475.723 173.417 469.277 170.157C464.164 167.564 454.755 167.268 449.124 169.491ZM446.753 509.869C456.31 513.721 460.237 520.612 456.236 526.539C453.94 529.948 445.641 534.245 437.491 536.319C431.638 537.801 429.045 538.024 416.375 537.949C403.187 537.949 400.964 537.727 390.739 535.579C384.59 534.319 375.254 531.726 369.993 529.873C364.807 528.021 360.362 526.539 360.287 526.539C360.139 526.539 360.065 526.243 360.065 525.872C360.065 524.687 383.034 516.611 396.741 513.055C412.67 508.905 419.265 508.016 431.934 508.239C440.973 508.461 444.085 508.757 446.753 509.869Z" fill="#B38F6F"/>
<path d="M473.469 272.133C468.859 272.133 464.699 272.348 460.988 272.777C457.277 273.168 454.074 273.598 451.379 274.067C448.254 274.652 445.461 275.297 443 276L444.699 266.508C445.168 266.547 445.871 266.586 446.809 266.625C447.746 266.664 448.781 266.703 449.914 266.742C451.086 266.781 452.297 266.82 453.547 266.859C454.836 266.859 456.047 266.879 457.18 266.918C458.312 266.918 459.309 266.938 460.168 266.977C461.066 266.977 461.711 266.977 462.102 266.977H495.559C495.949 266.977 496.574 266.977 497.434 266.977C498.332 266.938 499.348 266.918 500.48 266.918C501.613 266.879 502.805 266.859 504.055 266.859C505.344 266.82 506.555 266.781 507.688 266.742C508.859 266.703 509.914 266.664 510.852 266.625C511.789 266.586 512.492 266.547 512.961 266.508L514.66 276C512.16 275.297 509.348 274.652 506.223 274.067C503.527 273.598 500.324 273.168 496.613 272.777C492.902 272.348 488.742 272.133 484.133 272.133V328.09C484.133 331.41 484.172 334.32 484.25 336.82C484.367 339.281 484.484 341.41 484.602 343.207C484.758 345.004 484.934 346.508 485.129 347.719C485.363 348.93 485.598 349.945 485.832 350.766V351H471.828V350.766C472.062 349.945 472.277 348.93 472.473 347.719C472.668 346.508 472.844 345.004 473 343.207C473.156 341.41 473.273 339.281 473.352 336.82C473.43 334.32 473.469 331.41 473.469 328.09V272.133ZM516.978 313.91C516.978 310.59 516.92 307.699 516.802 305.238C516.724 302.738 516.607 300.59 516.451 298.793C516.334 296.996 516.158 295.492 515.923 294.281C515.728 293.07 515.513 292.055 515.279 291.234V291H528.814V291.234C528.58 292.055 528.365 293.07 528.17 294.281C527.974 295.492 527.798 296.996 527.642 298.793C527.486 300.59 527.369 302.738 527.291 305.238C527.213 307.699 527.173 310.59 527.173 313.91V328.09C527.173 331.41 527.213 334.32 527.291 336.82C527.369 339.281 527.486 341.41 527.642 343.207C527.798 345.004 527.974 346.508 528.17 347.719C528.365 348.93 528.58 349.945 528.814 350.766V351H515.279V350.766C515.513 349.945 515.728 348.93 515.923 347.719C516.158 346.508 516.334 345.004 516.451 343.207C516.607 341.41 516.724 339.281 516.802 336.82C516.92 334.32 516.978 331.41 516.978 328.09V313.91ZM515.748 273.246C515.748 272.387 515.904 271.586 516.216 270.844C516.568 270.063 517.017 269.399 517.564 268.852C518.111 268.266 518.755 267.817 519.498 267.504C520.279 267.152 521.119 266.977 522.017 266.977C522.916 266.977 523.736 267.152 524.478 267.504C525.259 267.817 525.923 268.266 526.47 268.852C527.056 269.399 527.505 270.063 527.818 270.844C528.17 271.586 528.345 272.387 528.345 273.246C528.345 275.043 527.74 276.547 526.529 277.758C525.318 278.969 523.814 279.574 522.017 279.574C521.119 279.574 520.279 279.418 519.498 279.106C518.755 278.754 518.111 278.305 517.564 277.758C517.017 277.172 516.568 276.508 516.216 275.766C515.904 274.984 515.748 274.145 515.748 273.246ZM552.167 293.988C554.628 292.66 557.265 291.664 560.077 291C562.89 290.297 565.761 289.945 568.691 289.945C573.027 289.945 577.03 290.688 580.702 292.172C584.413 293.617 587.616 295.688 590.312 298.383C593.007 301.078 595.116 304.359 596.64 308.227C598.163 312.094 598.925 316.43 598.925 321.234C598.925 325.258 598.222 329.125 596.816 332.836C595.448 336.547 593.378 339.828 590.605 342.68C587.87 345.531 584.452 347.817 580.351 349.535C576.288 351.215 571.562 352.055 566.171 352.055C565.546 352.055 564.706 352.035 563.652 351.996C562.636 351.957 561.503 351.879 560.253 351.762C559.003 351.645 557.675 351.488 556.269 351.293C554.863 351.098 553.495 350.844 552.167 350.531C550.292 350.102 548.398 349.633 546.484 349.125C544.609 348.578 542.812 347.973 541.093 347.309C541.249 346.723 541.386 345.746 541.503 344.379C541.62 342.973 541.698 341.469 541.738 339.867C541.816 338.266 541.874 336.703 541.913 335.18C541.952 333.617 541.972 332.367 541.972 331.43V286.313C541.972 282.992 541.913 280.102 541.796 277.641C541.718 275.141 541.601 272.992 541.445 271.195C541.327 269.399 541.152 267.895 540.917 266.684C540.722 265.473 540.507 264.457 540.273 263.637V263.402H553.808V263.637C553.573 264.457 553.359 265.473 553.163 266.684C552.968 267.895 552.792 269.399 552.636 271.195C552.48 272.992 552.363 275.141 552.284 277.641C552.206 280.102 552.167 282.992 552.167 286.313V293.988ZM552.167 330.492C552.167 333.656 552.187 336.274 552.226 338.344C552.304 340.414 552.402 342.074 552.519 343.324C554.159 344.574 556.386 345.629 559.198 346.488C562.011 347.348 565.097 347.777 568.456 347.777C571.23 347.777 573.769 347.231 576.073 346.137C578.378 345.043 580.351 343.461 581.991 341.391C583.632 339.32 584.902 336.801 585.8 333.832C586.738 330.863 587.206 327.504 587.206 323.754C587.206 319.535 586.816 315.629 586.034 312.035C585.253 308.402 584.042 305.277 582.402 302.66C580.761 300.004 578.671 297.934 576.132 296.449C573.593 294.965 570.566 294.223 567.05 294.223C564.081 294.223 561.308 294.828 558.73 296.039C556.152 297.25 553.964 299.008 552.167 301.313V330.492ZM634.7 352.055C630.364 352.055 626.302 351.371 622.512 350.004C618.723 348.637 615.423 346.645 612.61 344.027C609.798 341.371 607.571 338.109 605.93 334.242C604.329 330.336 603.528 325.883 603.528 320.883C603.528 316.469 604.27 312.387 605.755 308.637C607.239 304.848 609.29 301.567 611.907 298.793C614.524 296.02 617.571 293.852 621.048 292.289C624.563 290.727 628.352 289.945 632.415 289.945C636.438 289.945 640.169 290.649 643.606 292.055C647.044 293.422 650.012 295.434 652.512 298.09C655.052 300.707 657.044 303.969 658.489 307.875C659.973 311.742 660.774 316.156 660.891 321.117C656.477 321.039 652.063 320.981 647.649 320.942C643.235 320.902 638.645 320.883 633.88 320.883C630.481 320.883 627.161 320.902 623.919 320.942C620.716 320.981 617.825 321.039 615.247 321.117C615.481 325.18 616.106 328.852 617.122 332.133C618.177 335.414 619.602 338.227 621.399 340.57C623.235 342.875 625.442 344.652 628.02 345.902C630.637 347.152 633.587 347.777 636.868 347.777C639.134 347.777 641.262 347.524 643.255 347.016C645.286 346.469 647.122 345.727 648.762 344.789C650.403 343.852 651.868 342.758 653.157 341.508C654.446 340.219 655.54 338.832 656.438 337.348L657.141 337.699L652.805 348.129C650.696 349.223 648.177 350.16 645.247 350.942C642.317 351.684 638.802 352.055 634.7 352.055ZM626.907 316.313C630.813 316.313 634.72 316.313 638.626 316.313C642.571 316.274 646.145 316.195 649.348 316.078C648.997 312.68 648.333 309.633 647.356 306.938C646.38 304.242 645.13 301.957 643.606 300.082C642.083 298.207 640.286 296.762 638.216 295.746C636.145 294.731 633.86 294.223 631.36 294.223C629.095 294.223 627.005 294.731 625.091 295.746C623.216 296.723 621.575 298.149 620.169 300.024C618.762 301.899 617.63 304.203 616.77 306.938C615.911 309.633 615.403 312.719 615.247 316.195C617.005 316.274 618.86 316.313 620.813 316.313C622.766 316.313 624.798 316.313 626.907 316.313ZM691.1 347.543C692.272 347.543 693.424 347.328 694.557 346.899C695.729 346.469 696.842 345.883 697.897 345.141C698.991 344.399 700.026 343.559 701.002 342.621C702.018 341.645 702.955 340.629 703.815 339.574L704.401 339.867L700.592 349.301C700.123 349.535 699.538 349.828 698.834 350.18C698.17 350.492 697.35 350.785 696.373 351.059C695.436 351.371 694.323 351.625 693.034 351.82C691.745 352.055 690.221 352.172 688.463 352.172C683.229 352.172 679.147 350.766 676.217 347.953C673.327 345.102 671.881 340.668 671.881 334.652V295.57L662.038 295.922V290.766C663.248 290.844 664.694 290.902 666.373 290.942C668.053 290.981 669.889 291 671.881 291C671.842 288.227 671.764 285.785 671.647 283.676C671.569 281.527 671.452 279.672 671.295 278.109C671.178 276.508 671.022 275.16 670.827 274.067C670.631 272.973 670.436 272.055 670.241 271.313V271.078H683.776V271.313C683.541 272.055 683.327 272.973 683.131 274.067C682.936 275.16 682.76 276.488 682.604 278.051C682.487 279.613 682.37 281.469 682.252 283.617C682.174 285.727 682.116 288.188 682.077 291C684.538 290.961 686.94 290.922 689.284 290.883C691.666 290.805 693.815 290.727 695.729 290.649C697.682 290.531 699.323 290.434 700.651 290.356C702.018 290.238 702.916 290.141 703.346 290.063L702.291 296.039C700.299 296 698.209 295.942 696.022 295.863C694.147 295.785 691.998 295.727 689.577 295.688C687.155 295.649 684.655 295.609 682.077 295.57V335.883C682.077 338.305 682.33 340.277 682.838 341.801C683.385 343.285 684.069 344.457 684.889 345.317C685.748 346.176 686.705 346.762 687.76 347.074C688.854 347.387 689.967 347.543 691.1 347.543Z" fill="#B38F6F"/>
<path d="M509.504 447V446.766C509.582 446.57 509.641 446.277 509.68 445.887C509.719 445.496 509.738 445.145 509.738 444.832C509.738 443.621 509.562 442.293 509.211 440.848C508.898 439.363 508.273 437.527 507.336 435.34L500.246 419.402C498.059 419.324 495.148 419.285 491.516 419.285C487.883 419.285 483.957 419.285 479.738 419.285C476.652 419.285 473.664 419.285 470.773 419.285C467.922 419.285 465.344 419.324 463.039 419.402L456.301 434.871C455.715 436.317 455.09 437.899 454.426 439.617C453.762 441.336 453.43 443.074 453.43 444.832C453.43 445.34 453.469 445.77 453.547 446.121C453.625 446.434 453.703 446.649 453.781 446.766V447H441.828V446.766C442.531 446.024 443.41 444.715 444.465 442.84C445.52 440.926 446.672 438.543 447.922 435.692L481.496 361.219H486.184L518 432.82C518.742 434.5 519.504 436.141 520.285 437.742C521.105 439.305 521.867 440.711 522.57 441.961C523.273 443.211 523.898 444.266 524.445 445.125C524.992 445.984 525.363 446.531 525.559 446.766V447H509.504ZM471.535 414.246C473.801 414.246 476.125 414.246 478.508 414.246C480.891 414.207 483.215 414.188 485.48 414.188C487.785 414.149 489.992 414.129 492.102 414.129C494.211 414.09 496.125 414.051 497.844 414.012L481.379 376.805L465.207 414.246H471.535ZM556.353 398.777L555.533 398.895C555.259 397.996 554.81 397.039 554.185 396.024C553.599 395.008 552.818 394.07 551.841 393.211C550.904 392.352 549.752 391.649 548.384 391.102C547.056 390.516 545.513 390.223 543.755 390.223C542.545 390.223 541.392 390.399 540.298 390.75C539.244 391.102 538.306 391.629 537.486 392.332C536.705 392.996 536.08 393.836 535.611 394.852C535.142 395.867 534.908 397.059 534.908 398.426C534.908 400.34 535.494 402.176 536.666 403.934C537.877 405.652 539.38 407.371 541.177 409.09C542.974 410.77 544.908 412.469 546.978 414.188C549.088 415.906 551.041 417.703 552.838 419.578C554.634 421.453 556.119 423.465 557.291 425.613C558.502 427.723 559.107 430.008 559.107 432.469C559.107 434.461 558.755 436.414 558.052 438.328C557.349 440.203 556.255 441.883 554.771 443.367C553.326 444.852 551.451 446.063 549.146 447C546.88 447.899 544.166 448.348 541.002 448.348C539.127 448.348 537.369 448.172 535.728 447.82C534.127 447.469 532.642 447.039 531.275 446.531C529.947 445.984 528.736 445.399 527.642 444.774C526.588 444.109 525.65 443.484 524.83 442.899L525.416 431.766H526.353C526.744 433.602 527.33 435.281 528.111 436.805C528.892 438.328 529.849 439.637 530.982 440.731C532.154 441.785 533.482 442.625 534.966 443.25C536.451 443.836 538.072 444.129 539.83 444.129C542.72 444.129 545.005 443.328 546.685 441.727C548.404 440.125 549.263 438.035 549.263 435.457C549.263 433.387 548.677 431.492 547.505 429.774C546.373 428.016 544.927 426.336 543.17 424.734C541.412 423.133 539.517 421.531 537.486 419.93C535.494 418.328 533.619 416.629 531.861 414.832C530.103 412.996 528.638 411.004 527.466 408.856C526.334 406.668 525.767 404.188 525.767 401.414C525.767 399.149 526.177 397.078 526.998 395.203C527.857 393.289 529.029 391.668 530.513 390.34C532.037 388.973 533.834 387.918 535.904 387.176C537.974 386.434 540.24 386.063 542.701 386.063C545.943 386.063 548.638 386.414 550.787 387.117C552.974 387.781 554.634 388.426 555.767 389.051L556.353 398.777ZM590.019 443.543C591.191 443.543 592.343 443.328 593.476 442.899C594.648 442.469 595.761 441.883 596.816 441.141C597.909 440.399 598.945 439.559 599.921 438.621C600.937 437.645 601.874 436.629 602.734 435.574L603.32 435.867L599.511 445.301C599.042 445.535 598.456 445.828 597.753 446.18C597.089 446.492 596.269 446.785 595.292 447.059C594.355 447.371 593.241 447.625 591.952 447.82C590.663 448.055 589.14 448.172 587.382 448.172C582.148 448.172 578.066 446.766 575.136 443.953C572.245 441.102 570.8 436.668 570.8 430.652V391.57L560.956 391.922V386.766C562.167 386.844 563.613 386.902 565.292 386.942C566.972 386.981 568.808 387 570.8 387C570.761 384.227 570.683 381.785 570.566 379.676C570.488 377.527 570.37 375.672 570.214 374.109C570.097 372.508 569.941 371.16 569.745 370.067C569.55 368.973 569.355 368.055 569.159 367.313V367.078H582.695V367.313C582.46 368.055 582.245 368.973 582.05 370.067C581.855 371.16 581.679 372.488 581.523 374.051C581.405 375.613 581.288 377.469 581.171 379.617C581.093 381.727 581.034 384.188 580.995 387C583.456 386.961 585.859 386.922 588.202 386.883C590.585 386.805 592.734 386.727 594.648 386.649C596.601 386.531 598.241 386.434 599.57 386.356C600.937 386.238 601.835 386.141 602.265 386.063L601.21 392.039C599.218 392 597.128 391.942 594.941 391.863C593.066 391.785 590.917 391.727 588.495 391.688C586.073 391.649 583.573 391.609 580.995 391.57V431.883C580.995 434.305 581.249 436.277 581.757 437.801C582.304 439.285 582.988 440.457 583.808 441.317C584.667 442.176 585.624 442.762 586.679 443.074C587.773 443.387 588.886 443.543 590.019 443.543ZM611.262 409.91C611.262 406.59 611.204 403.699 611.087 401.238C611.009 398.738 610.891 396.59 610.735 394.793C610.618 392.996 610.442 391.492 610.208 390.281C610.012 389.07 609.798 388.055 609.563 387.234V387H623.098V387.234C622.786 388.133 622.512 389.227 622.278 390.516C622.083 391.805 621.927 393.465 621.809 395.496C623.255 394.285 624.759 393.094 626.321 391.922C627.884 390.75 629.485 389.715 631.126 388.817C632.766 387.918 634.427 387.195 636.106 386.649C637.825 386.102 639.544 385.828 641.262 385.828C642.317 385.828 643.235 385.887 644.016 386.004C644.798 386.082 645.501 386.219 646.126 386.414C646.751 386.57 647.317 386.766 647.825 387C648.333 387.195 648.821 387.391 649.29 387.586L646.419 398.777L645.423 398.543C644.954 396.824 644.075 395.457 642.786 394.442C641.497 393.387 639.739 392.859 637.512 392.859C636.302 392.859 635.032 393.074 633.704 393.504C632.376 393.934 631.028 394.539 629.661 395.32C628.294 396.063 626.927 396.942 625.559 397.957C624.192 398.934 622.864 399.969 621.575 401.063C621.497 402.195 621.458 403.426 621.458 404.754C621.458 406.082 621.458 407.488 621.458 408.973V424.09C621.458 427.41 621.497 430.32 621.575 432.82C621.653 435.281 621.77 437.41 621.927 439.207C622.083 441.004 622.259 442.508 622.454 443.719C622.649 444.93 622.864 445.945 623.098 446.766V447H609.563V446.766C609.798 445.945 610.012 444.93 610.208 443.719C610.442 442.508 610.618 441.004 610.735 439.207C610.891 437.41 611.009 435.281 611.087 432.82C611.204 430.32 611.262 427.41 611.262 424.09V409.91ZM649.85 416.883C649.85 412.469 650.67 408.387 652.311 404.637C653.952 400.848 656.198 397.567 659.049 394.793C661.94 392.02 665.338 389.852 669.245 388.289C673.151 386.727 677.35 385.945 681.842 385.945C686.256 385.945 690.397 386.688 694.264 388.172C698.17 389.617 701.569 391.688 704.459 394.383C707.35 397.078 709.616 400.359 711.256 404.227C712.936 408.094 713.776 412.43 713.776 417.234C713.776 421.258 713.073 425.125 711.666 428.836C710.26 432.547 708.19 435.828 705.455 438.68C702.721 441.531 699.362 443.817 695.377 445.535C691.432 447.215 686.881 448.055 681.725 448.055C677.35 448.055 673.229 447.332 669.362 445.887C665.495 444.442 662.116 442.371 659.225 439.676C656.334 436.981 654.049 433.719 652.37 429.891C650.69 426.024 649.85 421.688 649.85 416.883ZM683.073 443.777C685.846 443.777 688.385 443.231 690.69 442.137C693.034 441.043 695.045 439.461 696.725 437.391C698.405 435.32 699.713 432.801 700.651 429.832C701.588 426.863 702.057 423.504 702.057 419.754C702.057 415.535 701.608 411.629 700.709 408.035C699.811 404.402 698.463 401.277 696.666 398.66C694.909 396.004 692.682 393.934 689.987 392.449C687.291 390.965 684.147 390.223 680.553 390.223C677.78 390.223 675.241 390.77 672.936 391.863C670.631 392.918 668.62 394.461 666.901 396.492C665.221 398.524 663.913 401.024 662.975 403.992C662.038 406.922 661.569 410.262 661.569 414.012C661.569 418.231 662.018 422.156 662.916 425.789C663.854 429.422 665.221 432.586 667.018 435.281C668.815 437.938 671.041 440.027 673.698 441.551C676.393 443.035 679.518 443.777 683.073 443.777Z" fill="#B38F6F"/>
</svg>
